<?xml version="1.0" encoding="UTF-8" standalone="no"?><!DOCTYPE svg PUBLIC "-//W3C//DTD SVG 1.1//EN" "http://www.w3.org/Graphics/SVG/1.1/DTD/svg11.dtd"><svg width="100%" height="100%" viewBox="0 0 2000 2000" version="1.1" xmlns="http://www.w3.org/2000/svg" xmlns:xlink="http://www.w3.org/1999/xlink" xml:space="preserve" xmlns:serif="http://www.serif.com/" style="fill-rule:evenodd;clip-rule:evenodd;stroke-linecap:round;stroke-linejoin:round;stroke-miterlimit:1.5;"><g><g id="Linke-Hälfte" serif:id="Linke Hälfte"><g id="Reifen"><path d="M109.653,1436.27c-0.018,-7.416 0.336,-15.083 1.092,-22.948c0.521,-5.422 5.285,-9.429 10.715,-9.015c5.431,0.415 9.531,5.099 9.223,10.536c-0.356,6.291 -0.708,13.807 -1.049,22.251c0.114,26.906 5.571,49.954 15.157,65.676c6.723,11.025 15.381,18.25 25.901,18.991c50.466,3.555 133.808,4.852 161.271,4.622c2.767,-0.024 5.42,1.101 7.328,3.106c1.907,2.004 2.899,4.71 2.739,7.473c-1.597,27.502 -1.16,122.836 -1.237,139.955c-0.008,1.781 -0.546,4.783 -2.087,8.352c-2.372,5.495 -7.332,13.304 -14.177,19.192c-9.872,8.493 -23.618,13.004 -27.77,13.713c-9.162,1.562 -131.517,1.511 -151.834,-4.605c-12.812,-3.856 -29.032,-22.137 -34.323,-30.767c-0.582,-0.95 -1.359,-2.622 -1.868,-5.12c-0.795,-3.901 -1.439,-12.461 -1.818,-24.334c-1.552,-48.595 0.296,-156.489 2.737,-217.078Zm17.776,76.435l0.286,0.477c10.553,17.308 25.057,27.366 41.572,28.53c45.605,3.212 117.798,4.602 152.34,4.691c-1.075,35.542 -0.774,112.535 -0.833,129.663c-0.594,1.221 -4.565,9.154 -9.308,13.233c-6.463,5.56 -15.371,8.696 -18.089,9.159c-8.611,1.469 -123.613,1.708 -142.707,-4.04c-3.151,-0.948 -6.465,-3.562 -9.673,-6.456c-5.319,-4.798 -10.122,-10.671 -12.703,-14.581c-0.22,-2.108 -1.101,-11.039 -1.408,-20.671c-1.004,-31.433 -0.573,-87.86 0.523,-140.005Z"/><path d="M180.771,1543.07c-0.043,19.937 0.502,149.434 0.014,161.109c-0.173,4.136 3.044,7.634 7.18,7.807c4.136,0.173 7.634,-3.045 7.807,-7.18c0.489,-11.719 -0.044,-141.694 -0.001,-161.705c0.008,-4.139 -3.345,-7.507 -7.485,-7.515c-4.139,-0.009 -7.507,3.344 -7.515,7.484Z"/><path d="M215.106,1536.2c-1.439,61.033 0.112,116.48 0.383,168.324c0.021,4.139 3.4,7.482 7.539,7.46c4.139,-0.021 7.482,-3.399 7.461,-7.539c-0.27,-51.71 -1.823,-107.015 -0.387,-167.891c0.098,-4.138 -3.183,-7.577 -7.321,-7.675c-4.138,-0.097 -7.577,3.183 -7.675,7.321Z"/><path d="M150.933,1532.08c1.148,24.927 1.752,140.851 2.156,163.322c0.074,4.139 3.494,7.439 7.633,7.364c4.139,-0.074 7.438,-3.494 7.364,-7.633c-0.404,-22.529 -1.018,-138.752 -2.169,-163.743c-0.191,-4.135 -3.702,-7.337 -7.837,-7.147c-4.135,0.191 -7.338,3.702 -7.147,7.837Z"/><path d="M249.483,1537.83c-0.946,35.753 0.869,146.594 1.383,166.853c0.105,4.138 3.55,7.412 7.688,7.307c4.138,-0.105 7.412,-3.55 7.307,-7.688c-0.511,-20.165 -2.325,-130.489 -1.384,-166.075c0.11,-4.138 -3.161,-7.586 -7.299,-7.696c-4.138,-0.109 -7.586,3.161 -7.695,7.299Z"/><path d="M283.477,1533.27c0.298,39.565 -2.219,149.718 -1.947,171.892c0.051,4.14 3.453,7.459 7.592,7.408c4.139,-0.051 7.458,-3.453 7.407,-7.592c-0.272,-22.165 2.245,-132.272 1.947,-171.821c-0.031,-4.139 -3.417,-7.474 -7.556,-7.443c-4.139,0.031 -7.474,3.417 -7.443,7.556Z"/></g><g id="Spiegel"><path d="M38.173,751.832l-0.026,0.06l-0.017,0.046l-0.006,0.015l-0.007,0.019l-0.022,0.057l-0.015,0.05l-0.007,0.018l-0.006,0.022l-0.016,0.051l-0.013,0.047l-0.008,0.026l-0.006,0.027l-0.012,0.043l-0.009,0.041l-0.008,0.034l-0.006,0.035l-0.008,0.035l-0.005,0.035l-0.008,0.042l-0.006,0.043l-0.005,0.028l-0.003,0.027l-0.006,0.048l-0.005,0.053l-0.002,0.023l-0.002,0.02l-0.004,0.051l-0.002,0.061l-0.002,0.02l0,0.016l-0.002,0.049l0.001,0.066l0,0.023l0.001,0.016l0,0.041l0.004,0.064l0.001,0.034l0.002,0.02l0.002,0.027l0.006,0.052l0.005,0.053l0.003,0.026l0.002,0.013l0.005,0.032l0.011,0.078l0.006,0.032l0,0.001l0.001,0.004c0.07,0.386 0.214,0.744 0.416,1.063l0,0.001l0.038,0.056l0.037,0.056l0.001,0.001c0.215,0.309 0.491,0.58 0.819,0.793l0.003,0.003l0.002,0.001l0.026,0.017l0.068,0.041l0.027,0.017l0.012,0.007l0.023,0.013l0.047,0.025l0.045,0.025l0.025,0.012l0.018,0.01l0.03,0.014l0.058,0.028l0.037,0.017l0.015,0.006l0.021,0.009l0.06,0.026l0.047,0.018l0.014,0.006l0.019,0.006l0.057,0.022l0.05,0.016l0.019,0.006l0.021,0.007l0.051,0.016l0.047,0.012l0.026,0.008l0.027,0.006l0.043,0.012l0.042,0.009l0.034,0.008l0.034,0.007l0.035,0.007l0.035,0.006l0.042,0.008l0.044,0.006l0.027,0.004l0.027,0.003l0.048,0.007l0.053,0.004l0.023,0.003l0.02,0.001l0.051,0.004l0.061,0.003l0.02,0.001l0.016,-0l0.049,0.002l0.067,-0.001l0.022,0c38.343,-0.623 76.672,-2.309 115.017,-2.792c21.362,-0.268 42.695,1.175 64.048,0.935l0.002,0l0.002,0l0.014,-0l0.069,-0.003l0.069,-0.002l0.007,-0l0.009,-0.001l0.092,-0.008l0.046,-0.004l0.004,-0l0.011,-0.001l0.1,-0.014l0.036,-0.005l0.004,-0.001l0.009,-0.001l0.1,-0.019l0.036,-0.006l0.003,-0.001l0.009,-0.002l0.092,-0.022l0.042,-0.01l0.003,-0.001l0.007,-0.002l0.081,-0.024l0.052,-0.015l0.004,-0.002l0.005,-0.001l0.065,-0.023l0.065,-0.023l0.005,-0.002l0.004,-0.001l0.048,-0.02l0.08,-0.032l0.006,-0.002l0.002,-0.001l0.031,-0.015l0.094,-0.043l0.006,-0.003l0.001,-0.001l0.017,-0.009l0.105,-0.055l0.006,-0.003l0,-0.001l0.005,-0.002c0.125,-0.07 0.245,-0.149 0.358,-0.236l0.107,-0.086l0.005,-0.004l0,-0l0.014,-0.012l0.089,-0.079l0.004,-0.004l0.001,-0.001l0.029,-0.028l0.07,-0.068l0.002,-0.002l0.002,-0.002l0.047,-0.05l0.047,-0.051l0.002,-0.002l0.002,-0.002l0.063,-0.074l0.026,-0.032l0.001,-0.001l0.003,-0.003l0.073,-0.095l0.011,-0.015l0.001,-0l0.003,-0.005l0.079,-0.113c0.078,-0.119 0.149,-0.243 0.21,-0.373l0.002,-0.005l0.001,0l0.003,-0.006l0.048,-0.109l0.007,-0.018l0.001,-0.001l0.002,-0.006l0.037,-0.096l0.013,-0.033l0,-0.002l0.003,-0.006l0.026,-0.081l0.016,-0.05l0.001,-0.003l0.002,-0.006l0.018,-0.066l0.019,-0.067l0.001,-0.005l0.001,-0.004l0.012,-0.053l0.018,-0.082l0.001,-0.007l0.001,-0.004l0.007,-0.042l0.016,-0.094l0.001,-0.008l0.001,-0.004l0.004,-0.036l0.012,-0.101l0.001,-0.009l0,-0.004l0.002,-0.037l0.007,-0.101l0.001,-0.01l-0,-0.004l0.001,-0.046l0.001,-0.092l-0,-0.01l0,-0.007l-0.002,-0.069l-0.003,-0.068c-0.627,-10.953 -1.488,-30.96 -5.283,-47.979c-2.669,-11.962 -6.897,-22.44 -13.182,-27.837c-0.376,-0.323 -1.089,-0.746 -2.211,-0.978c-1.106,-0.229 -3.016,-0.379 -5.482,-0.433c-12.8,-0.277 -42.058,1.704 -45.407,2.052c-9.839,1.022 -36.168,4.482 -53.994,8.025c-8,1.59 -14.346,3.263 -17.014,4.692c-11.338,6.068 -19.669,16.624 -26.317,28.496c-6.408,11.444 -11.265,24.094 -15.95,34.786l-0.009,0.022Zm44.102,-57.458c-9.836,5.623 -17.034,15.093 -22.908,25.581c-5.474,9.775 -9.785,20.45 -13.843,29.979c20.338,-0.374 40.671,-1.021 61.004,-1.603c-11.535,-16.018 -18.775,-35.186 -24.253,-53.957Zm118.769,-14.3c-0.642,-0.074 -2.547,-0.278 -4.31,-0.316c-12.589,-0.273 -41.364,1.679 -44.657,2.021c-9.739,1.011 -35.8,4.435 -53.444,7.942c-4.206,0.836 -7.915,1.654 -10.752,2.447c5.687,19.605 13.267,39.727 25.994,55.956c14.011,-0.388 28.027,-0.725 42.044,-0.901c20.327,-0.256 40.626,1.038 60.938,0.957c-0.613,-11.136 -1.594,-28.711 -4.975,-43.866c-2.285,-10.247 -5.555,-19.401 -10.838,-24.24Z" style="fill:#999087;"/><path d="M43.524,766.012l-0.012,0.004l-0.004,0.002l-0.031,0.011l-0.069,0.029l-0.03,0.012l-0.013,0.006l-0.022,0.009l-0.049,0.023l-0.048,0.023l-0.021,0.011l-0.013,0.006l-0.029,0.015l-0.067,0.035l-0.028,0.016l-0.004,0.003l-0.01,0.006c-0.325,0.185 -0.619,0.435 -0.865,0.747l-0.065,0.087l-0.016,0.022l-0.002,0.003l-0.009,0.012l-0.046,0.069l-0.025,0.036l-0.004,0.007l-0.01,0.014l-0.037,0.063l-0.024,0.039l-0.006,0.011l-0.011,0.017l-0.031,0.059l-0.022,0.041l-0.007,0.013l-0.01,0.02l-0.026,0.055l-0.021,0.043l-0.007,0.016l-0.009,0.02l-0.022,0.053l-0.02,0.046l-0.006,0.018l-0.009,0.02l-0.017,0.05l-0.019,0.05l-0.006,0.02l-0.007,0.019l-0.014,0.048l-0.017,0.054l-0.006,0.021l-0.005,0.017l-0.011,0.047l-0.015,0.059l-0.005,0.021l-0.003,0.015l-0.009,0.046l-0.014,0.065l-0.003,0.02l-0.002,0.012l-0.007,0.045l-0.011,0.072l-0.002,0.018l-0.001,0.008l-0.004,0.044l-0.009,0.082l-0.001,0.015l0,0.003l-0.001,0.028l-0.006,0.108c-0.011,0.397 0.056,0.777 0.187,1.127l0.004,0.012l0.001,0.004l0.012,0.031l0.029,0.069l0.012,0.03l0.006,0.013l0.009,0.022l0.023,0.049l0.022,0.048l0.012,0.021l0.006,0.013l0.015,0.029l0.035,0.067l0.016,0.028l0.002,0.004l0.007,0.01c0.185,0.325 0.435,0.619 0.747,0.864c16.44,12.926 32.227,28.76 53.642,32.097c14.403,2.244 70.282,3.39 82.589,1.849c5.984,-0.749 11.312,-3.367 16.57,-6.169c4.692,-2.501 9.322,-5.158 14.483,-6.293c8.289,-1.823 17.078,-0.244 25.745,0.474c3.782,0.313 10.029,0.701 13.731,0.843c0.691,0.027 1.88,-0.153 2.84,-1.474c0.751,-1.034 2.113,-4.93 3.112,-7.987c0.05,-0.104 0.094,-0.211 0.132,-0.322c0.552,-1.614 3.89,-10.54 4.03,-14.051c0.129,-3.225 -1.799,-4.438 -3.53,-4.46c-2.28,-0.029 -4.785,-0.052 -7.492,-0.07c-1.328,-0.009 -2.704,-0.017 -4.127,-0.024c-53.037,-0.25 -169.585,1.064 -199.788,0.23c-0.397,-0.011 -0.778,0.056 -1.127,0.187Zm209.815,5.648c-1.522,-0.017 -3.129,-0.03 -4.813,-0.042c-1.325,-0.009 -2.697,-0.016 -4.115,-0.023c-48.87,-0.23 -151.627,0.864 -191.2,0.386c13.285,11.007 26.647,22.654 44.069,25.369c14.112,2.199 68.861,3.335 80.92,1.824c5.247,-0.657 9.882,-3.053 14.493,-5.51c5.177,-2.759 10.323,-5.606 16.016,-6.858c8.863,-1.949 18.262,-0.413 27.529,0.354c3.129,0.26 7.979,0.571 11.599,0.745c0.786,-2.24 2.551,-7.295 2.951,-8.595c0.116,-0.374 0.297,-0.71 0.529,-0.996c0.76,-2.143 1.607,-4.706 2.022,-6.654Z" style="fill:#25201c;"/></g><g id="Applikationen"><g><path d="M200.024,1347.62c0.151,-0.001 2.665,-0.006 6.175,-0.001c36.39,0.045 219.239,0.563 238.958,0.739c1.149,0.011 2.089,-0.914 2.1,-2.062c0.01,-1.149 -0.914,-2.089 -2.063,-2.1c-19.721,-0.176 -202.595,-0.694 -238.99,-0.74c-3.658,-0.004 -5.844,-0.004 -6.247,0.002c-1.649,0.023 -2.015,1.434 -2.024,1.462c-0.342,1.097 0.27,2.265 1.366,2.607c0.241,0.076 0.486,0.105 0.725,0.093Z"/><path d="M205.661,1358.78c34.738,0.029 69.484,0.867 104.222,1.107c37.636,0.261 75.269,-0.062 112.906,0.372c1.148,0.013 2.091,-0.908 2.105,-2.057c0.013,-1.149 -0.909,-2.092 -2.058,-2.105c-37.642,-0.434 -75.282,-0.111 -112.924,-0.372c-34.747,-0.24 -69.501,-1.079 -104.247,-1.107c-1.149,-0.001 -2.082,0.931 -2.083,2.079c-0.001,1.149 0.931,2.082 2.079,2.083Z"/><path d="M208.548,1371c64.837,-0.209 129.694,0.982 194.529,1.572c1.148,0.01 2.089,-0.914 2.099,-2.062c0.011,-1.149 -0.913,-2.09 -2.062,-2.1c-64.851,-0.59 -129.725,-1.781 -194.579,-1.572c-1.149,0.004 -2.079,0.939 -2.075,2.088c0.004,1.148 0.939,2.078 2.088,2.074Z"/><path d="M214.211,1382.87c56.531,-0.46 113.164,0.123 169.689,1.062c1.148,0.019 2.096,-0.898 2.115,-2.047c0.019,-1.148 -0.898,-2.096 -2.046,-2.115c-56.56,-0.94 -113.227,-1.522 -169.792,-1.062c-1.148,0.01 -2.073,0.95 -2.064,2.098c0.009,1.149 0.949,2.074 2.098,2.064Z"/><path d="M218.807,1394.58c48.048,0.102 96.128,0.697 144.162,1.834c1.148,0.027 2.103,-0.883 2.13,-2.031c0.027,-1.148 -0.883,-2.103 -2.031,-2.13c-48.065,-1.138 -96.174,-1.734 -144.252,-1.835c-1.148,-0.002 -2.083,0.928 -2.085,2.077c-0.003,1.148 0.928,2.083 2.076,2.085Z"/></g><rect x="493.967" y="1207.85" width="44.982" height="42.052" style="fill:none;stroke:#000;stroke-width:3px;"/></g><g id="Korosserie"><path d="M364.829,937.901c-32.562,-43.905 -69.422,-85.333 -107.584,-123.695c-1.168,-1.174 -3.069,-1.179 -4.243,-0.011c-1.174,1.167 -1.179,3.068 -0.011,4.242c51.218,51.486 100.086,108.517 139.244,169.647l0.004,0.006l0.005,0.008l0.052,0.076l0.026,0.038l0.002,0.003l0.006,0.009l0.062,0.081l0.022,0.029l0.002,0.002l0.006,0.008l0.066,0.078l0.023,0.028l0.002,0.002l0.005,0.007l0.066,0.07l0.028,0.031l0.003,0.002l0.005,0.006l0.06,0.058l0.039,0.038l0.003,0.003l0.004,0.004l0.052,0.045l0.052,0.046l0.004,0.003l0.003,0.003l0.041,0.032l0.067,0.054l0.005,0.003l0.002,0.002l0.027,0.02l0.084,0.061l0.006,0.003l0.001,0.001l0.015,0.01l0.101,0.065l0.01,0.006c0.122,0.075 0.25,0.141 0.381,0.197l0.128,0.051l0.006,0.002l0,0l0.016,0.006l0.114,0.04l0.005,0.001l0.001,0l0.039,0.012l0.094,0.027l0.003,0.001l0.002,0.001l0.067,0.016l0.067,0.017l0.003,0l0.003,0.001l0.096,0.018l0.04,0.008l0.001,0l0.005,0.001l0.12,0.017l0.016,0.003l0.001,-0l0.006,0.001l0.137,0.013c0.142,0.01 0.286,0.01 0.429,0l0.012,-0.001l0.119,-0.011l0.018,-0.002l0.001,-0l0.007,-0.001l0.102,-0.015l0.034,-0.005l0.003,-0.001l0.006,-0.001l0.084,-0.016l0.051,-0.01l0.004,-0.001l0.005,-0.001l0.067,-0.017l0.067,-0.017l0.005,-0.001l0.004,-0.002l0.052,-0.015l0.081,-0.025l0.006,-0.002l0.004,-0.001l0.04,-0.015l0.09,-0.032l0.008,-0.003l0.003,-0.001l0.033,-0.014l0.094,-0.039l0.009,-0.004l0.003,-0.002l0.033,-0.015l0.092,-0.044l0.009,-0.005l0.004,-0.002l0.04,-0.022l0.081,-0.043l0.009,-0.005l0.006,-0.003l0.059,-0.036l0.059,-0.036l0.005,-0.004l0.008,-0.005l0.076,-0.052l0.038,-0.026l0.004,-0.002l0.008,-0.006l0.081,-0.062l0.029,-0.022l0.003,-0.002l0.008,-0.006l0.078,-0.066l0.027,-0.023l0.003,-0.002l0.006,-0.005l0.07,-0.066l0.031,-0.028l0.003,-0.003l0.005,-0.005l0.059,-0.06l0.038,-0.039l0.003,-0.003l0.003,-0.004l0.046,-0.052l0.046,-0.052l0.003,-0.004l0.002,-0.003l0.033,-0.041l0.053,-0.067l0.004,-0.005l0.001,-0.002l0.021,-0.027l0.06,-0.084l0.004,-0.006l0,-0.001l0.01,-0.015l0.066,-0.101l0.005,-0.01c0.076,-0.122 0.141,-0.25 0.197,-0.381l0.052,-0.128l0.002,-0.006l-0,-0l0.005,-0.016l0.04,-0.114l0.002,-0.005l0,-0.001l0.011,-0.039l0.028,-0.094l0.001,-0.003l0.001,-0.002l0.016,-0.067l0.016,-0.067l0.001,-0.003l0.001,-0.003l0.018,-0.096l0.008,-0.04l-0,-0.001l0.001,-0.005l0.017,-0.12l0.002,-0.016l0,-0.001l0.001,-0.006l0.013,-0.137c0.011,-0.142 0.011,-0.286 0.001,-0.429l-0.001,-0.012l-0.012,-0.119l-0.002,-0.018l0,-0.001l-0,-0.007l-0.016,-0.102l-0.005,-0.034l0,-0.003l-0.001,-0.006l-0.017,-0.084l-0.01,-0.051l-0.001,-0.004l-0.001,-0.005l-0.017,-0.067l-0.016,-0.067l-0.002,-0.005l-0.001,-0.004l-0.016,-0.052l-0.024,-0.081l-0.002,-0.006l-0.001,-0.004l-0.015,-0.04l-0.032,-0.09l-0.003,-0.008l-0.001,-0.003l-0.014,-0.033l-0.039,-0.094l-0.005,-0.009l-0.001,-0.003l-0.016,-0.033l-0.043,-0.092l-0.005,-0.009l-0.002,-0.004l-0.022,-0.04l-0.044,-0.081l-0.004,-0.009l-0.004,-0.006c-24.812,-42.962 -44.981,-88.233 -75.041,-127.907c-17.206,-22.707 -37.158,-42.315 -58.863,-60.614c-1.266,-1.067 -3.16,-0.906 -4.227,0.36c-1.068,1.266 -0.906,3.16 0.36,4.228c21.363,18.011 41.013,37.3 57.947,59.65c18.368,24.241 33.01,50.59 47.294,77.219Z" style="fill:#999087;"/><path d="M225.154,1286.84c0.285,0.079 0.588,0.118 0.9,0.108c117.257,-3.662 234.262,-2.504 351.54,-2.087c44.675,0.159 376.68,-0.486 421.359,0.74c1.656,0.045 3.036,-1.262 3.082,-2.917c0.045,-1.655 -1.262,-3.036 -2.917,-3.081c-44.694,-1.226 -376.812,-0.583 -421.503,-0.742c-116.021,-0.412 -231.775,-1.548 -347.777,1.968c1.675,-2.165 3.34,-4.338 4.99,-6.521c26.487,-35.036 105.21,-132.915 134.523,-165.684c1.103,-1.234 0.998,-3.132 -0.236,-4.236c-1.234,-1.104 -3.133,-0.999 -4.236,0.236c-29.381,32.844 -108.289,130.949 -134.837,166.066c-14.842,19.632 -30.811,38.435 -44.989,58.562c-18.423,26.152 -35.095,56.238 -54.679,81.587c-1.012,1.31 -0.77,3.196 0.54,4.208c1.31,1.012 3.196,0.77 4.208,-0.54c19.637,-25.416 36.364,-55.577 54.836,-81.8c11.1,-15.756 23.302,-30.697 35.196,-45.867Z" style="fill:#999087;"/><path d="M407.817,1448.13c-1.071,0.119 -12.812,1.388 -25.166,1.811c-61.177,2.098 -204.862,0.141 -258.945,-4.053c-4.127,-0.319 -7.737,2.771 -8.057,6.898c-0.32,4.127 2.771,7.738 6.898,8.058c54.432,4.22 199.046,6.199 260.618,4.088c16.962,-0.581 28.164,-1.883 30.705,-3.059c3.482,-1.611 38.946,-29.653 74.752,-53.388c22.566,-14.959 45.179,-28.312 59.275,-30.898c35.766,-6.562 371.537,-2.132 451.184,-2.614c4.139,-0.025 7.48,-3.406 7.455,-7.545c-0.025,-4.14 -3.406,-7.48 -7.546,-7.455c-80.109,0.485 -417.826,-3.739 -453.799,2.86c-15.36,2.818 -40.268,16.85 -64.856,33.149c-34.212,22.679 -67.963,49.584 -72.518,52.148Z" style="fill:#7a8285;"/><path d="M968.921,1448.22l0,-0.011l0,-0.362c0.023,-2.873 0.028,-61.2 0,-64.138l0,-0.049l-0,-0.015l-0,-0.031l-0.002,-0.027l-0,-0.029l-0.002,-0.025l-0.001,-0.021l-0.003,-0.025l-0.002,-0.028l-0.003,-0.026l-0.002,-0.022l-0.004,-0.023l-0.003,-0.028l-0.005,-0.026l-0.003,-0.022l-0.005,-0.023l-0.004,-0.026l-0.006,-0.025l-0.005,-0.023l-0.005,-0.023l-0.006,-0.024l-0.007,-0.025l-0.006,-0.024l-0.007,-0.022l-0.006,-0.022l-0.008,-0.025l-0.008,-0.025l-0.007,-0.021l-0.007,-0.021l-0.009,-0.023l-0.01,-0.026l-0.009,-0.021l-0.007,-0.02l-0.01,-0.022l-0.011,-0.027l-0.01,-0.02l-0.008,-0.018l-0.011,-0.022l-0.013,-0.027l-0.01,-0.02l-0.009,-0.016l-0.012,-0.022l-0.014,-0.026l-0.012,-0.02l-0.008,-0.015l-0.014,-0.021l-0.015,-0.027l-0.012,-0.018l-0.01,-0.014l-0.014,-0.022l-0.018,-0.025l-0.012,-0.017l-0.01,-0.014l-0.016,-0.021l-0.018,-0.025l-0.013,-0.015l-0.01,-0.014l-0.018,-0.021l-0.02,-0.024l-0.012,-0.014l-0.011,-0.013l-0.02,-0.022l-0.02,-0.022l-0.013,-0.013l-0.012,-0.013l-0.021,-0.021l-0.021,-0.021l-0.013,-0.011l-0.012,-0.013l-0.024,-0.021l-0.021,-0.019l-0.013,-0.011l-0.013,-0.011l-0.025,-0.021l-0.022,-0.019l-0.013,-0.009l-0.013,-0.011l-0.028,-0.02l-0.022,-0.017l-0.013,-0.009l-0.014,-0.01l-0.029,-0.019l-0.023,-0.016l-0.012,-0.008l-0.015,-0.01l-0.03,-0.017l-0.025,-0.016l-0.012,-0.007l-0.014,-0.008l-0.031,-0.017l-0.026,-0.014l-0.013,-0.007l-0.015,-0.007l-0.031,-0.015l-0.028,-0.014l-0.013,-0.006l-0.014,-0.006l-0.031,-0.013l-0.03,-0.013l-0.014,-0.006l-0.014,-0.005l-0.03,-0.011l-0.033,-0.013l-0.015,-0.004l-0.012,-0.005l-0.03,-0.009l-0.036,-0.012l-0.015,-0.004l-0.012,-0.003l-0.029,-0.008l-0.038,-0.01l-0.016,-0.003l-0.012,-0.003l-0.028,-0.006l-0.041,-0.009l-0.016,-0.003l-0.011,-0.002l-0.029,-0.004l-0.041,-0.007l-0.017,-0.002l-0.011,-0.002l-0.03,-0.003l-0.042,-0.004l-0.016,-0.001l-0.012,-0.002l-0.032,-0.001l-0.041,-0.003l-0.015,-0l-0.013,-0.001c-18.707,-0.477 -423.123,3.063 -423.123,3.063c-0.476,0.004 -0.936,0.179 -1.295,0.491c-0,0 -55.402,48.196 -72.724,61.404l-0.029,0.024l-0.022,0.017l-0.006,0.005c-0.046,0.038 -0.09,0.077 -0.132,0.118l-0.004,0.004l-0.01,0.01l-0.033,0.034l-0.016,0.017l-0.007,0.008l-0.009,0.01l-0.021,0.023l-0.023,0.027l-0.01,0.011l-0.006,0.008l-0.012,0.014l-0.032,0.041l-0.009,0.012l-0.003,0.003c-0.017,0.023 -0.034,0.046 -0.05,0.07c-0.027,0.039 -0.052,0.079 -0.077,0.121l-0.005,0.008l-0.003,0.007c-0.076,0.129 -0.136,0.268 -0.181,0.414l0,0c-0.028,0.094 -0.05,0.19 -0.065,0.289l-0.002,0.01l-0.001,0.014l-0.006,0.045l-0.008,0.083l-0.001,0.011l0,0.003c-0.002,0.035 -0.004,0.07 -0.004,0.106l0,0.027l-0,0.019l0.001,0.043l0,0.013l0.001,0.006c0.001,0.031 0.003,0.062 0.006,0.093l-0,0.001l0.001,0.01l0.007,0.066l0.001,0.01l0.002,0.014l0.005,0.03l0.004,0.024l0.003,0.016l0.004,0.028l0.006,0.025l0.001,0.008l0.004,0.016c0.021,0.098 0.049,0.194 0.085,0.286l0.001,0.004l0.001,0.003l0.012,0.032l0.015,0.034l0.002,0.005l0.004,0.008l0.018,0.041l0.01,0.02l0.001,0.003l0.006,0.012l0.025,0.052l0.03,0.054l0.012,0.021l0,0.001l0.005,0.008l0.016,0.026l0.019,0.032l0.008,0.011l0.007,0.012l0.012,0.018l0.016,0.024l0.016,0.022l0.01,0.015l0.008,0.01l0.011,0.016l0.011,0.014l0.028,0.036l0.053,0.063l0.005,0.007l0.002,0.002c0.03,0.034 0.06,0.066 0.092,0.098l0.012,0.012l0.01,0.01c0.032,0.031 0.065,0.061 0.099,0.09l0.005,0.004l0.009,0.007l0.051,0.041l0.054,0.041l0.007,0.005l0.003,0.002c0.039,0.027 0.079,0.054 0.12,0.079l0.005,0.003l0.006,0.004c0.084,0.051 0.172,0.095 0.263,0.133l0.005,0.002l0.003,0.001c0.086,0.036 0.176,0.066 0.268,0.089l0.023,0.006l0.005,0.001l0.018,0.005l0.031,0.006l0.022,0.005l0.019,0.003l0.025,0.005l0.018,0.003l0.015,0.003l0.04,0.005l0.026,0.004l0.007,0.001c0.03,0.004 0.059,0.006 0.089,0.009l0.004,0l0.017,0.001l0.054,0.003l0.019,0.001l0.012,0c9.355,0.228 212.4,0.08 355.784,0.001l140.143,-0c0.034,-0 0.069,-0.001 0.103,-0.003l-0,0l0.038,-0.003l0.062,-0.004l0.002,-0l0.046,-0.006l0.051,-0.007l0.003,-0l0.049,-0.009l0.046,-0.008l0.001,-0l0.002,-0.001l0.051,-0.011l0.042,-0.01l0.002,-0.001l0.002,-0l0.05,-0.014l0.041,-0.012l0.001,-0l0.003,-0.001l0.049,-0.017l0.039,-0.013l0.002,-0.001l0.003,-0.001l0.048,-0.018l0.037,-0.015l0.002,-0.001l0.004,-0.001l0.046,-0.021l0.036,-0.017l0.003,-0.001l0.003,-0.001l0.044,-0.023l0.036,-0.018l0.003,-0.002l0.003,-0.002l0.042,-0.023l0.036,-0.021l0.002,-0.002l0.004,-0.002l0.039,-0.025l0.035,-0.022l0.004,-0.002l0.003,-0.003l0.037,-0.026l0.035,-0.024l0.003,-0.003l0.004,-0.002l0.034,-0.028l0.034,-0.026l0.003,-0.003l0.004,-0.003l0.032,-0.028l0.033,-0.028l0.004,-0.003l0.004,-0.004l0.03,-0.028l0.032,-0.03l0.003,-0.004l0.004,-0.004l0.028,-0.029l0.031,-0.032l0.004,-0.004l0.003,-0.004l0.027,-0.031l0.029,-0.033l0.003,-0.004l0.004,-0.005l0.025,-0.031l0.027,-0.034l0.004,-0.006l0.004,-0.005l0.023,-0.032l0.025,-0.035l0.004,-0.006l0.003,-0.005l0.022,-0.033l0.023,-0.036l0.004,-0.006l0.004,-0.006l0.02,-0.035l0.021,-0.036l0.003,-0.006l0.004,-0.007l0.018,-0.036l0.019,-0.036l0.003,-0.007l0.004,-0.007l0.017,-0.038l0.017,-0.036l0.002,-0.007l0.004,-0.008l0.015,-0.039l0.015,-0.036l0.002,-0.007l0.004,-0.008l0.013,-0.041l0.013,-0.036l0.002,-0.008l0.003,-0.008l0.012,-0.042l0.01,-0.036l0.002,-0.008l0.003,-0.009l0.01,-0.042l0.009,-0.037l0.001,-0.008l0.002,-0.01l0.008,-0.043l0.007,-0.036l0.001,-0.009l0.002,-0.011l0.005,-0.042l0.006,-0.038l0,-0.009l0.002,-0.011l0.003,-0.042l0.003,-0.038l0.001,-0.01l0,-0.011l0.001,-0.041l0.002,-0.04l-0,-0.011Zm-4,-62.588c-34.639,-0.278 -401.632,2.922 -420.299,3.085c-5.374,4.668 -48.206,41.837 -67.786,57.492l351.87,-0c69.623,-0.039 124.813,-0.061 136.215,-0.015l0,-60.562Z" style="fill:#808080;"/></g><g id="Scheinwerferpartie"><g id="Scheinwerfer"><path d="M351.076,1030.55l-66.541,-1.405l-65.129,-1.408c-0.09,-10.486 0.174,-27.193 0.285,-33.538c0.106,-6.07 -4.736,-11.085 -10.806,-11.191c-6.07,-0.106 -11.085,4.736 -11.191,10.806c-0.174,9.969 -0.292,43.005 0.445,46.792c0.025,0.127 1.364,8.575 10.449,8.893c0.231,0.008 1.486,0.039 3.597,0.087c20.309,0.459 122.947,2.652 145.26,3.104c2.551,0.051 4.082,0.08 4.362,0.083c10.399,0.094 11.145,-10.858 11.145,-10.989c0.014,-14.335 0.57,-23.678 0.807,-37.511c0.103,-6.07 -4.741,-11.082 -10.811,-11.186c-6.07,-0.104 -11.082,4.74 -11.186,10.81c-0.172,10.042 -0.508,17.739 -0.686,26.653Z" style="fill:#fff;"/><path d="M540.712,1037.32c-28.712,-0.458 -105.959,-2.387 -134.059,-3.136c-0.147,-9.512 -0.24,-23.223 -0.125,-29.975c0.103,-6.071 -4.741,-11.083 -10.811,-11.186c-6.071,-0.104 -11.083,4.741 -11.186,10.811c-0.173,10.152 0.118,35.502 0.352,40.652c0.243,5.336 2.902,7.788 3.125,8.021c0.025,0.025 3.074,3.258 9.81,3.45c12.763,0.365 78.453,2.038 119.67,2.918c17.956,0.384 31.343,0.607 33.968,0.526c5.239,-0.161 7.502,-2.865 7.814,-3.171c0.135,-0.132 3.212,-2.722 3.342,-8.505c0.115,-5.113 0.207,-30.665 0.167,-39.856c-0.026,-6.071 -4.976,-10.978 -11.047,-10.952c-6.071,0.026 -10.979,4.976 -10.953,11.047c0.027,6.141 -0.005,19.697 -0.067,29.356Z" style="fill:#fff;"/></g><path d="M155.895,975.803c-0.815,14.403 -2.272,36.48 -0.404,56.059c1.375,14.413 4.626,27.482 10.951,35.537c6.933,8.83 18.448,14.063 31.476,17.186c18.598,4.458 40.283,4.697 54.757,6.282c30.801,3.372 62.23,7.779 89.202,10.351c24.24,2.312 523.639,48.834 624.447,58.781c7.421,0.732 13.34,1.363 15.897,1.639c0.424,0.479 0.902,0.71 1.232,0.832c4.816,1.77 11.443,1.985 16.527,2.019c1.656,0.011 3.009,-1.325 3.02,-2.981c0.011,-1.655 -1.325,-3.008 -2.98,-3.019c-3.909,-0.026 -8.87,-0.083 -12.878,-1.145c-0.078,-0.828 -0.169,-1.774 -0.185,-1.908c-0.539,-4.301 -0.954,-8.623 -1.317,-12.942c-1.393,-16.554 -0.961,-33.222 -1.505,-49.817c6.091,0.023 11.8,0.052 14.87,0.083c1.65,0.017 3.003,-1.301 3.03,-2.95c0.027,-1.65 -1.282,-3.011 -2.931,-3.049l-415.668,-9.479c-12.088,-1.09 -338.557,-22.644 -340.166,-22.745c-9.183,-0.575 -22.452,-1.466 -34.222,-4.446c-7.461,-1.889 -14.321,-4.586 -18.944,-8.72c-4.707,-4.211 -7.12,-10.331 -8.669,-16.806c-1.676,-7.004 -2.311,-14.443 -3.278,-20.731c-0.514,-3.347 -0.724,-6.745 -1.002,-10.118l-0.07,-0.781c2.356,-0.588 4.748,-1.048 7.084,-1.707c0.462,-0.131 2.4,-0.56 3.256,-0.961c1.153,-0.539 1.674,-1.384 1.873,-1.908c0.079,-0.211 0.796,-2.379 -1.296,-3.665c-0.386,-0.237 -2.387,-1.278 -2.578,-1.383c-1.454,-0.8 -2.88,-1.695 -4.149,-2.769c-2.132,-1.807 -3.636,-4.158 -5.624,-6.08c-0.653,-0.631 -1.619,-1.164 -2.783,-1.515c-1.601,-0.484 -3.709,-0.636 -4.888,-0.868c-2.776,-0.545 -5.551,-1.096 -8.326,-1.647l-0.005,-0.002l-0.012,-0.002c-2.833,-0.563 -5.665,-1.125 -8.499,-1.68c-7.885,-1.546 -15.793,-2.973 -23.739,-4.167c-1.638,-0.247 -3.167,0.883 -3.413,2.52c-0.246,1.638 0.883,3.167 2.521,3.413c7.859,1.181 15.679,2.593 23.477,4.122c1.971,0.386 3.941,0.776 5.911,1.167Zm5.942,1.179c-0.813,14.192 -2.174,35.43 -0.373,54.311c1.25,13.108 3.944,25.074 9.697,32.401c6.173,7.861 16.557,12.275 28.156,15.056c18.343,4.397 39.736,4.59 54.011,6.152c30.773,3.369 62.172,7.773 89.119,10.343c24.24,2.313 523.655,48.835 624.466,58.783c6.26,0.617 10.995,1.096 14,1.416c-0.506,-4.138 -0.903,-8.294 -1.252,-12.448c-1.407,-16.726 -0.968,-33.568 -1.53,-50.339c-7.764,-0.024 -14.952,-0.036 -16.894,-0.026c-10.832,0.053 -27.918,0.298 -40.732,-0.058c-115.987,-3.224 -321.052,-8.193 -337.714,-9.307c-0.125,-0.008 -0.247,-0.024 -0.366,-0.048c-18.184,-1.484 -337.938,-22.593 -339.53,-22.692c-9.478,-0.594 -23.171,-1.543 -35.319,-4.619c-8.484,-2.148 -16.216,-5.363 -21.472,-10.064c-4.518,-4.042 -7.393,-9.484 -9.294,-15.488c-2.648,-8.364 -3.389,-17.837 -4.583,-25.61c-0.536,-3.486 -0.762,-7.024 -1.051,-10.537c-0.029,-0.347 -0.302,-3.047 -0.267,-3.613c0.129,-2.072 1.711,-2.643 2.144,-2.775c1.943,-0.59 3.933,-1.021 5.917,-1.476c-0.541,-0.388 -1.067,-0.795 -1.573,-1.224c-2.204,-1.868 -3.791,-4.267 -5.834,-6.263c-0.156,-0.051 -0.964,-0.313 -1.469,-0.404c-1.21,-0.217 -2.468,-0.328 -3.271,-0.486c-1.663,-0.327 -3.325,-0.656 -4.986,-0.985Z" style="fill:#25201c;"/><path d="M586.2,1077.56c-0.485,-28.616 0.055,-57.232 -0.173,-85.853c-0.013,-1.655 -1.368,-2.989 -3.024,-2.976c-1.655,0.013 -2.989,1.368 -2.976,3.024c0.229,28.638 -0.311,57.273 0.174,85.906c0.028,1.656 1.394,2.977 3.05,2.949c1.655,-0.028 2.977,-1.395 2.949,-3.05Z" style="fill:#25201c;"/><path d="M170.444,978.187c35.75,4.367 56.329,7.231 92.29,8.995c10.412,0.51 309.731,7.529 320.288,7.548c1.656,0.003 3.002,-1.339 3.005,-2.994c0.003,-1.656 -1.338,-3.003 -2.994,-3.006c-10.548,-0.019 -309.602,-7.031 -320.005,-7.541c-35.792,-1.755 -56.274,-4.611 -91.856,-8.958c-1.644,-0.2 -3.141,0.971 -3.342,2.615c-0.201,1.643 0.971,3.14 2.614,3.341Z" style="fill:#25201c;"/><path d="M583.071,994.727c4.683,0.202 416.618,2.266 416.831,2.273c1.655,0.054 3.043,-1.246 3.096,-2.901c0.054,-1.655 -1.245,-3.042 -2.9,-3.096c-0.214,-0.007 -412.087,-2.069 -416.769,-2.27c-1.654,-0.071 -3.055,1.214 -3.126,2.868c-0.071,1.654 1.214,3.055 2.868,3.126Z" style="fill:#25201c;"/></g><path id="Windschutzscheibe" d="M424.729,476.078l-0.018,0.002l-0.021,0.002l-0.065,0.007l-0.049,0.008l-0.008,0.001l-0.012,0.002c-0.336,0.051 -0.652,0.157 -0.939,0.309l-0.004,0.002l-0.029,0.017l-0.078,0.042l-0.01,0.006l-0.01,0.006l-0.075,0.047l-0.029,0.018l-0.004,0.002c-0.272,0.177 -0.519,0.401 -0.728,0.669l-0.008,0.01l-0.004,0.007l-0.031,0.038l-0.037,0.054l-0.013,0.017l-0.01,0.015l-0.028,0.04c-24.642,36.954 -48.958,78.861 -64.118,115.744c-24.829,60.407 -50.94,131.614 -73.558,192.875l-0.006,0.019l-0.02,0.053l-0.018,0.057l-0.006,0.017l-0.004,0.017l-0.016,0.051l-0.015,0.058l-0.006,0.021l-0.005,0.019l-0.011,0.045l-0.012,0.055l-0.006,0.029l-0.005,0.023l-0.007,0.037l-0.008,0.048l-0.007,0.039l-0.004,0.03l-0.004,0.028l-0.004,0.039l-0.007,0.051l-0.002,0.035l-0.002,0.02l-0.002,0.03l-0.005,0.062l-0.001,0.04l-0.001,0.013l-0,0.022l-0.002,0.072l0.001,0.043l-0,0.008l0,0.015l0.002,0.081l0.003,0.043l0.001,0.005l0,0.011l0.007,0.086l0.005,0.043l0,0.004l0.001,0.01l0.011,0.088l0.007,0.039l0.001,0.006l0.002,0.013l0.014,0.085l0.008,0.036l0.002,0.008l0.004,0.019l0.017,0.078l0.009,0.031l0.003,0.012l0.008,0.029l0.018,0.067l0.009,0.026l0.004,0.016l0.014,0.041l0.017,0.054l0.008,0.021l0.007,0.021l0.021,0.053l0.015,0.04l0.007,0.016l0.01,0.025l0.028,0.063l0.012,0.028l0.006,0.011l0.013,0.03l0.036,0.071l0.009,0.018l0.004,0.007l0.016,0.033l0.043,0.074l0.006,0.012l0.003,0.005l0.02,0.035l0.047,0.074l0.006,0.009l0.002,0.003l0.023,0.036l0.05,0.071l0.006,0.009l0.003,0.004l0.025,0.035l0.05,0.064l0.009,0.012l0.005,0.007l0.026,0.033l0.048,0.055l0.014,0.017l0.009,0.009l0.026,0.03l0.043,0.045l0.02,0.023l0.015,0.014l0.024,0.025l0.037,0.035l0.028,0.028l0.021,0.019l0.022,0.02l0.03,0.026l0.036,0.033l0.03,0.023l0.018,0.016l0.023,0.018l0.044,0.035l0.037,0.028l0.016,0.011l0.018,0.013l0.048,0.035l0.045,0.03l0.014,0.01l0.016,0.009l0.05,0.033l0.048,0.028l0.017,0.011l0.009,0.005c0.148,0.087 0.305,0.161 0.472,0.223c0.251,0.093 0.508,0.15 0.763,0.173c0.334,0.065 0.733,0.119 1.2,0.147c2.565,0.151 9.403,0.158 19.806,0.036c115.778,-1.362 677.97,-18.372 691.593,-18.287c1.656,0.01 3.009,-1.326 3.019,-2.981c0.01,-1.656 -1.326,-3.009 -2.981,-3.019c-13.625,-0.085 -575.906,16.925 -691.701,18.287c-6.954,0.082 -12.874,0.037 -16.415,-0.01c22.262,-60.315 47.768,-129.724 72.048,-188.794c14.859,-36.15 38.609,-77.161 62.758,-113.489c45.17,-3.749 162.556,-21.462 278.914,-26.635c128.969,-5.735 271.341,-5.414 293.377,-5.155c1.656,0.019 3.016,-1.309 3.035,-2.965c0.02,-1.656 -1.308,-3.016 -2.964,-3.035c-22.062,-0.259 -164.597,-0.58 -293.714,5.161c-117.715,5.233 -236.481,23.285 -280.579,26.767l-0.049,0.005Z" style="fill:#999087;"/><path id="Außenkontur" d="M460.046,427.64l-0.004,0.001l-0.006,0.001l-0.014,0.004l-0.009,0.003c-23.928,6.066 -36.385,17.097 -51.187,32.385c-41.053,42.399 -65.053,97.233 -89.878,151.489c-12.888,28.169 -64.856,148.95 -77.239,185.172c-0.62,0.84 -1.114,1.793 -1.452,2.84c-3.108,9.624 -9.603,17.327 -16.087,25.29c-8.32,10.217 -79.913,74.286 -90.415,84.195c-8.694,8.204 -17.165,18.041 -21.228,29.54c-0.984,2.784 -2.027,13.649 -2.512,29.884c-1.74,58.377 -0.415,193.615 -0.21,246.78c0.168,43.149 0.327,86.298 0.475,129.448c0.07,20.274 0.028,44.903 0.357,65.716l-0.009,0.05c-0.142,1.013 -0.152,1.989 -0.037,3.006l0.104,0.677l0.006,0.341c0.023,1.254 0.276,2.449 0.72,3.545c1.421,6.542 3.614,13.098 3.728,19.706c0.117,6.789 -1.437,11.161 -2.252,15.982c-1.11,6.569 -1.459,13.74 2.148,25.361c2.551,8.216 9.836,23.239 18.479,35.608c6.358,9.1 13.591,16.678 20.065,20.141c4.629,2.477 18.701,4.753 36.941,5.955c37.845,2.493 95.383,2.496 111.517,2.68c13.81,0.72 17.006,0.02 31.455,0.003c22.201,-0.028 55.858,0.064 77.229,-2.148c21.66,-2.241 42.521,-7.589 64.444,-8.386c41.102,-1.494 82.408,0.975 123.522,1.239c39.614,0.254 360.549,6.352 400.169,7.023c5.519,0.093 10.075,-4.311 10.168,-9.83c0.094,-5.518 -4.311,-10.074 -9.829,-10.168c-39.641,-0.671 -360.745,-6.77 -400.379,-7.024c-41.399,-0.266 -82.991,-2.731 -124.377,-1.227c-22.373,0.814 -43.672,6.192 -65.776,8.48c-20.809,2.153 -53.58,2.014 -75.196,2.041c-14.038,0.017 -17.079,0.728 -30.617,0.013l-0.205,-0.005l-0.205,-0.008l-0.105,-0.001c-15.891,-0.183 -72.972,-0.167 -110.5,-2.639c-9.318,-0.614 -17.386,-1.372 -23.199,-2.347c-2.593,-0.435 -4.568,-0.721 -5.623,-1.286c-4.36,-2.332 -8.822,-7.832 -13.105,-13.961c-7.317,-10.473 -13.612,-23.126 -15.772,-30.082c-2.802,-9.029 -2.022,-13.899 -0.985,-18.939c1.004,-4.875 2.105,-9.867 1.985,-16.819c-0.013,-0.78 -0.051,-1.56 -0.112,-2.341c39.61,0.523 197.044,2.357 199.656,2.37c2.503,0.012 4.797,-0.9 6.558,-2.416c52.389,-17.381 104.148,-58.204 153.012,-84.194l0.305,-0.172c38.672,0.143 494.154,1.489 504.612,1.342c5.519,-0.078 9.936,-4.622 9.858,-10.14c-0.078,-5.519 -4.622,-9.936 -10.141,-9.858c-10.792,0.152 -495.851,-1.29 -506.644,-1.352c-2.194,-0.012 -4.227,0.684 -5.883,1.876c-0.508,0.17 -1.009,0.386 -1.498,0.646c-49.093,26.111 -100.981,67.869 -153.638,84.062l-0.476,0.16c-26.352,-0.289 -172.705,-1.995 -199.613,-2.376l-0.191,-0.963l-0.279,-1.563c-0.369,-21.211 -0.32,-46.87 -0.392,-67.847c-0.148,-43.152 -0.308,-86.305 -0.475,-129.457c-0.205,-53.019 -1.535,-187.889 0.202,-246.106c0.351,-11.801 1.399,-23.305 1.47,-24.07c3.054,-8.417 9.62,-15.379 16.004,-21.403c10.724,-10.119 83.702,-75.681 92.198,-86.114c7.44,-9.138 14.529,-18.228 18.623,-28.977c0.662,-0.869 1.189,-1.862 1.545,-2.959c10.416,-32.151 64.214,-157.098 77.288,-185.673c23.872,-52.175 46.581,-105.125 86.059,-145.898c12.141,-12.539 22.126,-21.945 41.759,-26.917l0.01,-0.003l0.01,-0.002c54.394,-13.896 112.172,-19.54 167.838,-25.03c105.166,-10.373 260.472,-13.667 366.172,-13.113c5.519,0.029 10.024,-4.429 10.053,-9.948c0.028,-5.519 -4.429,-10.023 -9.948,-10.052c-106.298,-0.556 -262.48,2.778 -368.24,13.209c-56.655,5.588 -115.448,11.411 -170.802,25.55Z" style="fill:#25201c;"/></g><g id="Rechte-Hälfte" serif:id="Rechte Hälfte"><g id="Reifen1" serif:id="Reifen"><path d="M1870.37,1437.09c-0.341,-8.444 -0.693,-15.96 -1.049,-22.251c-0.308,-5.437 3.792,-10.121 9.223,-10.536c5.43,-0.414 10.194,3.593 10.715,9.015c0.756,7.865 1.11,15.532 1.092,22.948c2.441,60.589 4.289,168.483 2.737,217.078c-0.379,11.873 -1.023,20.433 -1.818,24.334c-0.509,2.498 -1.286,4.17 -1.868,5.12c-5.291,8.63 -21.511,26.911 -34.323,30.767c-20.317,6.116 -142.672,6.167 -151.834,4.605c-4.152,-0.709 -17.898,-5.22 -27.77,-13.713c-6.845,-5.888 -11.805,-13.697 -14.177,-19.192c-1.541,-3.569 -2.079,-6.571 -2.087,-8.352c-0.077,-17.119 0.36,-112.453 -1.237,-139.955c-0.16,-2.763 0.832,-5.469 2.739,-7.473c1.908,-2.005 4.561,-3.13 7.328,-3.106c27.463,0.23 110.805,-1.067 161.271,-4.622c10.52,-0.741 19.178,-7.966 25.901,-18.991c9.586,-15.722 15.043,-38.77 15.157,-65.676Zm2.205,75.611c1.096,52.145 1.527,108.572 0.523,140.005c-0.307,9.632 -1.188,18.563 -1.408,20.671c-2.581,3.91 -7.384,9.783 -12.703,14.581c-3.208,2.894 -6.522,5.508 -9.673,6.456c-19.094,5.748 -134.096,5.509 -142.707,4.04c-2.718,-0.463 -11.626,-3.599 -18.089,-9.159c-4.743,-4.079 -8.714,-12.012 -9.308,-13.233c-0.059,-17.128 0.242,-94.121 -0.833,-129.663c34.542,-0.089 106.735,-1.479 152.34,-4.691c16.515,-1.164 31.019,-11.222 41.572,-28.53l0.286,-0.477Z"/><path d="M1804.23,1543.1c0.043,20.011 -0.49,149.986 -0.001,161.705c0.173,4.135 3.671,7.353 7.807,7.18c4.136,-0.173 7.353,-3.671 7.18,-7.807c-0.488,-11.675 0.057,-141.172 0.014,-161.109c-0.008,-4.14 -3.376,-7.493 -7.515,-7.484c-4.14,0.008 -7.493,3.376 -7.485,7.515Z"/><path d="M1769.9,1536.56c1.436,60.876 -0.117,116.181 -0.387,167.891c-0.021,4.14 3.322,7.518 7.461,7.539c4.139,0.022 7.518,-3.321 7.539,-7.46c0.271,-51.844 1.822,-107.291 0.383,-168.324c-0.098,-4.138 -3.537,-7.418 -7.675,-7.321c-4.138,0.098 -7.419,3.537 -7.321,7.675Z"/><path d="M1834.08,1531.39c-1.151,24.991 -1.765,141.214 -2.169,163.743c-0.074,4.139 3.225,7.559 7.364,7.633c4.139,0.075 7.559,-3.225 7.633,-7.364c0.404,-22.471 1.008,-138.395 2.156,-163.322c0.191,-4.135 -3.012,-7.646 -7.147,-7.837c-4.135,-0.19 -7.646,3.012 -7.837,7.147Z"/><path d="M1735.52,1538.22c0.941,35.586 -0.873,145.91 -1.384,166.075c-0.105,4.138 3.169,7.583 7.307,7.688c4.138,0.105 7.583,-3.169 7.688,-7.307c0.514,-20.259 2.329,-131.1 1.383,-166.853c-0.109,-4.138 -3.557,-7.408 -7.695,-7.299c-4.138,0.11 -7.409,3.558 -7.299,7.696Z"/><path d="M1701.52,1533.16c-0.298,39.549 2.219,149.656 1.947,171.821c-0.051,4.139 3.268,7.541 7.407,7.592c4.139,0.051 7.541,-3.268 7.592,-7.408c0.272,-22.174 -2.245,-132.327 -1.947,-171.892c0.031,-4.139 -3.304,-7.525 -7.443,-7.556c-4.139,-0.031 -7.525,3.304 -7.556,7.443Z"/></g><g id="Spiegel1" serif:id="Spiegel"><path d="M1776.98,751.054l-0.002,0.069l0,0.007l-0,0.01l0.001,0.092l0.001,0.046l0,0.004l0.001,0.01l0.007,0.101l0.002,0.037l0,0.004l0.001,0.009l0.012,0.101l0.004,0.036l0.001,0.004l0.001,0.008l0.016,0.094l0.007,0.042l0.001,0.004l0.001,0.007l0.018,0.082l0.012,0.053l0.001,0.004l0.001,0.005l0.019,0.067l0.018,0.066l0.002,0.006l0.001,0.003l0.016,0.05l0.026,0.081l0.003,0.006l0,0.002l0.013,0.033l0.037,0.096l0.002,0.006l0.001,0.001l0.007,0.018l0.048,0.109l0.003,0.006l0.001,0l0.002,0.005c0.061,0.13 0.132,0.255 0.21,0.373l0.079,0.113l0.003,0.005l0.001,0l0.011,0.015l0.073,0.095l0.003,0.003l0.001,0.001l0.026,0.032l0.063,0.074l0.002,0.002l0.002,0.002l0.047,0.051l0.047,0.05l0.002,0.002l0.002,0.002l0.07,0.068l0.029,0.028l0.001,0.001l0.004,0.004l0.089,0.079l0.014,0.012l0,0l0.005,0.004l0.107,0.086c0.113,0.087 0.233,0.166 0.358,0.236l0.005,0.002l-0,0.001l0.006,0.003l0.105,0.055l0.017,0.009l0.001,0.001l0.006,0.003l0.094,0.043l0.031,0.015l0.002,0.001l0.006,0.002l0.08,0.032l0.048,0.02l0.004,0.001l0.005,0.002l0.065,0.023l0.065,0.023l0.005,0.001l0.004,0.002l0.052,0.015l0.081,0.024l0.007,0.002l0.003,0.001l0.042,0.01l0.092,0.022l0.009,0.002l0.003,0.001l0.036,0.006l0.1,0.019l0.009,0.001l0.004,0.001l0.036,0.005l0.1,0.014l0.011,0.001l0.004,0l0.046,0.004l0.092,0.008l0.009,0.001l0.007,0l0.069,0.002l0.069,0.003l0.014,0l0.002,0l0.002,0c21.353,0.24 42.686,-1.203 64.048,-0.935c38.345,0.483 76.674,2.169 115.017,2.792l0.022,-0l0.067,0.001l0.049,-0.002l0.016,-0l0.02,-0.001l0.061,-0.003l0.051,-0.004l0.02,-0.001l0.023,-0.003l0.053,-0.004l0.048,-0.007l0.027,-0.003l0.027,-0.004l0.044,-0.006l0.042,-0.008l0.035,-0.006l0.035,-0.007l0.034,-0.007l0.034,-0.008l0.042,-0.009l0.043,-0.012l0.027,-0.006l0.026,-0.008l0.047,-0.012l0.051,-0.016l0.021,-0.007l0.019,-0.006l0.05,-0.016l0.057,-0.022l0.019,-0.006l0.014,-0.006l0.047,-0.018l0.06,-0.026l0.021,-0.009l0.015,-0.006l0.037,-0.017l0.058,-0.028l0.03,-0.014l0.018,-0.01l0.025,-0.012l0.045,-0.025l0.047,-0.025l0.023,-0.013l0.012,-0.007l0.027,-0.017l0.068,-0.041l0.026,-0.017l0.002,-0.001l0.003,-0.003c0.329,-0.213 0.604,-0.484 0.819,-0.793l0.001,-0.001l0.037,-0.056l0.038,-0.056l0,-0.001c0.202,-0.319 0.346,-0.678 0.416,-1.063l0.001,-0.004l-0,-0.001l0.006,-0.032l0.011,-0.078l0.005,-0.032l0.002,-0.013l0.003,-0.026l0.005,-0.053l0.006,-0.052l0.002,-0.027l0.002,-0.02l0.001,-0.034l0.004,-0.064l0,-0.041l0.001,-0.016l-0,-0.023l0.001,-0.066l-0.002,-0.049l-0,-0.016l-0.002,-0.02l-0.002,-0.061l-0.004,-0.051l-0.002,-0.02l-0.002,-0.023l-0.005,-0.053l-0.006,-0.048l-0.003,-0.027l-0.005,-0.028l-0.006,-0.043l-0.008,-0.042l-0.005,-0.035l-0.008,-0.035l-0.006,-0.035l-0.008,-0.034l-0.009,-0.041l-0.012,-0.043l-0.006,-0.027l-0.008,-0.026l-0.013,-0.047l-0.016,-0.051l-0.006,-0.022l-0.007,-0.018l-0.015,-0.05l-0.022,-0.057l-0.007,-0.019l-0.006,-0.015l-0.017,-0.046l-0.026,-0.06l-0.009,-0.022c-4.685,-10.692 -9.542,-23.342 -15.95,-34.786c-6.648,-11.872 -14.979,-22.428 -26.317,-28.496c-2.668,-1.429 -9.014,-3.102 -17.014,-4.692c-17.826,-3.543 -44.155,-7.003 -53.994,-8.025c-3.349,-0.348 -32.607,-2.329 -45.407,-2.052c-2.466,0.054 -4.376,0.204 -5.482,0.433c-1.122,0.232 -1.835,0.655 -2.211,0.978c-6.285,5.397 -10.513,15.875 -13.182,27.837c-3.795,17.019 -4.656,37.026 -5.283,47.979l-0.003,0.068Zm140.75,-56.68c-5.479,18.773 -12.718,37.939 -24.253,53.957c20.332,0.582 40.667,1.23 61.004,1.603c-4.058,-9.529 -8.369,-20.204 -13.843,-29.979c-5.874,-10.488 -13.072,-19.958 -22.908,-25.581Zm-5.606,-2.206c-2.837,-0.793 -6.546,-1.611 -10.752,-2.447c-17.644,-3.507 -43.705,-6.931 -53.444,-7.942c-3.293,-0.342 -32.068,-2.294 -44.657,-2.021c-1.763,0.038 -3.668,0.242 -4.31,0.316c-5.283,4.839 -8.553,13.993 -10.838,24.24c-3.381,15.155 -4.362,32.73 -4.975,43.866c20.312,0.081 40.611,-1.213 60.938,-0.957c14.017,0.176 28.033,0.513 42.044,0.901c12.728,-16.23 20.308,-36.352 25.994,-55.956Z" style="fill:#999087;"/><path d="M1744.57,784.522c0.999,3.057 2.361,6.953 3.112,7.987c0.96,1.321 2.149,1.501 2.84,1.474c3.702,-0.142 9.949,-0.53 13.731,-0.843c8.667,-0.718 17.456,-2.297 25.745,-0.474c5.161,1.135 9.791,3.792 14.483,6.293c5.258,2.802 10.586,5.42 16.57,6.169c12.307,1.541 68.186,0.395 82.589,-1.849c21.415,-3.337 37.202,-19.171 53.642,-32.097c0.312,-0.245 0.562,-0.539 0.747,-0.864l0.007,-0.01l0.002,-0.004l0.016,-0.028l0.035,-0.067l0.015,-0.029l0.006,-0.013l0.012,-0.021l0.022,-0.048l0.023,-0.049l0.009,-0.022l0.006,-0.013l0.012,-0.03l0.029,-0.069l0.012,-0.031l0.001,-0.004l0.004,-0.012c0.131,-0.35 0.198,-0.73 0.187,-1.127l-0.006,-0.108l-0.001,-0.028l-0,-0.003l-0.001,-0.015l-0.009,-0.082l-0.004,-0.044l-0.001,-0.008l-0.002,-0.018l-0.011,-0.072l-0.007,-0.045l-0.002,-0.012l-0.003,-0.02l-0.014,-0.065l-0.009,-0.046l-0.003,-0.015l-0.005,-0.021l-0.015,-0.059l-0.011,-0.047l-0.005,-0.017l-0.006,-0.021l-0.017,-0.054l-0.014,-0.048l-0.007,-0.019l-0.006,-0.02l-0.019,-0.05l-0.017,-0.05l-0.009,-0.02l-0.006,-0.018l-0.02,-0.046l-0.022,-0.053l-0.009,-0.02l-0.007,-0.016l-0.021,-0.043l-0.026,-0.055l-0.01,-0.02l-0.007,-0.013l-0.022,-0.041l-0.031,-0.059l-0.011,-0.017l-0.006,-0.011l-0.024,-0.039l-0.037,-0.063l-0.01,-0.014l-0.004,-0.007l-0.025,-0.036l-0.046,-0.069l-0.009,-0.012l-0.002,-0.003l-0.016,-0.022l-0.065,-0.087c-0.246,-0.312 -0.54,-0.562 -0.865,-0.747l-0.01,-0.006l-0.004,-0.003l-0.028,-0.016l-0.067,-0.035l-0.029,-0.015l-0.013,-0.006l-0.021,-0.011l-0.048,-0.023l-0.049,-0.023l-0.022,-0.009l-0.013,-0.006l-0.03,-0.012l-0.069,-0.029l-0.031,-0.011l-0.004,-0.002l-0.012,-0.004c-0.349,-0.131 -0.73,-0.198 -1.127,-0.187c-30.203,0.834 -146.751,-0.48 -199.788,-0.23c-1.423,0.007 -2.799,0.015 -4.127,0.024c-2.707,0.018 -5.212,0.041 -7.492,0.07c-1.731,0.022 -3.659,1.235 -3.53,4.46c0.14,3.511 3.478,12.437 4.03,14.051c0.038,0.111 0.082,0.218 0.132,0.322Zm202.215,-12.541c-39.573,0.478 -142.33,-0.616 -191.2,-0.386c-1.418,0.007 -2.79,0.014 -4.115,0.023c-1.684,0.012 -3.291,0.025 -4.813,0.042c0.415,1.948 1.262,4.511 2.022,6.654c0.232,0.286 0.413,0.622 0.529,0.996c0.4,1.3 2.165,6.355 2.951,8.595c3.62,-0.174 8.47,-0.485 11.599,-0.745c9.267,-0.767 18.666,-2.303 27.529,-0.354c5.693,1.252 10.839,4.099 16.016,6.858c4.611,2.457 9.246,4.853 14.493,5.51c12.059,1.511 66.808,0.375 80.92,-1.824c17.422,-2.715 30.784,-14.362 44.069,-25.369Z" style="fill:#25201c;"/></g><g id="Applikationen1" serif:id="Applikationen"><g><path d="M1799.98,1347.62c0.239,0.012 0.484,-0.017 0.725,-0.093c1.096,-0.342 1.708,-1.51 1.366,-2.607c-0.009,-0.028 -0.375,-1.439 -2.024,-1.462c-0.403,-0.006 -2.589,-0.006 -6.247,-0.002c-36.395,0.046 -219.269,0.564 -238.99,0.74c-1.149,0.011 -2.073,0.951 -2.063,2.1c0.011,1.148 0.951,2.073 2.1,2.062c19.719,-0.176 202.568,-0.694 238.958,-0.739c3.51,-0.005 6.024,0 6.175,0.001Z"/><path d="M1794.34,1354.62c-34.746,0.028 -69.5,0.867 -104.247,1.107c-37.642,0.261 -75.282,-0.062 -112.924,0.372c-1.149,0.013 -2.071,0.956 -2.058,2.105c0.014,1.149 0.957,2.07 2.105,2.057c37.637,-0.434 75.27,-0.111 112.906,-0.372c34.738,-0.24 69.484,-1.078 104.222,-1.107c1.148,-0.001 2.08,-0.934 2.079,-2.083c-0.001,-1.148 -0.934,-2.08 -2.083,-2.079Z"/><path d="M1791.47,1366.84c-64.854,-0.209 -129.728,0.982 -194.579,1.572c-1.149,0.01 -2.073,0.951 -2.062,2.1c0.01,1.148 0.951,2.072 2.099,2.062c64.835,-0.59 129.692,-1.781 194.529,-1.572c1.149,0.004 2.084,-0.926 2.088,-2.074c0.004,-1.149 -0.926,-2.084 -2.075,-2.088Z"/><path d="M1785.82,1378.7c-56.565,-0.46 -113.232,0.122 -169.792,1.062c-1.148,0.019 -2.065,0.967 -2.046,2.115c0.019,1.149 0.967,2.066 2.115,2.047c56.525,-0.939 113.158,-1.522 169.689,-1.062c1.149,0.01 2.089,-0.915 2.098,-2.064c0.009,-1.148 -0.916,-2.088 -2.064,-2.098Z"/><path d="M1781.18,1390.42c-48.078,0.101 -96.187,0.697 -144.252,1.835c-1.148,0.027 -2.058,0.982 -2.031,2.13c0.027,1.148 0.982,2.058 2.13,2.031c48.034,-1.137 96.114,-1.732 144.162,-1.834c1.148,-0.002 2.079,-0.937 2.076,-2.085c-0.002,-1.149 -0.937,-2.079 -2.085,-2.077Z"/></g><rect x="1461.05" y="1207.85" width="44.982" height="42.052" style="fill:none;stroke:#000;stroke-width:3px;"/></g><g id="Korosserie1" serif:id="Korosserie"><path d="M1602.64,984.971l-0.004,0.009l-0.044,0.081l-0.022,0.04l-0.002,0.004l-0.005,0.009l-0.043,0.092l-0.016,0.033l-0.001,0.003l-0.005,0.009l-0.039,0.094l-0.014,0.033l-0.001,0.003l-0.003,0.008l-0.032,0.09l-0.015,0.04l-0.001,0.004l-0.002,0.006l-0.024,0.081l-0.016,0.052l-0.001,0.004l-0.002,0.005l-0.016,0.067l-0.017,0.067l-0.001,0.005l-0.001,0.004l-0.01,0.051l-0.017,0.084l-0.001,0.006l-0,0.003l-0.005,0.034l-0.016,0.102l-0,0.007l-0,0.001l-0.002,0.018l-0.012,0.119l-0.001,0.012c-0.01,0.143 -0.01,0.287 0.001,0.429l0.013,0.137l0.001,0.006l-0,0.001l0.002,0.016l0.017,0.12l0.001,0.005l0,0.001l0.008,0.04l0.018,0.096l0.001,0.003l0.001,0.003l0.016,0.067l0.016,0.067l0.001,0.002l0.001,0.003l0.028,0.094l0.011,0.039l0,0.001l0.002,0.005l0.04,0.114l0.005,0.016l0,0l0.002,0.006l0.052,0.128c0.056,0.131 0.122,0.258 0.197,0.381l0.005,0.01l0.066,0.101l0.01,0.015l0,0.001l0.004,0.006l0.06,0.084l0.021,0.027l0.001,0.002l0.004,0.005l0.053,0.067l0.033,0.041l0.002,0.003l0.003,0.004l0.046,0.052l0.046,0.052l0.003,0.004l0.003,0.003l0.038,0.039l0.059,0.06l0.005,0.005l0.003,0.003l0.031,0.028l0.07,0.066l0.006,0.005l0.003,0.002l0.027,0.023l0.078,0.066l0.008,0.006l0.003,0.002l0.029,0.022l0.081,0.062l0.008,0.006l0.004,0.002l0.038,0.026l0.076,0.052l0.008,0.005l0.005,0.004l0.059,0.036l0.059,0.036l0.006,0.003l0.009,0.005l0.081,0.043l0.04,0.022l0.004,0.002l0.009,0.005l0.092,0.044l0.033,0.015l0.003,0.002l0.009,0.004l0.094,0.039l0.033,0.014l0.003,0.001l0.008,0.003l0.09,0.032l0.04,0.015l0.004,0.001l0.006,0.002l0.081,0.025l0.052,0.015l0.004,0.002l0.005,0.001l0.067,0.017l0.067,0.017l0.005,0.001l0.004,0.001l0.051,0.01l0.084,0.016l0.006,0.001l0.003,0.001l0.034,0.005l0.102,0.015l0.007,0.001l0.001,-0l0.018,0.002l0.119,0.011l0.012,0.001c0.143,0.01 0.287,0.01 0.429,-0l0.137,-0.013l0.006,-0.001l0.001,-0l0.016,-0.003l0.12,-0.017l0.005,-0.001l0.001,0l0.04,-0.008l0.096,-0.018l0.003,-0.001l0.003,-0l0.067,-0.017l0.067,-0.016l0.002,-0.001l0.003,-0.001l0.094,-0.027l0.039,-0.012l0.001,-0l0.005,-0.001l0.114,-0.04l0.016,-0.006l0,0l0.006,-0.002l0.128,-0.051c0.131,-0.056 0.258,-0.122 0.381,-0.197l0.01,-0.006l0.101,-0.065l0.015,-0.01l0.001,-0.001l0.006,-0.003l0.084,-0.061l0.027,-0.02l0.002,-0.002l0.005,-0.003l0.067,-0.054l0.041,-0.032l0.003,-0.003l0.004,-0.003l0.052,-0.046l0.052,-0.045l0.004,-0.004l0.003,-0.003l0.039,-0.038l0.06,-0.058l0.005,-0.006l0.003,-0.002l0.028,-0.031l0.066,-0.07l0.005,-0.007l0.002,-0.002l0.023,-0.028l0.066,-0.078l0.006,-0.008l0.002,-0.002l0.022,-0.029l0.062,-0.081l0.006,-0.009l0.002,-0.003l0.026,-0.038l0.052,-0.076l0.005,-0.008l0.004,-0.006c39.158,-61.13 88.026,-118.161 139.244,-169.647c1.168,-1.174 1.163,-3.075 -0.011,-4.242c-1.174,-1.168 -3.075,-1.163 -4.243,0.011c-38.162,38.362 -75.022,79.79 -107.584,123.695c14.284,-26.629 28.926,-52.978 47.294,-77.219c16.934,-22.35 36.584,-41.639 57.947,-59.65c1.266,-1.068 1.428,-2.962 0.36,-4.228c-1.067,-1.266 -2.961,-1.427 -4.227,-0.36c-21.705,18.299 -41.657,37.907 -58.863,60.614c-30.06,39.674 -50.229,84.945 -75.041,127.907l-0.004,0.006Z" style="fill:#999087;"/><path d="M1770.16,1280.83c-116.002,-3.516 -231.756,-2.38 -347.777,-1.968c-44.691,0.159 -376.809,-0.484 -421.503,0.742c-1.655,0.045 -2.962,1.426 -2.917,3.081c0.046,1.655 1.426,2.962 3.082,2.917c44.679,-1.226 376.684,-0.581 421.359,-0.74c117.278,-0.417 234.283,-1.575 351.54,2.087c0.312,0.01 0.615,-0.029 0.9,-0.108c11.894,15.17 24.096,30.111 35.196,45.867c18.472,26.223 35.199,56.384 54.836,81.8c1.012,1.31 2.898,1.552 4.208,0.54c1.31,-1.012 1.552,-2.898 0.54,-4.208c-19.584,-25.349 -36.256,-55.435 -54.679,-81.587c-14.178,-20.127 -30.147,-38.93 -44.989,-58.562c-26.548,-35.117 -105.456,-133.222 -134.837,-166.066c-1.103,-1.235 -3.002,-1.34 -4.236,-0.236c-1.234,1.104 -1.339,3.002 -0.236,4.236c29.313,32.769 108.036,130.648 134.523,165.684c1.65,2.183 3.315,4.356 4.99,6.521Z" style="fill:#999087;"/><path d="M1592.18,1448.13c-4.555,-2.564 -38.306,-29.469 -72.518,-52.148c-24.588,-16.299 -49.496,-30.331 -64.856,-33.149c-35.973,-6.599 -373.69,-2.375 -453.799,-2.86c-4.14,-0.025 -7.521,3.315 -7.546,7.455c-0.025,4.139 3.316,7.52 7.455,7.545c79.647,0.482 415.418,-3.948 451.184,2.614c14.096,2.586 36.709,15.939 59.275,30.898c35.806,23.735 71.27,51.777 74.752,53.388c2.541,1.176 13.743,2.478 30.705,3.059c61.572,2.111 206.186,0.132 260.618,-4.088c4.127,-0.32 7.218,-3.931 6.898,-8.058c-0.32,-4.127 -3.93,-7.217 -8.057,-6.898c-54.083,4.194 -197.768,6.151 -258.945,4.053c-12.354,-0.423 -24.095,-1.692 -25.166,-1.811Z" style="fill:#7a8285;"/><path d="M1032.98,1450.21l0.001,0l0.102,0.003l140.143,-0l16.812,0.009c73.109,0.042 146.218,0.092 219.327,0.108c27.613,0.006 55.227,0.011 82.841,-0.012c7.143,-0.006 14.285,-0.014 21.428,-0.029c5.124,-0.011 10.252,0.004 15.376,-0.077l0.012,-0l0.019,-0.001l0.054,-0.003l0.017,-0.001l0.004,-0c0.03,-0.002 0.059,-0.005 0.089,-0.009l0.007,-0.001l0.026,-0.004l0.04,-0.005l0.015,-0.003l0.018,-0.003l0.025,-0.005l0.019,-0.003l0.022,-0.005l0.031,-0.006l0.018,-0.005l0.005,-0.001l0.023,-0.006c0.092,-0.023 0.182,-0.053 0.268,-0.089l0.003,-0.001l0.005,-0.002c0.091,-0.038 0.179,-0.082 0.263,-0.133l0.006,-0.004l0.005,-0.003c0.042,-0.025 0.081,-0.051 0.12,-0.079l0.003,-0.002l0.007,-0.005l0.054,-0.041l0.051,-0.041l0.009,-0.007l0.005,-0.004c0.034,-0.029 0.067,-0.059 0.099,-0.09l0.01,-0.01l0.012,-0.012c0.032,-0.031 0.062,-0.064 0.092,-0.098l0.002,-0.002l0.005,-0.007l0.053,-0.063l0.028,-0.036l0.011,-0.014l0.011,-0.016l0.008,-0.01l0.01,-0.015l0.016,-0.022l0.016,-0.024l0.012,-0.018l0.007,-0.012l0.008,-0.011l0.019,-0.032l0.016,-0.026l0.005,-0.008l0,-0.001l0.012,-0.021l0.03,-0.054l0.025,-0.052l0.006,-0.012l0.001,-0.003l0.01,-0.02l0.018,-0.041l0.004,-0.008l0.002,-0.005l0.015,-0.034l0.012,-0.032l0.001,-0.003l0.001,-0.004c0.036,-0.092 0.064,-0.188 0.085,-0.286l0.004,-0.016l0.001,-0.008l0.006,-0.025l0.004,-0.028l0.003,-0.016l0.004,-0.024l0.005,-0.03l0.002,-0.014l0.001,-0.01l0.007,-0.066l0.001,-0.01l0,-0.001c0.003,-0.031 0.005,-0.062 0.006,-0.093l0.001,-0.006l-0,-0.013l0.001,-0.043l-0,-0.019l-0,-0.027c-0,-0.036 -0.002,-0.071 -0.004,-0.106l-0,-0.003l-0.001,-0.011l-0.008,-0.083l-0.006,-0.045l-0.001,-0.014l-0.002,-0.01c-0.014,-0.099 -0.036,-0.195 -0.065,-0.289l-0,-0c-0.045,-0.146 -0.105,-0.285 -0.181,-0.414l-0.003,-0.007l-0.005,-0.008c-0.024,-0.042 -0.05,-0.082 -0.077,-0.121c-0.016,-0.024 -0.033,-0.047 -0.05,-0.07l-0.003,-0.003l-0.009,-0.012l-0.032,-0.041l-0.012,-0.014l-0.006,-0.008l-0.01,-0.011l-0.023,-0.027l-0.021,-0.023l-0.009,-0.01l-0.007,-0.008l-0.016,-0.017l-0.033,-0.034l-0.01,-0.01l-0.004,-0.004c-0.042,-0.041 -0.086,-0.08 -0.132,-0.118l-0.006,-0.005l-0.022,-0.017l-0.029,-0.024c-17.322,-13.208 -72.724,-61.404 -72.724,-61.404c-0.359,-0.312 -0.819,-0.487 -1.295,-0.491c0,0 -404.416,-3.54 -423.123,-3.063l-0.013,0.001l-0.015,0l-0.041,0.003l-0.032,0.001l-0.012,0.002l-0.016,0.001l-0.042,0.004l-0.03,0.003l-0.011,0.002l-0.017,0.002l-0.041,0.007l-0.029,0.004l-0.011,0.002l-0.016,0.003l-0.041,0.009l-0.028,0.006l-0.012,0.003l-0.016,0.003l-0.038,0.01l-0.029,0.008l-0.012,0.003l-0.015,0.004l-0.036,0.012l-0.03,0.009l-0.012,0.005l-0.015,0.004l-0.033,0.013l-0.03,0.011l-0.014,0.005l-0.014,0.006l-0.03,0.013l-0.031,0.013l-0.014,0.006l-0.013,0.006l-0.028,0.014l-0.031,0.015l-0.015,0.007l-0.013,0.007l-0.026,0.014l-0.031,0.017l-0.014,0.008l-0.012,0.007l-0.025,0.016l-0.03,0.017l-0.015,0.01l-0.012,0.008l-0.023,0.016l-0.029,0.019l-0.014,0.01l-0.013,0.009l-0.022,0.017l-0.028,0.02l-0.013,0.011l-0.013,0.009l-0.022,0.019l-0.025,0.021l-0.013,0.011l-0.013,0.011l-0.021,0.019l-0.024,0.021l-0.012,0.013l-0.013,0.011l-0.021,0.021l-0.021,0.021l-0.012,0.013l-0.013,0.013l-0.02,0.022l-0.02,0.022l-0.011,0.013l-0.012,0.014l-0.02,0.024l-0.018,0.021l-0.01,0.014l-0.013,0.015l-0.018,0.025l-0.016,0.021l-0.01,0.014l-0.012,0.017l-0.018,0.025l-0.014,0.022l-0.01,0.014l-0.012,0.018l-0.015,0.027l-0.014,0.021l-0.008,0.015l-0.012,0.02l-0.014,0.026l-0.012,0.022l-0.009,0.016l-0.01,0.02l-0.013,0.027l-0.011,0.022l-0.008,0.018l-0.01,0.02l-0.011,0.027l-0.01,0.022l-0.007,0.02l-0.009,0.021l-0.01,0.026l-0.009,0.023l-0.007,0.021l-0.007,0.021l-0.008,0.025l-0.008,0.025l-0.006,0.022l-0.007,0.022l-0.006,0.024l-0.007,0.025l-0.006,0.024l-0.005,0.023l-0.005,0.023l-0.006,0.025l-0.004,0.026l-0.005,0.023l-0.003,0.022l-0.005,0.026l-0.003,0.028l-0.004,0.023l-0.002,0.022l-0.003,0.026l-0.002,0.028l-0.003,0.025l-0.001,0.021l-0.002,0.025l-0,0.029l-0.002,0.027l0,0.031l-0,0.015l-0,0.049c-0.028,2.933 -0.023,61.26 -0,64.138l-0,0.362l0,0.011l0,0.011l0.002,0.04l0.001,0.041l0,0.011l0.001,0.01l0.003,0.038l0.003,0.042l0.002,0.011l0,0.009l0.006,0.038l0.005,0.042l0.002,0.011l0.001,0.009l0.007,0.036l0.008,0.043l0.002,0.01l0.001,0.008l0.009,0.037l0.01,0.042l0.003,0.009l0.002,0.008l0.01,0.036l0.012,0.042l0.003,0.008l0.002,0.008l0.013,0.036l0.013,0.041l0.004,0.008l0.002,0.007l0.015,0.036l0.015,0.039l0.004,0.008l0.002,0.007l0.017,0.036l0.017,0.038l0.004,0.007l0.003,0.007l0.019,0.036l0.018,0.036l0.004,0.007l0.003,0.006l0.021,0.036l0.02,0.035l0.004,0.006l0.004,0.006l0.023,0.036l0.022,0.033l0.003,0.005l0.004,0.006l0.025,0.035l0.023,0.032l0.004,0.005l0.004,0.006l0.027,0.034l0.025,0.031l0.004,0.005l0.003,0.004l0.029,0.033l0.027,0.031l0.003,0.004l0.004,0.004l0.031,0.032l0.028,0.029l0.004,0.004l0.003,0.004l0.032,0.03l0.03,0.028l0.004,0.004l0.004,0.003l0.033,0.028l0.032,0.028l0.004,0.003l0.003,0.003l0.034,0.026l0.034,0.028l0.004,0.002l0.003,0.003l0.035,0.024l0.037,0.026l0.003,0.003l0.004,0.002l0.035,0.022l0.039,0.025l0.004,0.002l0.002,0.002l0.036,0.021l0.042,0.023l0.003,0.002l0.003,0.002l0.036,0.018l0.044,0.023l0.003,0.001l0.003,0.001l0.036,0.017l0.046,0.021l0.004,0.001l0.002,0.001l0.037,0.015l0.048,0.018l0.003,0.001l0.002,0.001l0.039,0.013l0.049,0.017l0.003,0.001l0.001,0l0.041,0.012l0.05,0.014l0.002,0l0.002,0.001l0.042,0.01l0.051,0.011l0.002,0.001l0.001,-0l0.046,0.008l0.049,0.009l0.003,0l0.051,0.007l0.046,0.006l0.002,-0l0.062,0.004l0.038,0.003Zm138.318,-3.997l351.87,-0l0,-0c-19.58,-15.655 -62.412,-52.824 -67.786,-57.492c-18.667,-0.163 -385.66,-3.363 -420.299,-3.085l-0,60.562c11.389,-0.046 66.584,-0.024 136.215,0.015Z" style="fill:#808080;"/></g><g id="Scheinwerferpartie1" serif:id="Scheinwerferpartie"><g id="Scheinwerfer1" serif:id="Scheinwerfer"><path d="M1780.59,1027.73l-65.129,1.408l-66.541,1.405c-0.178,-8.914 -0.514,-16.611 -0.686,-26.653c-0.104,-6.07 -5.116,-10.914 -11.186,-10.81c-6.07,0.104 -10.914,5.116 -10.811,11.186c0.237,13.833 0.793,23.176 0.807,37.511c0,0.131 0.746,11.083 11.145,10.989c0.28,-0.003 1.811,-0.032 4.362,-0.083c22.313,-0.452 124.951,-2.645 145.26,-3.104c2.111,-0.048 3.366,-0.079 3.597,-0.087c9.085,-0.318 10.424,-8.766 10.449,-8.893c0.737,-3.787 0.619,-36.823 0.445,-46.792c-0.106,-6.07 -5.121,-10.912 -11.191,-10.806c-6.07,0.106 -10.912,5.121 -10.806,11.191c0.111,6.345 0.375,23.052 0.285,33.538Z" style="fill:#fff;"/><path d="M1593.35,1034.18c-28.091,0.749 -105.34,2.678 -134.059,3.136c-0.062,-9.659 -0.094,-23.215 -0.067,-29.356c0.026,-6.071 -4.882,-11.021 -10.953,-11.047c-6.071,-0.026 -11.021,4.881 -11.047,10.952c-0.04,9.191 0.052,34.743 0.167,39.856c0.13,5.783 3.207,8.373 3.342,8.505c0.312,0.306 2.575,3.01 7.814,3.171c2.625,0.081 16.012,-0.142 33.968,-0.526c41.217,-0.88 106.907,-2.553 119.67,-2.918c6.736,-0.192 9.785,-3.425 9.81,-3.45c0.223,-0.233 2.882,-2.685 3.125,-8.021c0.234,-5.15 0.525,-30.5 0.352,-40.652c-0.103,-6.07 -5.115,-10.915 -11.186,-10.811c-6.07,0.103 -10.914,5.115 -10.811,11.186c0.115,6.752 0.022,20.463 -0.125,29.975Z" style="fill:#fff;"/></g><path d="M1840.36,970.428l-0.012,0.002l-0.005,0.002c-2.775,0.551 -5.55,1.102 -8.326,1.647c-1.179,0.232 -3.287,0.384 -4.888,0.868c-1.164,0.351 -2.13,0.884 -2.783,1.515c-1.988,1.922 -3.492,4.273 -5.624,6.08c-1.269,1.074 -2.695,1.969 -4.149,2.769c-0.191,0.105 -2.192,1.146 -2.578,1.383c-2.092,1.286 -1.375,3.454 -1.296,3.665c0.199,0.524 0.72,1.369 1.873,1.908c0.856,0.401 2.794,0.83 3.256,0.961c2.336,0.659 4.728,1.119 7.084,1.707l-0.07,0.781c-0.278,3.373 -0.488,6.771 -1.002,10.118c-0.967,6.288 -1.602,13.727 -3.278,20.731c-1.549,6.475 -3.962,12.595 -8.669,16.806c-4.623,4.134 -11.483,6.831 -18.944,8.72c-11.77,2.98 -25.039,3.871 -34.222,4.446c-1.609,0.101 -328.078,21.655 -340.166,22.745l-415.668,9.479c-1.649,0.038 -2.958,1.399 -2.931,3.049c0.027,1.649 1.38,2.967 3.03,2.95c3.07,-0.031 8.779,-0.06 14.87,-0.083c-0.544,16.595 -0.112,33.263 -1.505,49.817c-0.363,4.319 -0.778,8.641 -1.317,12.942c-0.016,0.134 -0.107,1.08 -0.185,1.908c-4.008,1.062 -8.969,1.119 -12.878,1.145c-1.655,0.011 -2.991,1.364 -2.98,3.019c0.011,1.656 1.364,2.992 3.02,2.981c5.084,-0.034 11.711,-0.249 16.527,-2.019c0.33,-0.122 0.808,-0.353 1.232,-0.832c2.557,-0.276 8.476,-0.907 15.897,-1.639c100.808,-9.947 600.207,-56.469 624.447,-58.781c26.972,-2.572 58.401,-6.979 89.202,-10.351c14.474,-1.585 36.159,-1.824 54.757,-6.282c13.028,-3.123 24.543,-8.356 31.476,-17.186c6.325,-8.055 9.576,-21.124 10.951,-35.537c1.868,-19.579 0.411,-41.656 -0.404,-56.059c1.97,-0.391 3.94,-0.781 5.911,-1.167c7.798,-1.529 15.618,-2.941 23.477,-4.122c1.638,-0.246 2.767,-1.775 2.521,-3.413c-0.246,-1.637 -1.775,-2.767 -3.413,-2.52c-7.946,1.194 -15.854,2.621 -23.739,4.167c-2.834,0.555 -5.666,1.117 -8.499,1.68Zm-2.2,6.554c-1.661,0.329 -3.323,0.658 -4.986,0.985c-0.803,0.158 -2.061,0.269 -3.271,0.486c-0.505,0.091 -1.313,0.353 -1.469,0.404c-2.043,1.996 -3.63,4.395 -5.834,6.263c-0.506,0.429 -1.032,0.836 -1.573,1.224c1.984,0.455 3.974,0.886 5.917,1.476c0.433,0.132 2.015,0.703 2.144,2.775c0.035,0.566 -0.238,3.266 -0.267,3.613c-0.289,3.513 -0.515,7.051 -1.051,10.537c-1.194,7.773 -1.935,17.246 -4.583,25.61c-1.901,6.004 -4.776,11.446 -9.294,15.488c-5.256,4.701 -12.988,7.916 -21.472,10.064c-12.148,3.076 -25.841,4.025 -35.319,4.619c-1.592,0.099 -321.346,21.208 -339.53,22.692c-0.119,0.024 -0.241,0.04 -0.366,0.048c-16.662,1.114 -221.727,6.083 -337.714,9.307c-12.814,0.356 -29.9,0.111 -40.732,0.058c-1.942,-0.01 -9.13,0.002 -16.894,0.026c-0.562,16.771 -0.123,33.613 -1.53,50.339c-0.349,4.154 -0.746,8.31 -1.252,12.448c3.005,-0.32 7.74,-0.799 14,-1.416c100.811,-9.948 600.226,-56.47 624.466,-58.783c26.947,-2.57 58.346,-6.974 89.119,-10.343c14.275,-1.562 35.668,-1.755 54.011,-6.152c11.599,-2.781 21.983,-7.195 28.156,-15.056c5.753,-7.327 8.447,-19.293 9.697,-32.401c1.801,-18.881 0.44,-40.119 -0.373,-54.311Z" style="fill:#25201c;"/><path d="M1419.8,1077.66c0.485,-28.633 -0.055,-57.268 0.174,-85.906c0.013,-1.656 -1.321,-3.011 -2.976,-3.024c-1.656,-0.013 -3.011,1.321 -3.024,2.976c-0.228,28.621 0.312,57.237 -0.173,85.853c-0.028,1.655 1.294,3.022 2.949,3.05c1.656,0.028 3.022,-1.293 3.05,-2.949Z" style="fill:#25201c;"/><path d="M1828.83,972.231c-35.582,4.347 -56.064,7.203 -91.856,8.958c-10.403,0.51 -309.457,7.522 -320.005,7.541c-1.656,0.003 -2.997,1.35 -2.994,3.006c0.003,1.655 1.349,2.997 3.005,2.994c10.557,-0.019 309.876,-7.038 320.288,-7.548c35.961,-1.764 56.54,-4.628 92.29,-8.995c1.643,-0.201 2.815,-1.698 2.614,-3.341c-0.201,-1.644 -1.698,-2.815 -3.342,-2.615Z" style="fill:#25201c;"/><path d="M1416.67,988.733c-4.682,0.201 -416.555,2.263 -416.769,2.27c-1.655,0.054 -2.954,1.441 -2.9,3.096c0.053,1.655 1.441,2.955 3.096,2.901c0.213,-0.007 412.148,-2.071 416.831,-2.273c1.654,-0.071 2.939,-1.472 2.868,-3.126c-0.071,-1.654 -1.472,-2.939 -3.126,-2.868Z" style="fill:#25201c;"/></g><path id="Windschutzscheibe1" serif:id="Windschutzscheibe" d="M1573.29,481.935c24.149,36.328 47.899,77.339 62.758,113.489c24.28,59.07 49.786,128.479 72.048,188.794c-3.541,0.047 -9.461,0.092 -16.415,0.01c-115.795,-1.362 -678.076,-18.372 -691.701,-18.287c-1.655,0.01 -2.991,1.363 -2.981,3.019c0.01,1.655 1.363,2.991 3.019,2.981c13.623,-0.085 575.815,16.925 691.593,18.287c10.403,0.122 17.241,0.115 19.806,-0.036c0.467,-0.028 0.866,-0.082 1.2,-0.147c0.255,-0.023 0.512,-0.08 0.763,-0.173c0.167,-0.062 0.324,-0.136 0.472,-0.223l0.009,-0.005l0.017,-0.011l0.048,-0.028l0.05,-0.033l0.016,-0.009l0.014,-0.01l0.045,-0.03l0.048,-0.035l0.018,-0.013l0.016,-0.011l0.037,-0.028l0.044,-0.035l0.023,-0.018l0.018,-0.016l0.03,-0.023l0.036,-0.033l0.03,-0.026l0.022,-0.02l0.021,-0.019l0.028,-0.028l0.037,-0.035l0.024,-0.025l0.015,-0.014l0.02,-0.023l0.043,-0.045l0.026,-0.03l0.009,-0.009l0.014,-0.017l0.048,-0.055l0.026,-0.033l0.005,-0.007l0.009,-0.012l0.05,-0.064l0.025,-0.035l0.003,-0.004l0.006,-0.009l0.05,-0.071l0.023,-0.036l0.002,-0.003l0.006,-0.009l0.047,-0.074l0.02,-0.035l0.003,-0.005l0.006,-0.012l0.043,-0.074l0.016,-0.033l0.004,-0.007l0.009,-0.018l0.036,-0.071l0.013,-0.03l0.006,-0.011l0.012,-0.028l0.028,-0.063l0.01,-0.025l0.007,-0.016l0.015,-0.04l0.021,-0.053l0.007,-0.021l0.008,-0.021l0.017,-0.054l0.014,-0.041l0.004,-0.016l0.009,-0.026l0.018,-0.067l0.008,-0.029l0.003,-0.012l0.009,-0.031l0.017,-0.078l0.004,-0.019l0.002,-0.008l0.008,-0.036l0.014,-0.085l0.002,-0.013l0.001,-0.006l0.007,-0.039l0.011,-0.088l0.001,-0.01l0,-0.004l0.005,-0.043l0.007,-0.086l0,-0.011l0.001,-0.005l0.003,-0.043l0.002,-0.081l0,-0.015l0,-0.008l0.001,-0.043l-0.002,-0.072l-0,-0.022l-0.001,-0.013l-0.001,-0.04l-0.005,-0.062l-0.002,-0.03l-0.002,-0.02l-0.002,-0.035l-0.007,-0.051l-0.004,-0.039l-0.004,-0.028l-0.004,-0.03l-0.007,-0.039l-0.008,-0.048l-0.007,-0.037l-0.005,-0.023l-0.006,-0.029l-0.012,-0.055l-0.011,-0.045l-0.005,-0.019l-0.006,-0.021l-0.015,-0.058l-0.016,-0.051l-0.004,-0.017l-0.006,-0.017l-0.018,-0.057l-0.02,-0.053l-0.006,-0.019c-22.618,-61.261 -48.729,-132.468 -73.558,-192.875c-15.16,-36.883 -39.476,-78.79 -64.118,-115.744l-0.028,-0.04l-0.01,-0.015l-0.013,-0.017l-0.037,-0.054l-0.031,-0.038l-0.004,-0.007l-0.008,-0.01c-0.208,-0.268 -0.456,-0.492 -0.728,-0.669l-0.004,-0.002l-0.029,-0.018l-0.075,-0.047l-0.01,-0.006l-0.01,-0.006l-0.078,-0.042l-0.029,-0.017l-0.004,-0.002c-0.287,-0.151 -0.603,-0.258 -0.939,-0.309l-0.012,-0.002l-0.008,-0.001l-0.049,-0.008l-0.065,-0.007l-0.021,-0.002l-0.018,-0.002l-0.049,-0.005c-44.098,-3.482 -162.864,-21.534 -280.579,-26.767c-129.117,-5.741 -271.652,-5.42 -293.714,-5.161c-1.656,0.019 -2.984,1.379 -2.964,3.035c0.019,1.656 1.379,2.984 3.035,2.965c22.036,-0.259 164.408,-0.58 293.377,5.155c116.358,5.173 233.744,22.886 278.914,26.635Z" style="fill:#999087;"/><path id="Außenkontur1" serif:id="Außenkontur" d="M1535.04,447.026l0.01,0.003c19.633,4.972 29.618,14.378 41.759,26.917c39.478,40.773 62.187,93.723 86.059,145.898c13.074,28.575 66.872,153.522 77.288,185.673c0.356,1.097 0.883,2.09 1.545,2.959c4.094,10.749 11.183,19.839 18.623,28.977c8.496,10.433 81.474,75.995 92.198,86.114c6.384,6.024 12.95,12.986 16.004,21.403c0.071,0.765 1.119,12.269 1.47,24.07c1.737,58.217 0.407,193.087 0.202,246.106c-0.167,43.152 -0.327,86.305 -0.475,129.457c-0.072,20.977 -0.023,46.636 -0.392,67.847l-0.279,1.563l-0.191,0.963c-26.917,0.382 -173.266,2.087 -199.613,2.376l-0.476,-0.16c-52.657,-16.193 -104.545,-57.951 -153.638,-84.062c-0.489,-0.26 -0.99,-0.476 -1.498,-0.646c-1.656,-1.192 -3.689,-1.888 -5.883,-1.876c-10.793,0.062 -495.852,1.504 -506.644,1.352c-5.519,-0.078 -10.063,4.339 -10.141,9.858c-0.078,5.518 4.339,10.062 9.858,10.14c10.458,0.147 465.94,-1.199 504.612,-1.342l0.305,0.172c48.864,25.99 100.623,66.813 153.012,84.194c1.761,1.516 4.055,2.428 6.558,2.416c2.612,-0.013 160.046,-1.847 199.656,-2.37c-0.061,0.781 -0.099,1.561 -0.112,2.341c-0.12,6.952 0.981,11.944 1.985,16.819c1.037,5.04 1.817,9.91 -0.985,18.939c-2.16,6.956 -8.455,19.609 -15.772,30.082c-4.283,6.129 -8.745,11.629 -13.105,13.961c-1.055,0.565 -3.03,0.851 -5.623,1.286c-5.813,0.975 -13.881,1.733 -23.199,2.347c-37.528,2.472 -94.609,2.456 -110.5,2.639l-0.105,0.001l-0.205,0.008l-0.205,0.005c-13.538,0.715 -16.579,0.004 -30.617,-0.013c-21.616,-0.027 -54.387,0.112 -75.196,-2.041c-22.104,-2.288 -43.403,-7.666 -65.776,-8.48c-41.386,-1.504 -82.978,0.961 -124.377,1.227c-39.634,0.254 -360.738,6.353 -400.379,7.024c-5.518,0.094 -9.923,4.65 -9.829,10.168c0.093,5.519 4.649,9.923 10.168,9.83c39.62,-0.671 360.555,-6.769 400.169,-7.023c41.114,-0.264 82.42,-2.733 123.522,-1.239c21.923,0.797 42.784,6.145 64.444,8.386c21.371,2.212 55.028,2.12 77.229,2.148c14.449,0.017 17.645,0.717 31.455,-0.003c16.134,-0.184 73.672,-0.187 111.517,-2.68c18.24,-1.202 32.312,-3.478 36.941,-5.955c6.474,-3.463 13.707,-11.041 20.065,-20.141c8.643,-12.369 15.928,-27.392 18.479,-35.608c3.607,-11.621 3.258,-18.792 2.148,-25.361c-0.815,-4.821 -2.369,-9.193 -2.252,-15.982c0.114,-6.608 2.307,-13.164 3.728,-19.706c0.444,-1.096 0.697,-2.291 0.72,-3.545l0.006,-0.341l0.104,-0.677c0.145,-1.043 0.123,-2.07 -0.046,-3.056c0.329,-20.813 0.287,-45.442 0.357,-65.716c0.148,-43.15 0.307,-86.299 0.475,-129.448c0.205,-53.165 1.53,-188.403 -0.21,-246.78c-0.485,-16.235 -1.528,-27.1 -2.512,-29.884c-4.063,-11.499 -12.534,-21.336 -21.228,-29.54c-10.502,-9.909 -82.095,-73.978 -90.415,-84.195c-6.484,-7.963 -12.979,-15.666 -16.087,-25.29c-0.338,-1.047 -0.832,-2 -1.452,-2.84c-12.383,-36.222 -64.351,-157.003 -77.239,-185.172c-24.825,-54.256 -48.825,-109.09 -89.878,-151.489c-14.802,-15.288 -27.259,-26.319 -51.187,-32.385l-0.009,-0.003l-0.014,-0.004l-0.006,-0.001l-0.004,-0.001c-55.354,-14.139 -114.147,-19.962 -170.802,-25.55c-105.76,-10.431 -261.942,-13.765 -368.24,-13.209c-5.519,0.029 -9.976,4.533 -9.948,10.052c0.029,5.519 4.534,9.977 10.053,9.948c105.7,-0.554 261.006,2.74 366.172,13.113c55.666,5.49 113.444,11.134 167.838,25.03l0.01,0.002Z" style="fill:#25201c;"/></g></g><path d="M989.622,923.009c49.377,-0 89.466,9.926 89.466,22.153c-0,12.227 -40.089,22.153 -89.466,22.153c-49.378,0 -89.467,-9.926 -89.467,-22.153c0,-12.227 40.089,-22.153 89.467,-22.153Zm-63.809,37.675c4.303,-8.063 29.497,-33.859 34.28,-36.438m89.969,4.588c-0.849,1.59 -3.597,6.249 -5.71,8.824c-8.602,10.486 -24.985,26.642 -28.825,28.713m-76.335,-2.912c15.418,-11.036 36.441,-13.938 54.974,-13.168c1.359,0.057 2.721,0.103 4.078,0.206c0.994,0.076 1.986,0.159 2.976,0.276c2.809,0.331 5.734,0.643 8.5,1.265c0.657,0.148 2.212,0.469 2.329,1.264c0.279,1.899 -1.372,3.814 -2.672,4.989c-2.496,2.255 -5.557,3.815 -8.27,5.784c-1.565,1.135 -2.397,1.938 -3.852,3.161m39.8,-40.857c-15.418,11.036 -38.209,16.845 -56.742,16.074c-1.359,-0.057 -2.721,-0.103 -4.077,-0.206c-0.994,-0.076 -1.987,-0.159 -2.977,-0.276c-2.809,-0.33 -5.734,-0.642 -8.499,-1.265c-0.658,-0.148 -2.213,-0.469 -2.33,-1.264c-0.279,-1.899 1.372,-3.814 2.672,-4.989c2.496,-2.255 5.435,-4.154 7.837,-6.492c1.477,-1.438 4.123,-3.56 5.578,-4.783" style="fill:none;stroke:#7a8285;stroke-width:3px;"/></svg>