<?xml version="1.0" encoding="UTF-8" standalone="no"?><!DOCTYPE svg PUBLIC "-//W3C//DTD SVG 1.1//EN" "http://www.w3.org/Graphics/SVG/1.1/DTD/svg11.dtd"><svg width="100%" height="100%" viewBox="0 0 2000 2000" version="1.1" xmlns="http://www.w3.org/2000/svg" xmlns:xlink="http://www.w3.org/1999/xlink" xml:space="preserve" xmlns:serif="http://www.serif.com/" style="fill-rule:evenodd;clip-rule:evenodd;stroke-linecap:round;stroke-linejoin:round;stroke-miterlimit:1.5;"><g><g><path d="M614.59,1010.71c-0.253,-0.014 -0.519,-0.02 -0.797,-0.02c-3.222,-0 -5.868,2.544 -5.995,5.763c-0.127,3.212 2.3,5.952 5.501,6.216c31.36,9.114 595.024,148.433 625.144,155.187c3.232,0.725 6.443,-1.31 7.168,-4.541c0.724,-3.232 -1.311,-6.443 -4.542,-7.168c-26.213,-5.878 -457.635,-112.369 -587.864,-145.43c184.748,-9.721 947.596,-52.365 955.876,-52.654c3.309,-0.115 5.902,-2.896 5.787,-6.206c-0.116,-3.309 -2.896,-5.902 -6.206,-5.787c-9.304,0.325 -972.83,54.315 -994.072,54.64Z" style="fill:#999087;"/><path d="M1086.62,1178.94c-2.896,-72.126 2.131,-179.939 13.727,-249.37c0.545,-3.266 -1.664,-6.361 -4.93,-6.906c-3.266,-0.546 -6.361,1.663 -6.906,4.929c-11.71,70.116 -16.806,178.991 -13.881,251.829c0.133,3.308 2.927,5.887 6.236,5.754c3.308,-0.133 5.887,-2.927 5.754,-6.236Z" style="fill:#999087;"/><path d="M595.408,1237.23c-2.894,-80.929 -7.96,-154.963 2.911,-236.433c2.449,-18.353 3.36,-36.378 9.929,-53.87c1.164,-3.1 -0.408,-6.562 -3.508,-7.726c-3.1,-1.164 -6.562,0.408 -7.726,3.508c-6.893,18.356 -8.019,37.241 -10.589,56.5c-10.964,82.165 -5.928,156.83 -3.009,238.45c0.118,3.31 2.901,5.9 6.21,5.782c3.31,-0.118 5.9,-2.901 5.782,-6.211Z" style="fill:#999087;"/><path d="M1606.82,911.609c2.977,3.294 17.066,20.23 17.066,20.23c0,-0 -11.541,24.675 -15.041,30.274c0,0 -6.682,17.696 -33.647,73.862c4.458,-8.248 31.314,-69.103 33.647,-73.862l0,-0.05c3.413,0.508 273.072,-2.919 273.072,-3.13" style="fill:none;stroke:#999087;stroke-width:12px;"/><path d="M205.602,1047.4c27.203,-2.172 54.23,-4.406 77.107,-5.436c3.308,-0.149 5.873,-2.956 5.724,-6.264c-0.149,-3.308 -2.955,-5.873 -6.264,-5.724c-22.999,1.035 -50.172,3.279 -77.522,5.462c-3.301,0.264 -5.767,3.158 -5.504,6.459c0.264,3.301 3.158,5.767 6.459,5.503Z" style="fill:#999087;"/><path d="M529.343,939.196c-5.844,5.033 -35.036,21.997 -59.837,40.705c-23.952,18.068 -43.38,37.773 -56.096,47.715c-2.608,2.04 -3.07,5.814 -1.031,8.422c2.04,2.609 5.814,3.071 8.423,1.031c12.679,-9.914 32.046,-29.571 55.931,-47.588c25.065,-18.908 54.533,-36.105 60.44,-41.191c2.51,-2.161 2.793,-5.953 0.632,-8.462c-2.161,-2.509 -5.952,-2.792 -8.462,-0.632Z" style="fill:#999087;"/></g><path id="Antenne" d="M1425.99,738.17c13.509,-6.211 31.723,-19.248 46.696,-23.431c4.455,-1.244 11.534,-2.648 17.107,-3.677c-0,-0 -5.507,9.533 -5.507,9.533c-0.828,1.433 -0.688,3.229 0.353,4.516c0,0 14.884,18.366 15.964,20.069c1.182,1.865 3.655,2.419 5.52,1.236c1.864,-1.182 2.418,-3.655 1.236,-5.52c-0.886,-1.397 -10.724,-13.646 -14.774,-18.675c0,0 8.427,-14.587 8.427,-14.587c0.774,-1.34 0.706,-3.006 -0.175,-4.278c-0.881,-1.272 -2.417,-1.922 -3.943,-1.669c0,0 -17.833,2.965 -26.361,5.347c-15.333,4.284 -34.05,17.507 -47.885,23.867c-2.006,0.923 -2.885,3.3 -1.963,5.306c0.922,2.005 3.299,2.885 5.305,1.963Z" style="fill:#000300;"/><g id="Fenster---Spiegel" serif:id="Fenster &amp; Spiegel"><g><path d="M1096.37,748.751c-6.58,24.901 -41.679,147.7 -48.953,176.738c-0.536,2.141 0.767,4.315 2.909,4.852c2.141,0.536 4.315,-0.767 4.852,-2.908c7.27,-29.021 42.35,-151.751 48.926,-176.638c0.564,-2.134 -0.711,-4.325 -2.845,-4.889c-2.135,-0.564 -4.325,0.711 -4.889,2.845Z" style="fill:#000300;"/><path d="M1148.33,748.963c-7.425,35.882 -18.26,151.281 -20.359,174.216c-0.201,2.198 1.421,4.146 3.619,4.347c2.199,0.202 4.147,-1.42 4.348,-3.619c2.088,-22.816 12.839,-137.625 20.226,-173.323c0.448,-2.162 -0.944,-4.281 -3.106,-4.728c-2.162,-0.447 -4.28,0.945 -4.728,3.107Z" style="fill:#000300;"/><path d="M1499.5,817.996c0.19,11.233 -4.246,73.587 -3.611,92.373c0.075,2.206 1.927,3.937 4.133,3.862c2.207,-0.074 3.937,-1.926 3.863,-4.133c-0.635,-18.758 3.803,-81.021 3.614,-92.237c-0.037,-2.208 -1.859,-3.969 -4.067,-3.932c-2.207,0.037 -3.969,1.859 -3.932,4.067Z" style="fill:#000300;"/></g><path d="M598.815,943.615l3.816,5.2c0,0 1.035,0.739 2.148,-0.034l56.837,-0.901c2.207,-0.035 3.971,-1.855 3.936,-4.063c-0.035,-2.207 -1.856,-3.971 -4.063,-3.936l-52.363,0.831c7.507,-8.492 15.061,-17.187 23.684,-24.509c10.587,-8.989 42.394,-27.998 54.027,-35.545c28.751,-18.652 105.754,-61.813 135.183,-75.576c13.78,-6.445 45.151,-21.673 76.224,-30.086c17.28,-4.68 69.789,-13.659 125.752,-17.673c56.389,-4.045 129.397,-4.724 147.406,-4.535c10.285,0.108 221.766,3.373 256.967,9.939c6.523,5.052 54.697,42.495 97.359,79.219c27.805,23.934 52.941,47.587 66.733,60.936l-850.177,30.754c-2.207,0.08 -3.933,1.936 -3.853,4.142c0.08,2.207 1.936,3.933 4.142,3.853c-0,0 813.43,-29.425 857.562,-31.021c1.495,1.646 3.839,4.195 4.425,4.649c1.812,1.405 3.44,0.841 3.939,0.659c0.412,-0.15 4.375,-2.621 1.6,-6.598c-0.18,-0.257 -1.794,-1.924 -4.603,-4.719l-0.644,-0.704c-0.206,-0.233 -0.436,-0.439 -0.685,-0.615c-12.016,-11.886 -40.802,-39.494 -73.22,-67.399c-46.021,-39.616 -98.435,-80.065 -98.435,-80.065c-0.481,-0.371 -1.039,-0.628 -1.634,-0.751c-32.538,-6.722 -248.954,-10.168 -259.392,-10.278c-18.089,-0.19 -91.422,0.491 -148.063,4.554c-56.641,4.063 -109.781,13.195 -127.27,17.931c-31.597,8.555 -63.509,24.008 -77.522,30.561c-29.639,13.862 -107.193,57.326 -136.148,76.112c-11.818,7.667 -44.096,27.026 -54.851,36.158c-9.73,8.261 -18.163,18.194 -26.631,27.715c-0.377,0.424 -0.659,0.922 -0.829,1.463c-1.222,3.903 -1.357,4.332 -1.357,4.332Z" style="fill:#999087;"/><g><path d="M648.937,911.85c-0.91,1.205 -1.064,2.82 -0.398,4.175c0.666,1.356 2.039,2.22 3.549,2.236c8.594,0.087 83.296,-0.79 83.296,-0.79c1.105,-0.013 2.156,-0.483 2.902,-1.298c0.747,-0.816 1.123,-1.903 1.039,-3.006l-2.807,-36.879c-0.157,-2.07 -1.872,-3.676 -3.948,-3.696c0,-0 -17.828,-0.145 -23.942,0.947c-24.434,4.367 -44.884,18.705 -59.691,38.311Zm11.643,-1.612c13.001,-14.689 29.799,-25.31 49.456,-28.824c4.038,-0.721 13.528,-0.835 18.786,-0.839c-0,0 2.202,28.946 2.202,28.946c-13.009,0.15 -52.396,0.598 -70.444,0.717l0,-0Z" style="fill:#999087;"/><path d="M653.212,918.097c-1.335,-0.029 -2.597,0.611 -3.363,1.705c-0.767,1.094 -0.936,2.499 -0.451,3.744c6.552,16.841 17.507,23.132 33.625,24.324c6.346,0.469 54.483,-3.405 54.483,-3.405c2.193,-0.178 3.83,-2.093 3.665,-4.287l-1.464,-19.444c-0.159,-2.111 -1.935,-3.732 -4.051,-3.699c-0,0 -76.116,1.199 -82.444,1.062Zm6.208,7.984c16.761,-0.135 59.63,-0.788 72.593,-0.988c-0,-0 0.882,11.718 0.882,11.718c-11.466,0.916 -44.182,3.458 -49.282,3.081c-10.892,-0.806 -18.854,-4.49 -24.193,-13.811l0,0Z" style="fill:#000300;"/></g><path d="M493.253,951.859c24.987,-17.012 155.005,-92.468 192.094,-111.909c61.904,-32.45 129.629,-68.71 201.268,-73.165c3.305,-0.205 5.821,-3.055 5.616,-6.361c-0.206,-3.305 -3.056,-5.821 -6.361,-5.616c-73.31,4.559 -142.745,41.306 -206.095,74.514c-37.318,19.562 -168.134,95.5 -193.276,112.618c-2.737,1.864 -3.446,5.599 -1.582,8.336c1.863,2.738 5.599,3.447 8.336,1.583Z" style="fill:#000300;"/><path d="M1708.35,769.293c1.39,0.636 4.773,1.859 8.265,3.075c0,0 -29.255,24.503 -29.255,24.503c-1.382,1.158 -2.171,2.877 -2.146,4.681c0.024,1.804 0.859,3.501 2.273,4.621c-0,0 99.321,78.637 127.551,93.846c20.416,10.999 41.698,15.188 49.647,19.094c2.972,1.461 6.57,0.234 8.031,-2.738c1.46,-2.973 0.233,-6.571 -2.739,-8.032c-7.882,-3.873 -29.003,-7.981 -49.248,-18.888c-23.771,-12.808 -98.586,-71.262 -120.007,-88.122c0,-0 31.778,-26.617 31.778,-26.617c1.67,-1.398 2.45,-3.591 2.04,-5.73c-0.41,-2.138 -1.947,-3.887 -4.015,-4.568c-0,-0 -14.045,-4.602 -17.184,-6.038c-3.012,-1.377 -6.575,-0.05 -7.952,2.961c-1.377,3.012 -0.051,6.575 2.961,7.952Z" style="fill:#000300;"/></g><g id="Lichter"><g><path d="M1894.4,976.329c0.985,-0.13 32.878,-0.25 33.669,-0.278c3.309,-0.115 5.903,-2.895 5.787,-6.205c-0.115,-3.309 -2.895,-5.903 -6.205,-5.787c-0.817,0.028 -33.801,0.239 -34.82,0.373c-3.283,0.433 -5.597,3.45 -5.164,6.733c0.433,3.283 3.45,5.597 6.733,5.164Z" style="fill:#ff0300;"/><path d="M1929.48,982.615l-0.637,0.024c-7.241,0.185 -40.516,-0.194 -41.847,0.004c-3.276,0.485 -5.541,3.539 -5.055,6.815c0.486,3.276 3.54,5.541 6.815,5.055c1.285,-0.191 33.403,0.3 40.392,0.123c2.198,-0.056 3.471,-0.527 3.696,-0.63c3.01,-1.381 4.332,-4.946 2.951,-7.956c-1.136,-2.475 -3.749,-3.809 -6.315,-3.435Z" style="fill:#ff0300;"/></g><g id="Lichter1" serif:id="Lichter"><path d="M83.217,1036.44c-5.694,3.817 -10.905,10.977 -15.342,19.453c-5.966,11.394 -10.727,25.169 -14.373,34.413c-1.216,3.081 0.299,6.568 3.379,7.783c3.081,1.215 6.568,-0.299 7.784,-3.38c3.521,-8.928 8.08,-22.246 13.841,-33.251c3.381,-6.457 7.055,-12.142 11.393,-15.05c2.751,-1.844 3.487,-5.574 1.643,-8.325c-1.844,-2.751 -5.574,-3.487 -8.325,-1.643Z" style="fill:#000300;"/><path d="M86.88,1043.28c-0.146,2.315 -0.477,41.787 -1.037,44.85c-0.596,3.258 1.566,6.386 4.823,6.982c3.258,0.595 6.386,-1.566 6.981,-4.823c0.578,-3.16 1.059,-43.866 1.21,-46.253c0.208,-3.305 -2.305,-6.158 -5.61,-6.366c-3.305,-0.209 -6.158,2.305 -6.367,5.61Z" style="fill:#fff;"/><path d="M158.107,1043.08c-0.298,3.067 -0.062,32.621 0.149,34.026c0.492,3.275 3.55,5.534 6.825,5.043c3.274,-0.492 5.534,-3.55 5.042,-6.825c-0.192,-1.283 -0.345,-28.28 -0.072,-31.082c0.321,-3.296 -2.095,-6.232 -5.391,-6.553c-3.296,-0.321 -6.232,2.095 -6.553,5.391Z" style="fill:#fff;"/></g></g><g id="Außenumriss"><path d="M1615.3,799.099l0.021,0.009l0.048,0.016l0.147,0.053l0.063,0.019l0.015,0.005l0.047,0.014l0.167,0.051l0.054,0.013l0.009,0.003l0.041,0.009l0.19,0.048l0.045,0.009l0.006,0.001l0.032,0.006l0.211,0.042l0.037,0.005l0.004,0.001l0.032,0.004l0.222,0.033l0.029,0.002l0.005,0.001l0.052,0.005l0.209,0.019l0.021,0.001l0.009,0.001l0.1,0.004l0.164,0.007l0.014,0l0.015,0.001l0.163,-0.002l0.1,-0l0.009,-0l0.022,-0.001l0.209,-0.012l0.052,-0.003l0.005,-0l0.029,-0.002l0.224,-0.024l0.031,-0.003l0.004,-0.001l0.037,-0.004l0.213,-0.034l0.032,-0.005l0.006,-0.001l0.046,-0.007l0.191,-0.041l0.041,-0.008l0.01,-0.003l0.054,-0.011l0.168,-0.045l0.048,-0.012l0.016,-0.005l0.063,-0.016l0.149,-0.048l0.048,-0.015l0.021,-0.007l0.076,-0.025c24.855,-8.662 68.42,-21.222 93.386,-29.623c2.587,-0.87 4.26,-3.377 4.072,-6.1c-0.188,-2.723 -2.191,-4.976 -4.873,-5.482c-2.125,-0.401 -135.207,-11.806 -154.848,-15.071c-1.848,-0.307 -3.733,0.266 -5.096,1.549c-1.364,1.284 -2.05,3.131 -1.856,4.994c0.91,8.7 4.712,12.548 11.114,18.737c12.796,12.373 38.696,24.987 53.951,30.922l0.074,0.027Zm2.248,-12.015c17.018,-5.84 41.679,-13.268 63.38,-19.994c-34.146,-3.066 -89.57,-8.059 -114.853,-10.961c1.036,1.058 2.232,2.129 3.541,3.394c11.273,10.899 33.657,21.818 47.932,27.561Z" style="fill:#999087;"/><path d="M550.331,936.5c-52.715,3.799 -200.459,14.224 -238.807,20.413c-70.773,11.422 -163.354,39.284 -228.126,79.411c-2.279,1.411 -3.345,4.164 -2.611,6.743c0.734,2.578 3.09,4.357 5.771,4.357l103.58,0c-9.611,9.108 -21.731,20.025 -31.303,24.884c-3.374,1.712 -13.076,3.469 -25.037,5.334c-29.574,4.611 -72.392,8.878 -74.683,8.866c-1.597,-0.009 -3.131,0.62 -4.263,1.746c-0.403,0.4 -0.743,0.852 -1.012,1.34l-0.001,-0.001l-7.67,13.798c-0.614,1.106 -0.864,2.377 -0.712,3.633l9.838,81.669c0.374,3.102 3.065,5.398 6.187,5.278l30.189,-1.157c2.179,-0.083 4.141,-1.342 5.124,-3.288c0.984,-1.945 0.835,-4.271 -0.388,-6.076c-13.291,-19.591 -28.634,-55.369 -36.828,-77.573c-0.134,-0.363 -0.299,-0.705 -0.493,-1.024l3.544,-6.376c0.157,-0.076 0.311,-0.167 0.462,-0.274c11.909,-1.057 47.041,-4.726 72.555,-8.704c13.712,-2.138 24.752,-4.528 28.619,-6.491c14.672,-7.448 35.172,-28.091 44.947,-37.193c1.804,-1.68 2.397,-4.293 1.494,-6.588c-0.902,-2.294 -3.117,-3.803 -5.583,-3.803l-96.204,0c61.72,-33.373 141.851,-56.551 204.516,-66.664c38.265,-6.176 185.937,-16.556 238.116,-20.317c0.779,0.216 1,-0.009 1.045,-0.075l0.443,-0.032l-0.432,0.016c0,-0 1.368,-0.547 2.867,-1.498l-0.006,0.556c12.365,-7.278 68.564,-45.119 127.919,-80.184c63.216,-37.347 129.908,-72.068 147.039,-79.86c35.554,-16.174 75.039,-26.731 113.763,-33.645c74.907,-12.216 158.169,-16.197 233.327,-15.438c120.199,1.215 303.44,4.337 355.953,14.727c2.583,7.502 7.224,16.442 12.754,23.925c4.899,6.63 10.53,12.082 15.922,14.805c58.603,29.598 180.667,93.713 243.183,129.621c1.044,0.6 2.245,0.872 3.446,0.78c5.844,-0.447 47.491,-2.001 57.247,-2.361c7.283,3.864 22.274,15.126 33.816,23.941c-6.888,-0.052 -13.223,-0.155 -13.223,-0.155c-2.321,-0.037 -4.456,1.268 -5.48,3.352c-0,-0 -27.688,56.351 -29.362,59.963c-0.028,0.048 -0.053,0.102 -0.077,0.162l0.077,-0.162c1.326,-2.484 5.475,8.436 5.475,8.436c-0.03,0 -0.061,-0 -0.092,-0.001c-0,0 56.926,0.755 73.899,0.259c2.18,3.189 5.058,7.103 6.676,9.28c0,-0 -0.942,62.989 -0.942,62.989c-10.583,2.56 -36.35,8.782 -39.83,9.529c-3.238,0.695 -5.302,3.888 -4.607,7.125c0.694,3.238 3.887,5.303 7.125,4.608c4.426,-0.95 44.654,-10.692 44.654,-10.692c2.66,-0.644 4.546,-3.006 4.587,-5.742l1.043,-69.682c0.02,-1.336 -0.407,-2.64 -1.212,-3.706c-0,-0 -6.776,-8.948 -9.21,-12.955c-1.347,-2.219 -3.968,-3.32 -6.496,-2.728c-3.225,0.755 -46.601,0.173 -66.108,-0.13c6.427,-13.145 18.972,-38.659 23.493,-47.853c5.93,0.077 17.32,0.198 23.354,0.079c3.012,-0.059 5.081,-0.346 5.58,-0.506c2.157,-0.691 3.741,-2.538 4.095,-4.775c0.355,-2.237 -0.581,-4.483 -2.418,-5.807c-7.497,-5.402 -40.467,-31.428 -50.976,-36.32c-0.86,-0.4 -1.803,-0.591 -2.751,-0.557c-5.111,0.187 -46.564,1.725 -57.372,2.326c-63.113,-36.154 -183.929,-99.607 -242.184,-129.029c-4.018,-2.029 -8.031,-6.286 -11.681,-11.225c-5.883,-7.96 -10.697,-17.807 -12.249,-24.805c-0.678,-3.061 -3.6,-5.083 -6.704,-4.641c-0.751,0.107 -1.452,0.35 -2.079,0.702c-54.518,-10.28 -237.105,-13.562 -357.205,-14.776c-75.834,-0.766 -159.847,3.272 -235.425,15.601c-0.029,0.005 -0.058,0.01 -0.088,0.015c-39.715,7.088 -80.202,17.955 -116.667,34.543c-17.261,7.852 -84.474,42.819 -148.174,80.451c-57.947,34.233 -112.885,71.113 -126.953,79.606Zm-488.407,206.89l4.624,38.378c-0,0 14.309,-0.548 14.309,-0.548c-6.426,-10.975 -13.04,-24.543 -18.933,-37.83Z" style="fill:#999087;"/></g></g><g><g><g><g><circle cx="1653.96" cy="1240.62" r="116.171" style="fill:none;stroke:#89909a;stroke-width:4.5px;"/><g><path d="M1572.61,1222.84c-5.456,-13.629 -12.434,-27.234 -17.931,-40.84c-0.298,-0.737 -1.138,-1.093 -1.875,-0.796c-0.737,0.298 -1.093,1.138 -0.796,1.875c5.497,13.604 12.473,27.205 17.929,40.831c0.295,0.738 1.134,1.097 1.872,0.802c0.737,-0.296 1.097,-1.134 0.801,-1.872Z" style="fill:#89909a;"/><path d="M1611.39,1169.97c6.101,-13.359 12.004,-26.784 17.993,-40.195c0.324,-0.726 -0.002,-1.578 -0.728,-1.902c-0.726,-0.324 -1.578,0.002 -1.902,0.727c-5.986,13.404 -11.885,26.822 -17.983,40.174c-0.33,0.723 -0.011,1.578 0.712,1.908c0.723,0.33 1.578,0.011 1.908,-0.712Z" style="fill:#89909a;"/><path d="M1679.84,1161.44c9.89,-3.687 37.985,-12.657 42.02,-13.656c0.771,-0.191 1.242,-0.973 1.051,-1.744c-0.191,-0.772 -0.972,-1.243 -1.744,-1.052c-4.064,1.007 -32.37,10.04 -42.333,13.754c-0.745,0.277 -1.124,1.107 -0.846,1.852c0.278,0.745 1.107,1.124 1.852,0.846Z" style="fill:#89909a;"/><path d="M1705.77,1179.78c8.341,0.491 40.062,1.774 47.484,2.735c0.789,0.102 1.511,-0.455 1.613,-1.243c0.102,-0.789 -0.455,-1.511 -1.243,-1.613c-7.453,-0.965 -39.308,-2.261 -47.685,-2.754c-0.793,-0.047 -1.475,0.559 -1.522,1.353c-0.047,0.793 0.56,1.475 1.353,1.522Z" style="fill:#89909a;"/><path d="M1728.15,1206.29c0.28,0.145 1.897,0.988 3.911,2.099c9.37,5.167 31.38,17.667 35.869,19.912c0.77,0.385 1.279,0.496 1.396,0.499c0.598,0.016 0.935,-0.267 1.13,-0.488c0.527,-0.594 0.473,-1.505 -0.122,-2.033c-0.187,-0.166 -0.406,-0.274 -0.634,-0.326c-0.122,-0.056 -0.401,-0.186 -0.67,-0.323c-5.58,-2.837 -32.763,-18.321 -38.689,-21.454c-0.932,-0.493 -1.527,-0.697 -1.633,-0.71c-0.573,-0.068 -0.916,0.169 -1.104,0.326c-0.304,0.254 -0.481,0.582 -0.514,0.993c-0.056,0.703 0.403,1.328 1.06,1.505Zm40.35,19.926c-0.075,0.057 -0.141,0.12 -0.199,0.185c0.062,-0.069 0.128,-0.131 0.199,-0.185Zm0.024,-0.019l-0.006,0.005l0.029,-0.021l-0.023,0.016Zm0.066,-0.045l-0.006,0.004l0.018,-0.012l-0.012,0.008Zm0.071,-0.043l-0.003,0.001l0.005,-0.002l-0.002,0.001Zm-38.708,-21.02c-0.056,0.428 -0.298,0.791 -0.637,1.014c0.382,-0.239 0.585,-0.583 0.637,-1.014Z" style="fill:#89909a;"/><path d="M1735.13,1238.82c3.039,4.557 22.547,27.719 28.813,36.48c0.463,0.646 1.363,0.796 2.009,0.333c0.647,-0.462 0.796,-1.362 0.334,-2.009c-6.254,-8.742 -25.727,-31.854 -28.76,-36.401c-0.441,-0.662 -1.335,-0.84 -1.997,-0.399c-0.661,0.44 -0.84,1.335 -0.399,1.996Z" style="fill:#89909a;"/><path d="M1727.69,1273.64c0.029,0.102 0.12,0.415 0.225,0.792c1.586,5.71 9.611,35.836 11.335,42.28c0.195,0.728 0.31,1.158 0.329,1.225c0.158,0.56 0.482,0.736 0.494,0.746c0.612,0.485 1.169,0.364 1.59,0.132c0.068,-0.038 0.928,-0.451 0.718,-1.535c-0.008,-0.043 -0.018,-0.085 -0.031,-0.126l0.001,-0c-0,-0 -0.13,-0.481 -0.319,-1.186c-1.725,-6.448 -9.755,-36.593 -11.342,-42.306c-0.202,-0.729 -0.344,-1.139 -0.365,-1.184c-0.263,-0.533 -0.65,-0.663 -0.786,-0.714c-0.5,-0.189 -0.937,-0.103 -1.319,0.157c-0.169,0.114 -0.637,0.427 -0.63,1.205c0.001,0.181 0.037,0.354 0.1,0.514Zm12.561,42.665c-0.144,0.077 -0.858,0.484 -0.71,1.448c-0.083,-0.593 0.211,-1.162 0.71,-1.448Zm1.592,0.106l0.02,0.016l-0.001,-0.001l-0.019,-0.015Zm-0.019,-0.014c-0.313,-0.232 -0.718,-0.337 -1.131,-0.257c-0.121,0.024 -0.237,0.062 -0.344,0.113c0.402,-0.2 0.915,-0.28 1.475,0.144Zm-13.585,-42.081c0.23,0.153 0.507,0.24 0.803,0.237c0.156,-0.001 0.306,-0.027 0.446,-0.074c-0.351,0.128 -0.786,0.161 -1.249,-0.163Zm1.485,0.059c0.261,-0.132 0.753,-0.459 0.746,-1.274c0.004,0.548 -0.298,1.027 -0.746,1.274Z" style="fill:#89909a;"/><path d="M1704.48,1346.77l0.147,-1.142c0.811,-6.228 4.616,-34.999 5.515,-40.637c0.049,-0.307 0.105,-0.613 0.126,-0.728c0.249,-0.735 -0.133,-1.54 -0.865,-1.811c-0.385,-0.142 -0.802,-0.145 -1.237,0.114c-0.142,0.084 -0.394,0.25 -0.574,0.637c-0.037,0.078 -0.167,0.539 -0.294,1.334c-0.901,5.65 -4.714,34.478 -5.527,40.72c-0.092,0.708 -0.147,1.132 -0.155,1.206c-0.036,0.327 0.029,0.502 0.033,0.52c0.229,0.916 0.916,1.052 1.262,1.085c0.318,0.03 0.975,0.036 1.401,-0.747c0.095,-0.176 0.15,-0.363 0.168,-0.551Zm5.084,-41.687c-0.347,0.178 -0.764,0.217 -1.158,0.071c0.361,0.133 0.751,0.144 1.158,-0.071Z" style="fill:#89909a;"/><path d="M1655.27,1357.37c0.081,-0.128 0.268,-0.422 0.472,-0.729c3.862,-5.822 25.151,-36.512 25.335,-36.774c0.456,-0.651 0.299,-1.55 -0.351,-2.006c-0.651,-0.457 -1.549,-0.3 -2.006,0.35c-0.185,0.263 -21.509,31.006 -25.378,36.837c-0.417,0.63 -0.654,1.025 -0.699,1.122c-0.148,0.321 -0.141,0.557 -0.138,0.662c0.019,0.65 0.363,0.992 0.696,1.193c0.237,0.143 0.886,0.499 1.65,-0.111c0.188,-0.15 0.328,-0.337 0.419,-0.544Zm-0.689,-1.877c0.267,0.119 0.487,0.31 0.633,0.601c-0.038,-0.07 -0.084,-0.139 -0.136,-0.204c-0.138,-0.173 -0.309,-0.306 -0.497,-0.397Zm-0.471,-0.135c-0.245,-0.038 -0.632,-0.033 -1.056,0.305c0.31,-0.247 0.691,-0.346 1.056,-0.305Zm0.441,0.121l0,0l-0,0Z" style="fill:#89909a;"/><path d="M1644.18,1321.18c-0.057,0.036 -0.449,0.289 -0.998,0.64c-5.547,3.544 -31.386,19.949 -36.588,23.066c-0.293,0.176 -0.593,0.347 -0.697,0.406c-0.103,0.039 -0.202,0.092 -0.296,0.157c-0.654,0.453 -0.817,1.351 -0.364,2.004c0.16,0.231 0.638,0.849 1.609,0.559c0.089,-0.027 0.529,-0.236 1.229,-0.656c5.211,-3.123 31.1,-19.558 36.658,-23.109c0.639,-0.408 1.018,-0.652 1.079,-0.694c0.279,-0.191 0.372,-0.364 0.388,-0.388c0.402,-0.595 0.249,-1.091 0.138,-1.359c-0.141,-0.34 -0.389,-0.628 -0.809,-0.791c-0.145,-0.056 -0.483,-0.191 -0.984,-0.021c-0.134,0.045 -0.256,0.108 -0.365,0.186Zm-37.424,24.053c0.333,0.079 0.639,0.277 0.848,0.58c-0.172,-0.249 -0.43,-0.484 -0.848,-0.58Zm37.73,-21.533l0.001,0c0.137,0.053 0.449,0.178 0.909,0.044c-0.31,0.087 -0.628,0.065 -0.91,-0.044Z" style="fill:#89909a;"/><path d="M1537.98,1228.69c0.183,0.146 1.481,1.193 2.875,2.453c7.3,6.6 24.385,23.217 28.53,26.99c0.757,0.689 1.273,1.017 1.375,1.054c0.488,0.18 0.85,0.069 1.066,-0.022c0.343,-0.144 0.59,-0.383 0.747,-0.713c0.324,-0.684 0.061,-1.497 -0.587,-1.866c-0.113,-0.096 -0.391,-0.336 -0.663,-0.583c-4.145,-3.774 -21.234,-20.395 -28.537,-26.996c-1.534,-1.387 -2.662,-2.347 -3.183,-2.699c-0.382,-0.259 -0.684,-0.343 -0.836,-0.368c-0.785,-0.129 -1.526,0.404 -1.654,1.189c-0.109,0.671 0.265,1.31 0.867,1.561Zm33.243,27.706c-0.672,0.001 -1.041,0.375 -1.253,0.822c0.239,-0.503 0.732,-0.804 1.253,-0.822Z" style="fill:#89909a;"/><path d="M1584.88,1287.26c-0.237,-0.05 -2.026,-0.431 -4.089,-0.942c-10.282,-2.545 -35.101,-9.186 -36.319,-9.684c-0.736,-0.301 -1.577,0.052 -1.878,0.788c-0.301,0.735 0.052,1.577 0.788,1.878c1.386,0.566 32.978,9.022 39.864,10.567c0.697,0.156 1.172,0.244 1.38,0.265c0.28,0.027 0.469,-0.008 0.566,-0.031c0.774,-0.184 1.252,-0.961 1.068,-1.735c-0.156,-0.654 -0.736,-1.097 -1.38,-1.106Z" style="fill:#89909a;"/><path d="M1564.36,1316.02c4.941,0.114 44.872,0.037 47.579,0.077c0.794,0.011 1.449,-0.624 1.461,-1.419c0.011,-0.795 -0.625,-1.449 -1.419,-1.461c-2.706,-0.039 -42.616,0.038 -47.555,-0.076c-0.794,-0.019 -1.454,0.612 -1.473,1.406c-0.018,0.795 0.612,1.455 1.407,1.473Z" style="fill:#89909a;"/><path d="M1643.99,1158.73c6.894,-6.236 30.299,-26.493 34.977,-30.537c0.601,-0.519 0.668,-1.429 0.148,-2.031c-0.52,-0.601 -1.43,-0.667 -2.031,-0.147c-4.685,4.049 -28.123,24.334 -35.026,30.58c-0.59,0.533 -0.635,1.444 -0.102,2.034c0.533,0.589 1.444,0.635 2.034,0.101Z" style="fill:#89909a;"/><path d="M1583.43,1147.37c0.002,0.095 0.013,0.533 0.023,1.047c0.111,6.123 0.483,34.88 0.687,40.559c0.028,0.763 0.085,1.214 0.107,1.296c0.302,1.097 1.216,1.086 1.509,1.063c0.792,-0.064 1.384,-0.758 1.32,-1.55c-0.004,-0.054 -0.011,-0.106 -0.021,-0.157c-0.007,-0.112 -0.025,-0.434 -0.036,-0.755c-0.205,-5.673 -0.576,-34.393 -0.687,-40.508c-0.013,-0.742 -0.026,-1.179 -0.032,-1.243c-0.066,-0.731 -0.515,-0.987 -0.574,-1.031c-0.53,-0.395 -1.059,-0.394 -1.581,-0.094c-0.154,0.089 -0.531,0.302 -0.679,0.905c-0.039,0.157 -0.05,0.315 -0.036,0.468Zm3.195,41.479c-0.357,-0.343 -0.749,-0.413 -1.099,-0.385c0.42,-0.034 0.813,0.117 1.099,0.385Zm-1.023,-40.367l-0.019,0.01l0.001,0l0.018,-0.01Zm0.638,-0.811c-0.107,0.347 -0.336,0.627 -0.628,0.805c0.16,-0.093 0.478,-0.298 0.628,-0.805Z" style="fill:#89909a;"/></g></g><circle cx="1655.28" cy="1240.62" r="140" style="fill:none;stroke:#000;stroke-width:32px;"/><g><path d="M1849.29,1174.29c-3.617,-27.709 -18.223,-42.684 -37.613,-69.318c-30.469,-41.852 -82.866,-77.064 -153.424,-77.064c-62.619,-0 -122.043,27.622 -160.928,72.707c-32.225,37.365 -41.11,59.402 -47.992,101.695c6.657,-41.485 15.748,-64.67 47.992,-101.695c37.855,-43.467 100.515,-75.619 160.928,-72.707c102.36,4.934 152.275,57.785 187.116,128.532c4.433,9.002 3.01,8.607 3.921,17.85Z" style="fill:none;stroke:#89909a;stroke-width:32px;"/><g><path d="M1553.47,1075.83c18.077,-18.974 57.62,-56.927 59.27,-58.391c0.413,-0.366 0.451,-0.999 0.084,-1.412c-0.366,-0.413 -0.999,-0.451 -1.411,-0.084c-1.654,1.467 -41.277,39.495 -59.391,58.508c-0.381,0.399 -0.365,1.033 0.034,1.414c0.4,0.38 1.033,0.365 1.414,-0.035Z"/><path d="M1642.24,1047.83c11.723,-5.075 57.652,-23.364 68.664,-28.016c0.508,-0.215 0.747,-0.802 0.532,-1.311c-0.215,-0.508 -0.802,-0.746 -1.31,-0.532c-11.015,4.654 -56.955,22.947 -68.68,28.023c-0.507,0.22 -0.74,0.809 -0.521,1.315c0.22,0.507 0.809,0.74 1.315,0.521Z"/><path d="M1503.11,1122.48c2.872,-19.674 8.389,-38.944 11.387,-58.623c0.083,-0.546 -0.293,-1.056 -0.838,-1.139c-0.546,-0.083 -1.056,0.292 -1.139,0.838c-2.999,19.683 -8.517,38.957 -11.389,58.635c-0.08,0.546 0.299,1.054 0.845,1.134c0.546,0.08 1.054,-0.299 1.134,-0.845Z"/><path d="M1729.23,1059.2c12.153,1.129 57.22,7.89 70.29,9.398c0.549,0.063 1.045,-0.33 1.108,-0.879c0.064,-0.548 -0.33,-1.044 -0.878,-1.108c-13.079,-1.509 -58.175,-8.273 -70.335,-9.403c-0.55,-0.051 -1.037,0.354 -1.088,0.904c-0.051,0.549 0.353,1.037 0.903,1.088Z"/><path d="M1795.49,1109.53c10.177,6.119 51.179,29.033 61.33,34.901c0.478,0.277 1.09,0.113 1.367,-0.365c0.276,-0.478 0.112,-1.09 -0.366,-1.366c-10.147,-5.866 -51.128,-28.768 -61.3,-34.884c-0.473,-0.284 -1.088,-0.131 -1.373,0.342c-0.284,0.473 -0.131,1.088 0.342,1.372Z"/><path d="M1472.22,1173.98c-3.362,-10.113 -12.15,-36.782 -14.666,-43.27c-0.199,-0.514 -0.779,-0.77 -1.293,-0.571c-0.515,0.2 -0.771,0.78 -0.571,1.294c2.51,6.474 11.277,33.087 14.632,43.178c0.175,0.524 0.741,0.807 1.265,0.633c0.524,-0.174 0.807,-0.74 0.633,-1.264Z"/></g></g></g><g><path d="M1906.97,1128.63l13.69,-3.797" style="fill:none;stroke:#000;stroke-width:2px;"/><path d="M1904.45,1138.42l18.809,-5.282" style="fill:none;stroke:#000;stroke-width:2px;"/><path d="M1900.98,1147.61l24.339,-5.893" style="fill:none;stroke:#000;stroke-width:2px;"/><path d="M1896.62,1156.7l30.911,-6.804" style="fill:none;stroke:#000;stroke-width:2px;"/><path d="M1894.59,1165.55l36.321,-8.847" style="fill:none;stroke:#000;stroke-width:2px;"/></g><path d="M1872.88,1174.92c-7.676,1.283 -14.491,2.19 -19.475,2.44c-3.307,0.165 -5.858,2.985 -5.692,6.293c0.166,3.307 2.986,5.857 6.293,5.692c5.938,-0.298 14.413,-1.5 23.868,-3.157c0.383,-0.029 0.76,-0.095 1.126,-0.196c29.769,-5.278 68.475,-14.803 68.475,-14.803c1.676,-0.414 3.092,-1.529 3.887,-3.061c0.796,-1.533 0.892,-3.333 0.265,-4.942l-21.039,-54.008c-1.073,-2.753 -3.99,-4.316 -6.876,-3.683l-25.07,5.496c-2.014,0.441 -3.66,1.885 -4.359,3.825c-0,-0 -15.889,44.051 -21.403,60.104Zm13.558,-2.46c19.612,-3.793 40.98,-8.785 51.518,-11.309c-4.269,-10.96 -12.893,-33.097 -16.687,-42.836c0,0 -16.821,3.688 -16.821,3.688c-3.216,8.93 -12.581,34.969 -18.01,50.457Z" style="fill:#89909a;"/><path d="M1837.02,1211.36c1.076,15.943 0.778,56.914 0.784,65.116c0.001,1.156 0.025,1.84 0.037,1.97c0.365,4.05 3.49,4.955 3.902,5.107c0.743,0.274 2.917,0.586 5.931,0.053c5.829,-1.03 18.306,-4.491 20.326,-4.975c34.256,-8.207 50.095,-20.363 70.656,-48.526c6.363,-8.715 14.447,-20.161 17.75,-30.604c0.386,-1.221 1.826,-9.258 1.618,-11.134c-0.333,-3.013 -2.164,-4.339 -3.197,-4.903c-0.1,-0.054 -2.323,-1.422 -5.69,-0.087c-3.394,1.345 -20.39,8.45 -29.169,11.414c-26.195,8.846 -51.419,5.344 -77.986,9.128c-3.278,0.467 -5.561,3.507 -5.094,6.786c0.032,0.223 0.076,0.442 0.132,0.655Zm107.055,-12.976c-6.584,2.664 -14.921,5.971 -20.268,7.777c-25.092,8.473 -49.292,6.146 -74.57,8.94c0.665,15.324 0.611,42.569 0.579,55.553l15.388,-3.693c30.945,-7.413 45.187,-18.491 63.76,-43.932c5.162,-7.07 11.755,-16.067 15.111,-24.645Z" style="fill:#89909a;"/></g><path d="M551.623,1305.11l0.357,0.378l0.131,0.134l0.027,0c0.075,0 0.149,-0.001 0.224,-0.004c7.302,-0.272 735.879,-4.035 881.543,-3.792c12.315,0.021 21.56,0.144 23.918,0.178c0.597,0.105 1.183,0.103 1.736,0.043c0.473,-0.035 0.936,-0.127 1.382,-0.272c0.852,-0.251 1.877,-0.748 2.725,-1.821c0.95,-1.115 1.462,-2.544 1.43,-4.018c-0.001,-0.056 -0.009,-0.196 -0.036,-0.397c0.016,-0.26 0.026,-0.538 0.029,-0.833c0.091,-8.698 -0.598,-53.715 -0.857,-55.487l-0.474,0.547c-0.27,-2.345 -1.462,-5.591 -5.806,-5.672c-1.589,-0.03 -10.378,0.127 -25.049,0.446c-144.761,3.145 -867.787,21.728 -880.935,22.203c-3.177,-0.083 -5.895,2.348 -6.135,5.551c-0.447,5.99 0.481,33.013 0.285,37.036l5.505,5.78Zm900.91,-58.939c-4.362,0.069 -11.184,0.189 -19.369,0.366c-138.733,3.014 -808.732,20.209 -875.484,22.045c-0.003,6.96 0.281,17.91 0.4,24.981c71.462,-0.571 737.274,-3.969 875.845,-3.737c8.355,0.014 14.824,0.045 19.168,0.09c-0.041,-10.864 -0.33,-33.48 -0.56,-43.745Zm6.748,43.874l0.462,0.046l0.008,0.001c0.183,0.012 0.36,0.026 0.532,0.044c-0.339,-0.063 -0.674,-0.091 -1.002,-0.091Zm-0.986,-43.959l4.475,-5.177l-5.181,-6.489l0.706,11.666Zm-5.908,-4.142l0.031,0.088l-0,-0.003l-0.053,-0.158l0.022,0.073Zm-0.056,-3.484c-0.328,1.119 -0.316,2.229 0.01,3.33c-0.315,-1.074 -0.325,-2.229 -0.01,-3.33Zm0.003,-0.013l0.117,-0.362c-0.043,0.121 -0.082,0.241 -0.117,0.362Z" style="fill:#89909a;"/><g><path d="M753.113,1207.15l492.417,-23.472" style="fill:none;stroke:#000;stroke-width:2px;"/><path d="M766.965,1215.88l530.919,-24.337" style="fill:none;stroke:#000;stroke-width:2px;"/><path d="M780.279,1222.32l551.562,-23.668" style="fill:none;stroke:#000;stroke-width:2px;"/></g><path d="M1445.31,1218.21c0.473,-0.001 0.954,-0.06 1.431,-0.181l0.283,-0.077c0.094,-0.031 0.187,-0.062 0.281,-0.093l0.09,-0.035l0.067,-0.023l0.073,-0.031l0.044,-0.017l0.095,-0.042c0.848,-0.36 1.427,-0.838 1.839,-1.248l0.023,-0.027c1.138,-1.144 1.813,-2.742 1.74,-4.48c-0.025,-0.588 -0.134,-1.153 -0.316,-1.683c-0.342,-1.584 -1.441,-3.053 -3.979,-3.823l-0.12,-0.03l-0.04,-0.011l-0.182,-0.044c-0.786,-0.192 -2.751,-0.623 -5.714,-1.236c-29.568,-6.116 -167.708,-33.57 -195.335,-38.345c-1.797,-0.311 -3.235,-0.514 -4.274,-0.636c-0.354,-0.083 -0.736,-0.143 -1.15,-0.175c-1.003,-0.079 -6.329,0.043 -15.188,0.392c-84.652,3.338 -506.926,25.27 -512.906,26.629c-0.159,0.036 -0.318,0.079 -0.474,0.128c-33.318,10.504 -64.3,26.339 -97.161,38.014c-2.874,1.022 -4.525,4.036 -3.837,7.007c0.688,2.972 3.495,4.954 6.526,4.609c2.285,-0.261 812.568,-24.053 828.184,-24.542Zm-206.399,-40.267c-1.305,0.025 -6.528,0.14 -13.46,0.413c-83.783,3.304 -499.721,24.726 -510.567,26.313c-21.965,6.95 -42.911,16.224 -64.064,25.065c130.352,-3.943 587.48,-17.408 742.404,-21.984c-52.605,-10.506 -129.801,-25.706 -149.678,-29.141c-1.646,-0.285 -3.317,-0.535 -3.809,-0.607l-0.193,0c-0.135,-0.009 -0.269,-0.019 -0.404,-0.028l-0.229,-0.031Zm0.998,0.06c0.078,0.015 0.29,0.015 0.862,-0.083c-0.288,0.049 -0.576,0.077 -0.862,0.083Zm-2.014,-11.74c-2.413,0.7 -3.276,2.541 -3.609,3.279c-0.166,0.37 -0.293,0.75 -0.379,1.136c-0.471,-1.868 0.342,-3.584 3.988,-4.415Z" style="fill:#89909a;"/><g><g><g><circle cx="357.035" cy="1240.62" r="116.171" style="fill:none;stroke:#89909a;stroke-width:4.5px;"/><g><path d="M275.687,1222.84c-5.456,-13.629 -12.433,-27.234 -17.931,-40.84c-0.298,-0.737 -1.138,-1.093 -1.875,-0.796c-0.737,0.298 -1.093,1.138 -0.795,1.875c5.496,13.604 12.472,27.205 17.928,40.831c0.295,0.738 1.134,1.097 1.872,0.802c0.738,-0.296 1.097,-1.134 0.801,-1.872Z" style="fill:#89909a;"/><path d="M314.474,1169.97c6.101,-13.359 12.004,-26.784 17.993,-40.195c0.324,-0.726 -0.002,-1.578 -0.728,-1.902c-0.725,-0.324 -1.578,0.002 -1.902,0.727c-5.986,13.404 -11.885,26.822 -17.982,40.174c-0.331,0.723 -0.012,1.578 0.711,1.908c0.723,0.33 1.578,0.011 1.908,-0.712Z" style="fill:#89909a;"/><path d="M382.92,1161.44c9.89,-3.687 37.985,-12.657 42.02,-13.656c0.771,-0.191 1.242,-0.973 1.051,-1.744c-0.191,-0.772 -0.972,-1.243 -1.744,-1.052c-4.064,1.007 -32.369,10.04 -42.333,13.754c-0.744,0.277 -1.124,1.107 -0.846,1.852c0.278,0.745 1.108,1.124 1.852,0.846Z" style="fill:#89909a;"/><path d="M408.848,1179.78c8.342,0.491 40.063,1.774 47.485,2.735c0.788,0.102 1.511,-0.455 1.613,-1.243c0.102,-0.789 -0.455,-1.511 -1.244,-1.613c-7.453,-0.965 -39.308,-2.261 -47.684,-2.754c-0.794,-0.047 -1.476,0.559 -1.523,1.353c-0.046,0.793 0.56,1.475 1.353,1.522Z" style="fill:#89909a;"/><path d="M431.227,1206.29c0.28,0.145 1.897,0.988 3.911,2.099c9.37,5.167 31.38,17.667 35.869,19.912c0.77,0.385 1.279,0.496 1.396,0.499c0.599,0.016 0.935,-0.267 1.13,-0.488c0.528,-0.594 0.473,-1.505 -0.122,-2.033c-0.187,-0.166 -0.406,-0.274 -0.634,-0.326c-0.122,-0.056 -0.401,-0.186 -0.67,-0.323c-5.58,-2.837 -32.763,-18.321 -38.688,-21.454c-0.933,-0.493 -1.527,-0.697 -1.633,-0.71c-0.574,-0.068 -0.917,0.169 -1.104,0.326c-0.305,0.254 -0.482,0.582 -0.515,0.993c-0.056,0.703 0.403,1.328 1.06,1.505Zm40.35,19.926c-0.075,0.057 -0.14,0.12 -0.198,0.185c0.061,-0.069 0.127,-0.131 0.198,-0.185Zm0.025,-0.019l-0.007,0.005l0.029,-0.021l-0.022,0.016Zm0.066,-0.045l-0.007,0.004l0.018,-0.012l-0.011,0.008Zm0.07,-0.043l-0.002,0.001l0.004,-0.002l-0.002,0.001Zm-38.708,-21.02c-0.056,0.428 -0.298,0.791 -0.637,1.014c0.383,-0.239 0.586,-0.583 0.637,-1.014Z" style="fill:#89909a;"/><path d="M438.208,1238.82c3.039,4.557 22.547,27.719 28.814,36.48c0.462,0.646 1.362,0.796 2.009,0.333c0.646,-0.462 0.795,-1.362 0.333,-2.009c-6.253,-8.742 -25.727,-31.854 -28.76,-36.401c-0.44,-0.662 -1.335,-0.84 -1.996,-0.399c-0.662,0.44 -0.841,1.335 -0.4,1.996Z" style="fill:#89909a;"/><path d="M430.77,1273.64c0.03,0.102 0.121,0.415 0.225,0.792c1.586,5.71 9.611,35.836 11.335,42.28c0.195,0.728 0.311,1.158 0.329,1.225c0.159,0.56 0.482,0.736 0.494,0.746c0.612,0.485 1.169,0.364 1.59,0.132c0.069,-0.038 0.928,-0.451 0.718,-1.535c-0.008,-0.043 -0.018,-0.085 -0.03,-0.126l-0,-0c-0,-0 -0.13,-0.481 -0.319,-1.186c-1.725,-6.448 -9.755,-36.593 -11.342,-42.306c-0.202,-0.729 -0.343,-1.139 -0.365,-1.184c-0.263,-0.533 -0.65,-0.663 -0.785,-0.714c-0.501,-0.189 -0.938,-0.103 -1.32,0.157c-0.168,0.114 -0.637,0.427 -0.63,1.205c0.002,0.181 0.037,0.354 0.1,0.514Zm12.561,42.665c-0.144,0.077 -0.858,0.484 -0.709,1.448c-0.084,-0.593 0.211,-1.162 0.709,-1.448Zm1.592,0.106l0.02,0.016l-0.001,-0.001l-0.019,-0.015Zm-0.018,-0.014c-0.313,-0.232 -0.719,-0.337 -1.131,-0.257c-0.122,0.024 -0.237,0.062 -0.345,0.113c0.402,-0.2 0.915,-0.28 1.476,0.144Zm-13.586,-42.081c0.23,0.153 0.507,0.24 0.803,0.237c0.156,-0.001 0.306,-0.027 0.446,-0.074c-0.35,0.128 -0.786,0.161 -1.249,-0.163Zm1.485,0.059c0.262,-0.132 0.753,-0.459 0.746,-1.274c0.005,0.548 -0.297,1.027 -0.746,1.274Z" style="fill:#89909a;"/><path d="M407.559,1346.77l0.147,-1.142c0.811,-6.228 4.617,-34.999 5.515,-40.637c0.049,-0.307 0.105,-0.613 0.127,-0.728c0.248,-0.735 -0.133,-1.54 -0.866,-1.811c-0.385,-0.142 -0.801,-0.145 -1.236,0.114c-0.143,0.084 -0.395,0.25 -0.575,0.637c-0.037,0.078 -0.167,0.539 -0.294,1.334c-0.9,5.65 -4.714,34.478 -5.527,40.72c-0.092,0.708 -0.146,1.132 -0.155,1.206c-0.036,0.327 0.029,0.502 0.034,0.52c0.228,0.916 0.915,1.052 1.261,1.085c0.318,0.03 0.976,0.036 1.401,-0.747c0.096,-0.176 0.151,-0.363 0.168,-0.551Zm5.084,-41.687c-0.347,0.178 -0.764,0.217 -1.158,0.071c0.361,0.133 0.751,0.144 1.158,-0.071Z" style="fill:#89909a;"/><path d="M358.352,1357.37c0.081,-0.128 0.269,-0.422 0.473,-0.729c3.862,-5.822 25.15,-36.512 25.334,-36.774c0.457,-0.651 0.299,-1.55 -0.351,-2.006c-0.65,-0.457 -1.549,-0.3 -2.006,0.35c-0.184,0.263 -21.509,31.006 -25.377,36.837c-0.418,0.63 -0.655,1.025 -0.7,1.122c-0.148,0.321 -0.141,0.557 -0.138,0.662c0.019,0.65 0.364,0.992 0.697,1.193c0.236,0.143 0.886,0.499 1.649,-0.111c0.188,-0.15 0.329,-0.337 0.419,-0.544Zm-0.689,-1.877c0.267,0.119 0.487,0.31 0.633,0.601c-0.038,-0.07 -0.084,-0.139 -0.136,-0.204c-0.138,-0.173 -0.309,-0.306 -0.497,-0.397Zm-0.471,-0.135c-0.245,-0.038 -0.631,-0.033 -1.055,0.305c0.309,-0.247 0.69,-0.346 1.055,-0.305Zm0.441,0.121l0,0l-0,0Z" style="fill:#89909a;"/><path d="M347.259,1321.18c-0.057,0.036 -0.449,0.289 -0.998,0.64c-5.547,3.544 -31.386,19.949 -36.587,23.066c-0.294,0.176 -0.593,0.347 -0.698,0.406c-0.103,0.039 -0.202,0.092 -0.296,0.157c-0.653,0.453 -0.816,1.351 -0.364,2.004c0.16,0.231 0.638,0.849 1.609,0.559c0.09,-0.027 0.529,-0.236 1.229,-0.656c5.211,-3.123 31.101,-19.558 36.658,-23.109c0.639,-0.408 1.018,-0.652 1.079,-0.694c0.279,-0.191 0.372,-0.364 0.389,-0.388c0.402,-0.595 0.248,-1.091 0.137,-1.359c-0.141,-0.34 -0.389,-0.628 -0.809,-0.791c-0.145,-0.056 -0.483,-0.191 -0.984,-0.021c-0.133,0.045 -0.256,0.108 -0.365,0.186Zm-37.424,24.053c0.333,0.079 0.639,0.277 0.849,0.58c-0.173,-0.249 -0.431,-0.484 -0.849,-0.58Zm37.731,-21.533l0,0c0.137,0.053 0.449,0.178 0.909,0.044c-0.31,0.087 -0.628,0.065 -0.909,-0.044Z" style="fill:#89909a;"/><path d="M241.06,1228.69c0.183,0.146 1.48,1.193 2.874,2.453c7.301,6.6 24.385,23.217 28.53,26.99c0.757,0.689 1.274,1.017 1.375,1.054c0.488,0.18 0.85,0.069 1.067,-0.022c0.342,-0.144 0.589,-0.383 0.746,-0.713c0.324,-0.684 0.061,-1.497 -0.586,-1.866c-0.113,-0.096 -0.392,-0.336 -0.664,-0.583c-4.145,-3.774 -21.234,-20.395 -28.536,-26.996c-1.535,-1.387 -2.663,-2.347 -3.184,-2.699c-0.382,-0.259 -0.684,-0.343 -0.836,-0.368c-0.785,-0.129 -1.525,0.404 -1.654,1.189c-0.109,0.671 0.265,1.31 0.868,1.561Zm33.242,27.706c-0.672,0.001 -1.04,0.375 -1.253,0.822c0.239,-0.503 0.732,-0.804 1.253,-0.822Z" style="fill:#89909a;"/><path d="M287.961,1287.26c-0.237,-0.05 -2.026,-0.431 -4.089,-0.942c-10.282,-2.545 -35.101,-9.186 -36.319,-9.684c-0.736,-0.301 -1.577,0.052 -1.878,0.788c-0.301,0.735 0.052,1.577 0.788,1.878c1.386,0.566 32.978,9.022 39.865,10.567c0.696,0.156 1.171,0.244 1.38,0.265c0.279,0.027 0.468,-0.008 0.566,-0.031c0.773,-0.184 1.251,-0.961 1.067,-1.735c-0.156,-0.654 -0.736,-1.097 -1.38,-1.106Z" style="fill:#89909a;"/><path d="M267.441,1316.02c4.941,0.114 44.872,0.037 47.579,0.077c0.795,0.011 1.449,-0.624 1.461,-1.419c0.011,-0.795 -0.624,-1.449 -1.419,-1.461c-2.705,-0.039 -42.616,0.038 -47.555,-0.076c-0.794,-0.019 -1.454,0.612 -1.473,1.406c-0.018,0.795 0.612,1.455 1.407,1.473Z" style="fill:#89909a;"/><path d="M347.065,1158.73c6.894,-6.236 30.299,-26.493 34.977,-30.537c0.602,-0.519 0.668,-1.429 0.148,-2.031c-0.52,-0.601 -1.43,-0.667 -2.031,-0.147c-4.685,4.049 -28.122,24.334 -35.026,30.58c-0.59,0.533 -0.635,1.444 -0.102,2.034c0.533,0.589 1.445,0.635 2.034,0.101Z" style="fill:#89909a;"/><path d="M286.506,1147.37c0.002,0.095 0.014,0.533 0.023,1.047c0.111,6.123 0.483,34.88 0.688,40.559c0.027,0.763 0.084,1.214 0.106,1.296c0.302,1.097 1.216,1.086 1.509,1.063c0.792,-0.064 1.384,-0.758 1.32,-1.55c-0.004,-0.054 -0.011,-0.106 -0.021,-0.157c-0.007,-0.112 -0.025,-0.434 -0.036,-0.755c-0.205,-5.673 -0.576,-34.393 -0.687,-40.508c-0.013,-0.742 -0.026,-1.179 -0.032,-1.243c-0.066,-0.731 -0.515,-0.987 -0.574,-1.031c-0.529,-0.395 -1.059,-0.394 -1.581,-0.094c-0.153,0.089 -0.531,0.302 -0.679,0.905c-0.039,0.157 -0.05,0.315 -0.036,0.468Zm3.195,41.479c-0.357,-0.343 -0.749,-0.413 -1.099,-0.385c0.42,-0.034 0.813,0.117 1.099,0.385Zm-1.023,-40.367l-0.019,0.01l0.001,0l0.018,-0.01Zm0.638,-0.811c-0.107,0.347 -0.336,0.627 -0.628,0.805c0.16,-0.093 0.478,-0.298 0.628,-0.805Z" style="fill:#89909a;"/></g></g><circle cx="358.356" cy="1240.62" r="140" style="fill:none;stroke:#000;stroke-width:32px;"/><g><path d="M563.284,1225.97c0,-97.306 -87.442,-198.056 -201.957,-198.056c-62.619,-0 -122.043,27.622 -160.927,72.707c-32.226,37.365 -49.614,88.156 -49.614,132.253c-0,-45.912 15.002,-94.128 49.614,-132.253c38.743,-42.676 100.444,-72.707 160.927,-72.707c101.085,-0 180.963,77.956 198.334,163.299c2.308,11.338 3.623,23.346 3.623,34.757Z" style="fill:none;stroke:#89909a;stroke-width:32px;"/><g><path d="M256.547,1075.83c18.077,-18.974 57.62,-56.927 59.27,-58.391c0.413,-0.366 0.451,-0.999 0.085,-1.412c-0.367,-0.413 -0.999,-0.451 -1.412,-0.084c-1.654,1.467 -41.277,39.495 -59.391,58.508c-0.38,0.399 -0.365,1.033 0.035,1.414c0.399,0.38 1.033,0.365 1.413,-0.035Z"/><path d="M345.322,1047.83c11.723,-5.075 57.652,-23.364 68.664,-28.016c0.509,-0.215 0.747,-0.802 0.532,-1.311c-0.215,-0.508 -0.802,-0.746 -1.31,-0.532c-11.015,4.654 -56.955,22.947 -68.68,28.023c-0.507,0.22 -0.74,0.809 -0.521,1.315c0.22,0.507 0.809,0.74 1.315,0.521Z"/><path d="M206.184,1122.48c2.872,-19.674 8.389,-38.944 11.387,-58.623c0.083,-0.546 -0.292,-1.056 -0.838,-1.139c-0.546,-0.083 -1.056,0.292 -1.139,0.838c-2.998,19.683 -8.517,38.957 -11.389,58.635c-0.079,0.546 0.299,1.054 0.845,1.134c0.547,0.08 1.055,-0.299 1.134,-0.845Z"/><path d="M432.31,1059.2c12.153,1.129 57.22,7.89 70.291,9.398c0.548,0.063 1.044,-0.33 1.108,-0.879c0.063,-0.548 -0.331,-1.044 -0.879,-1.108c-13.079,-1.509 -58.175,-8.273 -70.335,-9.403c-0.55,-0.051 -1.037,0.354 -1.088,0.904c-0.051,0.549 0.353,1.037 0.903,1.088Z"/><path d="M498.569,1109.53c10.178,6.119 51.179,29.033 61.331,34.901c0.477,0.277 1.09,0.113 1.366,-0.365c0.276,-0.478 0.112,-1.09 -0.366,-1.366c-10.146,-5.866 -51.128,-28.768 -61.3,-34.884c-0.473,-0.284 -1.088,-0.131 -1.372,0.342c-0.285,0.473 -0.132,1.088 0.341,1.372Z"/><path d="M538.694,1175.09c12.551,9.457 25.034,18.987 37.878,28.038c0.451,0.318 1.075,0.21 1.393,-0.241c0.318,-0.451 0.21,-1.076 -0.241,-1.394c-12.827,-9.038 -25.292,-18.556 -37.827,-28c-0.44,-0.332 -1.068,-0.244 -1.4,0.197c-0.332,0.44 -0.244,1.068 0.197,1.4Z"/><path d="M178.241,1180.57c-3.362,-10.111 -15.09,-43.371 -17.605,-49.858c-0.2,-0.514 -0.78,-0.77 -1.294,-0.571c-0.515,0.2 -0.771,0.78 -0.571,1.294c2.51,6.475 14.217,39.673 17.573,49.766c0.174,0.524 0.74,0.807 1.264,0.633c0.524,-0.174 0.808,-0.741 0.633,-1.264Z"/><path d="M65.352,1238.09c2.03,-0.043 46.252,0.413 47.204,0.306c0.549,-0.061 0.945,-0.556 0.883,-1.104c-0.061,-0.549 -0.556,-0.944 -1.104,-0.883c-0.949,0.106 -45.003,-0.361 -47.026,-0.318c-0.551,0.012 -0.99,0.469 -0.978,1.021c0.012,0.552 0.469,0.99 1.021,0.978Z"/></g></g></g><path d="M46.156,1266.05c0.287,0.531 0.652,1.016 1.083,1.439c1.556,1.99 3.56,4.249 5.891,6.608c9.941,10.057 25.767,22.671 31.397,24.947c3.534,1.428 12.006,2.558 22.705,3.262c22.817,1.501 56.598,1.713 69.315,3.103c2.189,0.239 4.333,-0.74 5.586,-2.551c1.253,-1.811 1.413,-4.162 0.418,-6.126c-3.021,-5.96 -10.735,-34.044 -10.735,-34.044c-0.723,-2.608 -3.103,-4.409 -5.81,-4.396c0,-0 -10.083,0.047 -24.285,0.066c-28.413,0.036 -73.471,0.001 -86.527,-0.821c-0.117,-1.58 -0.362,-5.198 -0.419,-8.518c-0.144,-8.378 0.005,-19.512 0.126,-26.236c3.369,-0.004 6.111,-0.052 6.111,-0.052c3.295,-0.057 5.927,-2.761 5.895,-6.056l-0.22,-22.981c-0,0 21.419,-0.479 21.419,-0.479c2.933,5.094 8.518,14.775 9.116,15.655c13.065,19.212 27.441,37.657 52.989,40.116c3.296,0.318 6.23,-2.101 6.547,-5.397c0.317,-3.296 -2.101,-6.23 -5.397,-6.547c-21.658,-2.085 -33.14,-18.634 -44.216,-34.921c-0.781,-1.147 -10.408,-17.968 -10.408,-17.968c-1.093,-1.907 -3.142,-3.063 -5.339,-3.014l-30.902,0.691c-3.283,0.073 -5.897,2.772 -5.866,6.056l0.22,22.898c-1.833,0.002 -3.852,-0.009 -5.693,-0.05c-3.309,-0.074 -6.052,2.545 -6.132,5.853c0,0 -0.615,25.679 -0.103,37.857c0.17,4.026 0.646,6.911 1.038,7.897c0.392,0.983 1.144,2.248 2.196,3.709Zm19.837,3.809c8.408,7.871 18.842,16.366 23.031,18.059c2.95,1.193 10.065,1.826 18.996,2.414c18.567,1.221 44.339,1.61 60.315,2.452c-2.45,-7.425 -5.249,-16.983 -6.827,-22.474c-4.283,0.015 -11.294,0.037 -19.772,0.048c-22.791,0.029 -56.075,-0.047 -75.743,-0.499Z" style="fill:#89909a;"/><g><path d="M65.787,1231.46l45.208,0.088" style="fill:none;stroke:#000;stroke-width:2px;"/><path d="M65.787,1224.74c0,0 41.122,-0.179 41.331,-0.204" style="fill:none;stroke:#000;stroke-width:2px;"/><path d="M69.602,1217.82l31.567,0" style="fill:none;stroke:#000;stroke-width:2px;"/><path d="M69.602,1211.1l27.745,-0" style="fill:none;stroke:#000;stroke-width:2px;"/><path d="M69.602,1204.38l22.628,-0" style="fill:none;stroke:#000;stroke-width:2px;"/></g></g></g></svg>