<?xml version="1.0" encoding="UTF-8" standalone="no"?>
<!DOCTYPE svg PUBLIC "-//W3C//DTD SVG 1.1//EN" "http://www.w3.org/Graphics/SVG/1.1/DTD/svg11.dtd">
<svg width="100%" height="100%" viewBox="0 0 11112 11112" version="1.1" xmlns="http://www.w3.org/2000/svg" xmlns:xlink="http://www.w3.org/1999/xlink" xml:space="preserve" xmlns:serif="http://www.serif.com/" style="fill-rule:evenodd;clip-rule:evenodd;stroke-linecap:round;stroke-linejoin:round;stroke-miterlimit:1.5;">
    <g>
        <g>
            <path d="M3414.39,5615.06C3412.98,5614.98 3411.51,5614.94 3409.96,5614.94C3392.06,5614.94 3377.36,5629.08 3376.65,5646.96C3375.95,5664.81 3389.43,5680.03 3407.22,5681.49C3581.44,5732.13 6712.91,6506.12 6880.24,6543.65C6898.19,6547.67 6916.03,6536.37 6920.06,6518.41C6924.09,6500.46 6912.78,6482.62 6894.83,6478.6C6749.2,6445.94 4352.41,5854.32 3628.92,5670.65C4655.3,5616.65 8893.34,5379.73 8939.34,5378.13C8957.72,5377.49 8972.13,5362.04 8971.49,5343.65C8970.85,5325.27 8955.4,5310.86 8937.01,5311.5C8885.32,5313.31 3532.4,5613.25 3414.39,5615.06Z" style="fill:rgb(153,144,135);"/>
            <path d="M6036.78,6549.7C6020.69,6148.99 6048.62,5550.03 6113.04,5164.31C6116.07,5146.16 6103.8,5128.97 6085.66,5125.94C6067.51,5122.91 6050.32,5135.18 6047.29,5153.32C5982.23,5542.86 5953.92,6147.72 5970.17,6552.37C5970.91,6570.75 5986.43,6585.08 6004.82,6584.34C6023.2,6583.6 6037.52,6568.08 6036.78,6549.7Z" style="fill:rgb(153,144,135);"/>
            <path d="M3307.82,6873.49C3291.75,6423.88 3263.6,6012.57 3324,5559.96C3337.6,5458.01 3342.66,5357.87 3379.16,5260.69C3385.62,5243.47 3376.89,5224.23 3359.67,5217.77C3342.45,5211.3 3323.21,5220.03 3316.74,5237.25C3278.45,5339.23 3272.19,5444.15 3257.91,5551.15C3197,6007.62 3224.98,6422.42 3241.2,6875.87C3241.86,6894.25 3257.32,6908.65 3275.7,6907.99C3294.09,6907.33 3308.48,6891.87 3307.82,6873.49Z" style="fill:rgb(153,144,135);"/>
            <path d="M8926.77,5064.49C8943.31,5082.8 9021.58,5176.88 9021.58,5176.88C9021.58,5176.88 8957.46,5313.97 8938.02,5345.07C8938.02,5345.07 8900.89,5443.38 8751.09,5755.42C8775.86,5709.59 8925.05,5371.51 8938.02,5345.07L8938.02,5344.8C8956.98,5347.62 10455.1,5328.58 10455.1,5327.41" style="fill:none;stroke:rgb(153,144,135);stroke-width:66.67px;"/>
            <path d="M1142.23,5818.92C1293.36,5806.85 1443.51,5794.44 1570.61,5788.72C1588.98,5787.89 1603.23,5772.3 1602.41,5753.92C1601.58,5735.54 1585.99,5721.29 1567.61,5722.12C1439.83,5727.87 1288.87,5740.33 1136.93,5752.46C1118.59,5753.93 1104.89,5770 1106.35,5788.34C1107.82,5806.68 1123.89,5820.38 1142.23,5818.92Z" style="fill:rgb(153,144,135);"/>
            <path d="M2940.8,5217.76C2908.33,5245.72 2746.15,5339.96 2608.37,5443.89C2475.3,5544.27 2367.37,5653.74 2296.72,5708.98C2282.23,5720.31 2279.66,5741.28 2291,5755.77C2302.33,5770.26 2323.3,5772.83 2337.79,5761.5C2408.23,5706.42 2515.82,5597.21 2648.52,5497.12C2787.77,5392.07 2951.48,5296.53 2984.3,5268.28C2998.24,5256.27 2999.81,5235.21 2987.81,5221.27C2975.8,5207.33 2954.74,5205.75 2940.8,5217.76Z" style="fill:rgb(153,144,135);"/>
        </g>
        <path id="Antenne" d="M7922.19,4100.94C7997.24,4066.44 8098.43,3994.01 8181.61,3970.77C8206.36,3963.86 8245.69,3956.06 8276.65,3950.34C8276.65,3950.34 8246.05,4003.3 8246.05,4003.3C8241.45,4011.27 8242.23,4021.24 8248.02,4028.39C8248.02,4028.39 8330.71,4130.43 8336.7,4139.89C8343.27,4150.25 8357.01,4153.32 8367.37,4146.76C8377.73,4140.19 8380.81,4126.45 8374.24,4116.09C8369.32,4108.33 8314.66,4040.28 8292.16,4012.34C8292.16,4012.34 8338.98,3931.3 8338.98,3931.3C8343.28,3923.86 8342.9,3914.6 8338.01,3907.53C8333.11,3900.47 8324.58,3896.86 8316.1,3898.26C8316.1,3898.26 8217.03,3914.73 8169.65,3927.97C8084.47,3951.77 7980.49,4025.23 7903.62,4060.56C7892.48,4065.69 7887.59,4078.89 7892.72,4090.04C7897.84,4101.18 7911.04,4106.07 7922.19,4100.94Z" style="fill:rgb(0,3,0);"/>
        <g id="Fenster---Spiegel" serif:id="Fenster &amp; Spiegel">
            <g>
                <path d="M6090.94,4159.73C6054.38,4298.07 5859.39,4980.28 5818.98,5141.61C5816,5153.5 5823.24,5165.58 5835.14,5168.56C5847.03,5171.54 5859.11,5164.3 5862.09,5152.4C5902.48,4991.18 6097.37,4309.34 6133.91,4171.08C6137.04,4159.23 6129.96,4147.06 6118.1,4143.92C6106.24,4140.79 6094.07,4147.87 6090.94,4159.73Z" style="fill:rgb(0,3,0);"/>
                <path d="M6379.63,4160.9C6338.38,4360.25 6278.18,5001.36 6266.52,5128.77C6265.41,5140.98 6274.41,5151.81 6286.63,5152.92C6298.84,5154.04 6309.67,5145.03 6310.78,5132.82C6322.38,5006.06 6382.11,4368.23 6423.15,4169.91C6425.64,4157.9 6417.9,4146.13 6405.89,4143.65C6393.88,4141.16 6382.11,4148.89 6379.63,4160.9Z" style="fill:rgb(0,3,0);"/>
                <path d="M8330.58,4544.42C8331.63,4606.82 8306.99,4953.24 8310.52,5057.6C8310.93,5069.86 8321.22,5079.48 8333.48,5079.06C8345.74,5078.65 8355.35,5068.36 8354.94,5056.1C8351.41,4951.89 8376.07,4605.98 8375.02,4543.67C8374.81,4531.41 8364.69,4521.62 8352.42,4521.83C8340.16,4522.03 8330.37,4532.16 8330.58,4544.42Z" style="fill:rgb(0,3,0);"/>
            </g>
            <path d="M3326.75,5242.31L3347.95,5271.19C3347.95,5271.19 3353.7,5275.3 3359.88,5271.01L3675.64,5266C3687.91,5265.81 3697.71,5255.69 3697.51,5243.43C3697.32,5231.17 3687.2,5221.37 3674.94,5221.56L3384.03,5226.18C3425.74,5179 3467.7,5130.7 3515.61,5090.02C3574.43,5040.08 3751.13,4934.47 3815.76,4892.54C3975.49,4788.92 4403.28,4549.14 4566.78,4472.68C4643.34,4436.87 4817.62,4352.27 4990.24,4305.53C5086.24,4279.54 5377.96,4229.65 5688.86,4207.35C6002.14,4184.88 6407.74,4181.11 6507.79,4182.16C6564.93,4182.76 7739.82,4200.9 7935.38,4237.37C7971.62,4265.44 8239.26,4473.45 8476.27,4677.48C8630.74,4810.45 8770.38,4941.85 8847.01,5016.01L4123.8,5186.87C4111.54,5187.31 4101.95,5197.62 4102.39,5209.88C4102.84,5222.14 4113.15,5231.73 4125.4,5231.28C4125.4,5231.28 8644.46,5067.81 8889.64,5058.94C8897.95,5068.09 8910.97,5082.25 8914.22,5084.77C8924.29,5092.58 8933.33,5089.45 8936.1,5088.44C8938.4,5087.6 8960.41,5073.87 8944.99,5051.78C8944,5050.35 8935.03,5041.09 8919.42,5025.56L8915.84,5021.65C8914.7,5020.36 8913.42,5019.21 8912.04,5018.24C8845.28,4952.2 8685.36,4798.82 8505.26,4643.79C8249.59,4423.71 7958.4,4198.99 7958.4,4198.99C7955.73,4196.93 7952.62,4195.5 7949.32,4194.82C7768.56,4157.47 6566.24,4138.32 6508.26,4137.72C6407.76,4136.66 6000.36,4140.44 5685.68,4163.02C5371.01,4185.59 5075.79,4236.32 4978.63,4262.63C4803.09,4310.16 4625.8,4396.01 4547.95,4432.42C4383.29,4509.43 3952.43,4750.9 3791.57,4855.26C3725.92,4897.85 3546.6,5005.41 3486.85,5056.14C3432.79,5102.04 3385.94,5157.22 3338.89,5210.11C3336.8,5212.46 3335.23,5215.23 3334.29,5218.24C3327.5,5239.92 3326.75,5242.31 3326.75,5242.31Z" style="fill:rgb(153,144,135);"/>
            <g>
                <path d="M3605.2,5065.83C3600.15,5072.53 3599.29,5081.5 3602.99,5089.03C3606.7,5096.56 3614.32,5101.36 3622.71,5101.45C3670.46,5101.93 4085.47,5097.06 4085.47,5097.06C4091.61,5096.99 4097.44,5094.38 4101.59,5089.85C4105.74,5085.32 4107.83,5079.28 4107.36,5073.15L4091.77,4868.27C4090.89,4856.77 4081.37,4847.85 4069.83,4847.73C4069.83,4847.73 3970.79,4846.93 3936.82,4853C3801.08,4877.26 3687.47,4956.91 3605.2,5065.83ZM3669.89,5056.88C3742.11,4975.27 3835.44,4916.27 3944.64,4896.75C3967.08,4892.74 4019.8,4892.11 4049.01,4892.09C4049.01,4892.09 4061.25,5052.89 4061.25,5052.89C3988.97,5053.73 3770.16,5056.21 3669.89,5056.88L3669.89,5056.88Z" style="fill:rgb(153,144,135);"/>
                <path d="M3628.96,5100.54C3621.54,5100.38 3614.53,5103.93 3610.27,5110.01C3606.01,5116.09 3605.07,5123.9 3607.76,5130.81C3644.17,5224.37 3705.03,5259.32 3794.57,5265.94C3829.83,5268.55 4097.26,5247.03 4097.26,5247.03C4109.44,5246.04 4118.53,5235.4 4117.62,5223.21L4109.48,5115.19C4108.6,5103.46 4098.73,5094.45 4086.97,5094.64C4086.97,5094.64 3664.11,5101.3 3628.96,5100.54ZM3663.45,5144.9C3756.56,5144.14 3994.72,5140.52 4066.74,5139.4C4066.74,5139.4 4071.64,5204.51 4071.64,5204.51C4007.94,5209.59 3826.18,5223.72 3797.85,5221.62C3737.34,5217.15 3693.1,5196.68 3663.45,5144.9L3663.45,5144.9Z" style="fill:rgb(0,3,0);"/>
            </g>
            <path d="M2740.29,5288.11C2879.11,5193.6 3601.43,4774.4 3807.48,4666.39C4151.4,4486.11 4527.65,4284.66 4925.64,4259.92C4944,4258.78 4957.98,4242.94 4956.84,4224.58C4955.7,4206.22 4939.86,4192.24 4921.5,4193.38C4514.22,4218.7 4128.47,4422.86 3776.53,4607.34C3569.2,4716.02 2842.45,5137.9 2702.78,5233C2687.57,5243.35 2683.63,5264.11 2693.98,5279.31C2704.34,5294.52 2725.09,5298.46 2740.29,5288.11Z" style="fill:rgb(0,3,0);"/>
            <path d="M9490.83,4273.85C9498.56,4277.38 9517.35,4284.18 9536.75,4290.94C9536.75,4290.94 9374.23,4427.06 9374.23,4427.06C9366.54,4433.49 9362.16,4443.05 9362.3,4453.07C9362.43,4463.09 9367.07,4472.52 9374.93,4478.74C9374.93,4478.74 9926.71,4915.61 10083.5,5000.11C10197,5061.21 10315.2,5084.48 10359.4,5106.19C10375.9,5114.3 10395.9,5107.48 10404,5090.97C10412.1,5074.46 10405.3,5054.47 10388.8,5046.35C10345,5024.83 10227.6,5002.01 10115.2,4941.41C9983.1,4870.26 9567.46,4545.52 9448.46,4451.85C9448.46,4451.85 9625,4303.98 9625,4303.98C9634.28,4296.21 9638.61,4284.03 9636.33,4272.15C9634.06,4260.27 9625.52,4250.55 9614.03,4246.77C9614.03,4246.77 9536,4221.2 9518.56,4213.22C9501.83,4205.57 9482.03,4212.94 9474.38,4229.67C9466.73,4246.4 9474.1,4266.2 9490.83,4273.85Z" style="fill:rgb(0,3,0);"/>
        </g>
        <g id="Lichter">
            <g>
                <path d="M10524.4,5424.05C10529.9,5423.33 10707.1,5422.66 10711.5,5422.51C10729.9,5421.87 10744.3,5406.42 10743.6,5388.03C10743,5369.65 10727.6,5355.24 10709.2,5355.88C10704.6,5356.04 10521.4,5357.21 10515.7,5357.96C10497.5,5360.36 10484.6,5377.12 10487,5395.36C10489.4,5413.6 10506.2,5426.45 10524.4,5424.05Z" style="fill:rgb(255,3,0);"/>
                <path d="M10719.3,5458.97L10715.8,5459.11C10675.6,5460.13 10490.7,5458.03 10483.3,5459.12C10465.1,5461.82 10452.5,5478.79 10455.2,5496.99C10457.9,5515.19 10474.9,5527.77 10493.1,5525.07C10500.2,5524.01 10678.6,5526.74 10717.5,5525.75C10729.7,5525.44 10736.8,5522.83 10738,5522.25C10754.7,5514.58 10762.1,5494.78 10754.4,5478.06C10748.1,5464.31 10733.6,5456.9 10719.3,5458.97Z" style="fill:rgb(255,3,0);"/>
            </g>
            <g id="Lichter1" serif:id="Lichter">
                <path d="M462.317,5758C430.686,5779.21 401.732,5818.98 377.081,5866.07C343.941,5929.37 317.489,6005.9 297.231,6057.26C290.48,6074.37 298.894,6093.74 316.008,6100.49C333.122,6107.25 352.497,6098.83 359.247,6081.72C378.811,6032.12 404.138,5958.12 436.144,5896.99C454.926,5861.11 475.338,5829.53 499.439,5813.38C514.72,5803.13 518.81,5782.41 508.566,5767.13C498.322,5751.85 477.598,5747.76 462.317,5758Z" style="fill:rgb(0,3,0);"/>
                <path d="M482.669,5795.99C481.857,5808.85 480.018,6028.14 476.906,6045.16C473.597,6063.26 485.603,6080.64 503.7,6083.95C521.797,6087.26 539.176,6075.25 542.485,6057.15C545.695,6039.6 548.366,5813.46 549.203,5800.19C550.363,5781.83 536.397,5765.99 518.037,5764.83C499.676,5763.67 483.828,5777.63 482.669,5795.99Z" style="fill:white;"/>
                <path d="M878.374,5794.86C876.716,5811.9 878.029,5976.09 879.201,5983.9C881.933,6002.09 898.921,6014.65 917.114,6011.91C935.307,6009.18 947.861,5992.2 945.129,5974C944.059,5966.87 943.212,5816.89 944.727,5801.32C946.509,5783.01 933.09,5766.7 914.779,5764.92C896.468,5763.14 880.156,5776.55 878.374,5794.86Z" style="fill:white;"/>
            </g>
        </g>
        <g id="Außenumriss">
            <path d="M8973.88,4439.44L8973.99,4439.49L8974.25,4439.58L8975.07,4439.87L8975.42,4439.98L8975.51,4440.01L8975.77,4440.08L8976.7,4440.36L8976.99,4440.44L8977.05,4440.45L8977.27,4440.51L8978.33,4440.77L8978.58,4440.82L8978.61,4440.83L8978.79,4440.86L8979.96,4441.09L8980.17,4441.12L8980.19,4441.13L8980.36,4441.15L8981.6,4441.33L8981.76,4441.35L8981.79,4441.35L8982.08,4441.38L8983.24,4441.48L8983.36,4441.49L8983.41,4441.49L8983.96,4441.52L8984.87,4441.56L8984.95,4441.56L8985.03,4441.56L8985.94,4441.55L8986.5,4441.55L8986.55,4441.55L8986.67,4441.55L8987.83,4441.48L8988.11,4441.46L8988.15,4441.46L8988.31,4441.45L8989.55,4441.32L8989.72,4441.3L8989.75,4441.29L8989.95,4441.27L8991.14,4441.08L8991.31,4441.06L8991.35,4441.05L8991.6,4441.01L8992.66,4440.78L8992.89,4440.74L8992.94,4440.72L8993.24,4440.66L8994.18,4440.41L8994.44,4440.35L8994.53,4440.32L8994.88,4440.23L8995.71,4439.96L8995.98,4439.88L8996.09,4439.84L8996.51,4439.7C9134.6,4391.58 9376.63,4321.8 9515.33,4275.13C9529.7,4270.29 9539,4256.37 9537.95,4241.24C9536.9,4226.11 9525.78,4213.6 9510.88,4210.78C9499.07,4208.56 8759.73,4145.2 8650.61,4127.05C8640.35,4125.35 8629.87,4128.53 8622.3,4135.66C8614.72,4142.8 8610.91,4153.06 8611.99,4163.4C8617.05,4211.74 8638.17,4233.11 8673.73,4267.5C8744.82,4336.24 8888.71,4406.32 8973.46,4439.29L8973.88,4439.44ZM8986.36,4372.69C9080.91,4340.24 9217.91,4298.98 9338.47,4261.61C9148.77,4244.58 8840.86,4216.84 8700.4,4200.72C8706.16,4206.6 8712.8,4212.54 8720.07,4219.57C8782.7,4280.12 8907.06,4340.78 8986.36,4372.69Z" style="fill:rgb(153,144,135);"/>
            <path d="M3057.39,5202.78C2764.53,5223.88 1943.73,5281.8 1730.69,5316.18C1337.51,5379.64 823.167,5534.43 463.324,5757.35C450.662,5765.2 444.741,5780.49 448.818,5794.82C452.896,5809.14 465.983,5819.02 480.878,5819.02L1056.32,5819.02C1002.93,5869.62 935.592,5930.27 882.414,5957.27C863.674,5966.78 809.772,5976.54 743.323,5986.9C579.022,6012.52 341.145,6036.22 328.417,6036.15C319.546,6036.11 311.022,6039.6 304.732,6045.85C302.495,6048.08 300.607,6050.59 299.109,6053.3L299.104,6053.29L256.495,6129.95C253.082,6136.09 251.696,6143.16 252.537,6150.13L307.195,6603.85C309.271,6621.08 324.222,6633.84 341.566,6633.17L509.283,6626.75C521.387,6626.28 532.286,6619.29 537.752,6608.48C543.219,6597.67 542.392,6584.75 535.592,6574.72C461.758,6465.88 376.516,6267.12 330.995,6143.76C330.251,6141.75 329.333,6139.85 328.255,6138.07L347.942,6102.65C348.814,6102.23 349.673,6101.73 350.51,6101.13C416.673,6095.26 611.851,6074.87 753.594,6052.77C829.772,6040.89 891.108,6027.62 912.591,6016.71C994.1,5975.33 1107.99,5860.65 1162.29,5810.08C1172.32,5800.75 1175.61,5786.23 1170.6,5773.48C1165.58,5760.74 1153.28,5752.36 1139.58,5752.36L605.11,5752.36C947.998,5566.95 1393.17,5438.19 1741.31,5382C1953.9,5347.69 2774.3,5290.02 3064.18,5269.13C3068.51,5270.33 3069.73,5269.08 3069.98,5268.71L3072.45,5268.53L3070.05,5268.62C3070.05,5268.62 3077.64,5265.58 3085.97,5260.3L3085.94,5263.39C3154.63,5222.96 3466.85,5012.73 3796.6,4817.92C4147.8,4610.44 4518.31,4417.55 4613.48,4374.25C4811.01,4284.4 5030.37,4225.75 5245.5,4187.34C5661.65,4119.47 6124.22,4097.36 6541.76,4101.57C7209.54,4108.32 8227.54,4125.66 8519.28,4183.39C8533.63,4225.07 8559.41,4274.73 8590.13,4316.31C8617.35,4353.14 8648.64,4383.43 8678.59,4398.56C9004.16,4562.99 9682.29,4919.18 10029.6,5118.67C10035.4,5122.01 10042.1,5123.52 10048.8,5123.01C10081.2,5120.52 10312.6,5111.89 10366.8,5109.89C10407.2,5131.35 10490.5,5193.92 10554.7,5242.89C10516.4,5242.61 10481.2,5242.03 10481.2,5242.03C10468.3,5241.82 10456.4,5249.08 10450.7,5260.65C10450.7,5260.65 10296.9,5573.72 10287.6,5593.78C10287.5,5594.05 10287.3,5594.35 10287.2,5594.69L10287.6,5593.78C10295,5579.98 10318,5640.65 10318,5640.65C10317.9,5640.65 10317.7,5640.65 10317.5,5640.65C10317.5,5640.65 10633.8,5644.84 10728.1,5642.08C10740.2,5659.8 10756.2,5681.55 10765.2,5693.64C10765.2,5693.64 10759.9,6043.58 10759.9,6043.58C10701.1,6057.8 10558,6092.37 10538.7,6096.52C10520.7,6100.38 10509.2,6118.11 10513.1,6136.1C10516.9,6154.09 10534.7,6165.56 10552.6,6161.7C10577.2,6156.42 10800.7,6102.3 10800.7,6102.3C10815.5,6098.72 10826,6085.6 10826.2,6070.4L10832,5683.28C10832.1,5675.86 10829.7,5668.61 10825.3,5662.69C10825.3,5662.69 10787.6,5612.98 10774.1,5590.72C10766.6,5578.39 10752.1,5572.27 10738,5575.56C10720.1,5579.75 10479.1,5576.52 10370.8,5574.84C10406.5,5501.81 10476.1,5360.07 10501.3,5308.99C10534.2,5309.42 10597.5,5310.09 10631,5309.43C10647.7,5309.1 10659.2,5307.5 10662,5306.62C10674,5302.78 10682.8,5292.52 10684.8,5280.09C10686.7,5267.66 10681.5,5255.18 10671.3,5247.83C10629.7,5217.82 10446.5,5073.23 10388.1,5046.05C10383.4,5043.83 10378.1,5042.77 10372.8,5042.96C10344.4,5043.99 10114.2,5052.54 10054.1,5055.88C9703.48,4855.02 9032.28,4502.51 8708.64,4339.05C8686.32,4327.78 8664.03,4304.13 8643.75,4276.69C8611.07,4232.47 8584.32,4177.76 8575.7,4138.88C8571.93,4121.88 8555.7,4110.64 8538.45,4113.1C8534.28,4113.7 8530.39,4115.04 8526.91,4117C8224.03,4059.89 7209.66,4041.65 6542.43,4034.91C6121.13,4030.65 5654.4,4053.09 5234.52,4121.59C5234.36,4121.61 5234.19,4121.64 5234.03,4121.67C5013.39,4161.05 4788.46,4221.41 4585.88,4313.57C4489.98,4357.19 4116.58,4551.45 3762.69,4760.52C3440.76,4950.71 3135.55,5155.6 3057.39,5202.78ZM344.024,6352.17L369.709,6565.38C369.709,6565.38 449.207,6562.33 449.207,6562.33C413.504,6501.36 376.762,6425.98 344.024,6352.17Z" style="fill:rgb(153,144,135);"/>
        </g>
    </g>
    <g>
        <g>
            <g transform="matrix(1,0,0,1,7205.12,0)">
                <g>
                    <g transform="matrix(2.01095,0,0,1.8045,-2096.27,-5615.75)">
                        <ellipse cx="2028.79" cy="6931.6" rx="320.941" ry="357.659" style="fill:none;stroke:rgb(137,144,154);stroke-width:13.09px;"/>
                    </g>
                    <g>
                        <path d="M1531.6,6793.57C1501.28,6717.85 1462.52,6642.28 1431.98,6566.68C1430.32,6562.59 1425.66,6560.61 1421.56,6562.26C1417.47,6563.92 1415.49,6568.58 1417.14,6572.68C1447.68,6648.25 1486.43,6723.82 1516.74,6799.52C1518.38,6803.62 1523.04,6805.61 1527.14,6803.97C1531.24,6802.33 1533.24,6797.67 1531.6,6793.57Z" style="fill:rgb(137,144,154);"/>
                        <path d="M1747.08,6499.85C1780.97,6425.63 1813.77,6351.05 1847.04,6276.54C1848.84,6272.51 1847.03,6267.78 1843,6265.98C1838.97,6264.18 1834.23,6265.99 1832.43,6270.02C1799.17,6344.48 1766.4,6419.03 1732.53,6493.2C1730.69,6497.22 1732.46,6501.97 1736.48,6503.8C1740.5,6505.64 1745.25,6503.87 1747.08,6499.85Z" style="fill:rgb(137,144,154);"/>
                        <path d="M2127.34,6452.47C2182.28,6431.99 2338.36,6382.16 2360.78,6376.61C2365.06,6375.54 2367.68,6371.2 2366.62,6366.92C2365.56,6362.63 2361.22,6360.01 2356.93,6361.07C2334.35,6366.67 2177.1,6416.85 2121.75,6437.48C2117.61,6439.02 2115.5,6443.64 2117.05,6447.77C2118.59,6451.91 2123.2,6454.02 2127.34,6452.47Z" style="fill:rgb(137,144,154);"/>
                        <path d="M2271.38,6554.33C2317.72,6557.06 2493.95,6564.19 2535.18,6569.53C2539.56,6570.09 2543.58,6567 2544.14,6562.62C2544.71,6558.24 2541.61,6554.23 2537.24,6553.66C2495.83,6548.3 2318.86,6541.1 2272.32,6538.36C2267.91,6538.1 2264.12,6541.47 2263.86,6545.88C2263.6,6550.28 2266.97,6554.07 2271.38,6554.33Z" style="fill:rgb(137,144,154);"/>
                        <path d="M2395.71,6701.61C2397.26,6702.41 2406.25,6707.1 2417.43,6713.27C2469.49,6741.97 2591.77,6811.42 2616.7,6823.89C2620.98,6826.03 2623.81,6826.65 2624.46,6826.66C2627.79,6826.75 2629.66,6825.18 2630.74,6823.95C2633.67,6820.65 2633.37,6815.59 2630.06,6812.66C2629.02,6811.74 2627.81,6811.13 2626.54,6810.85C2625.86,6810.53 2624.31,6809.81 2622.82,6809.05C2591.82,6793.29 2440.8,6707.27 2407.88,6689.86C2402.7,6687.12 2399.4,6685.99 2398.81,6685.92C2395.62,6685.54 2393.72,6686.86 2392.68,6687.73C2390.99,6689.14 2390,6690.96 2389.82,6693.25C2389.51,6697.15 2392.06,6700.62 2395.71,6701.61ZM2619.87,6812.31C2619.46,6812.62 2619.09,6812.97 2618.77,6813.34C2619.11,6812.95 2619.48,6812.61 2619.87,6812.31ZM2620.01,6812.2L2619.97,6812.23L2620.14,6812.11L2620.01,6812.2ZM2620.38,6811.95L2620.34,6811.97L2620.44,6811.91L2620.38,6811.95ZM2620.77,6811.71L2620.75,6811.72L2620.78,6811.7L2620.77,6811.71ZM2405.72,6694.94C2405.41,6697.31 2404.07,6699.33 2402.18,6700.57C2404.31,6699.24 2405.44,6697.33 2405.72,6694.94Z" style="fill:rgb(137,144,154);"/>
                        <path d="M2434.49,6882.31C2451.37,6907.62 2559.75,7036.3 2594.57,7084.97C2597.13,7088.56 2602.13,7089.39 2605.73,7086.82C2609.32,7084.26 2610.15,7079.25 2607.58,7075.66C2572.84,7027.09 2464.65,6898.69 2447.8,6873.43C2445.35,6869.76 2440.38,6868.76 2436.71,6871.21C2433.03,6873.66 2432.04,6878.64 2434.49,6882.31Z" style="fill:rgb(137,144,154);"/>
                        <path d="M2393.16,7075.8C2393.33,7076.37 2393.84,7078.11 2394.42,7080.21C2403.23,7111.93 2447.81,7279.29 2457.39,7315.1C2458.47,7319.14 2459.11,7321.53 2459.22,7321.9C2460.1,7325.01 2461.9,7325.99 2461.96,7326.04C2465.36,7328.74 2468.46,7328.07 2470.8,7326.78C2471.18,7326.57 2475.95,7324.27 2474.78,7318.25C2474.74,7318.01 2474.68,7317.78 2474.62,7317.55L2474.62,7317.55C2474.62,7317.55 2473.89,7314.88 2472.85,7310.96C2463.26,7275.14 2418.65,7107.67 2409.83,7075.93C2408.71,7071.88 2407.93,7069.6 2407.8,7069.35C2406.35,7066.39 2404.19,7065.67 2403.44,7065.38C2400.66,7064.33 2398.24,7064.81 2396.11,7066.25C2395.18,7066.89 2392.58,7068.63 2392.61,7072.95C2392.62,7073.96 2392.82,7074.92 2393.16,7075.8ZM2462.95,7312.83C2462.15,7313.26 2458.18,7315.52 2459.01,7320.88C2458.54,7317.58 2460.18,7314.42 2462.95,7312.83ZM2471.79,7313.42L2471.91,7313.51L2471.9,7313.5L2471.79,7313.42ZM2471.69,7313.35C2469.95,7312.06 2467.7,7311.47 2465.41,7311.92C2464.73,7312.05 2464.09,7312.26 2463.5,7312.54C2465.73,7311.43 2468.58,7310.99 2471.69,7313.35ZM2396.22,7079.56C2397.5,7080.41 2399.03,7080.89 2400.68,7080.88C2401.54,7080.87 2402.38,7080.73 2403.15,7080.47C2401.21,7081.18 2398.79,7081.36 2396.22,7079.56ZM2404.47,7079.89C2405.92,7079.15 2408.65,7077.34 2408.61,7072.81C2408.64,7075.85 2406.96,7078.51 2404.47,7079.89Z" style="fill:rgb(137,144,154);"/>
                        <path d="M2264.22,7482.07L2265.03,7475.73C2269.54,7441.13 2290.68,7281.29 2295.68,7249.97C2295.95,7248.26 2296.26,7246.56 2296.38,7245.92C2297.76,7241.84 2295.64,7237.36 2291.57,7235.86C2289.43,7235.07 2287.11,7235.06 2284.7,7236.49C2283.91,7236.96 2282.51,7237.88 2281.51,7240.03C2281.3,7240.47 2280.58,7243.03 2279.87,7247.45C2274.87,7278.83 2253.68,7438.99 2249.17,7473.66C2248.66,7477.6 2248.35,7479.95 2248.31,7480.37C2248.11,7482.18 2248.47,7483.16 2248.49,7483.26C2249.76,7488.34 2253.58,7489.1 2255.5,7489.28C2257.27,7489.45 2260.92,7489.49 2263.28,7485.13C2263.81,7484.16 2264.12,7483.12 2264.22,7482.07ZM2292.46,7250.48C2290.53,7251.47 2288.22,7251.68 2286.03,7250.87C2288.03,7251.61 2290.2,7251.67 2292.46,7250.48Z" style="fill:rgb(137,144,154);"/>
                        <path d="M1990.85,7540.96C1991.29,7540.25 1992.34,7538.61 1993.47,7536.9C2014.92,7504.56 2133.19,7334.06 2134.22,7332.6C2136.75,7328.99 2135.88,7324 2132.27,7321.46C2128.65,7318.92 2123.66,7319.79 2121.12,7323.41C2120.1,7324.86 2001.63,7495.66 1980.14,7528.06C1977.82,7531.56 1976.5,7533.75 1976.25,7534.29C1975.43,7536.07 1975.47,7537.38 1975.49,7537.97C1975.59,7541.58 1977.5,7543.48 1979.35,7544.6C1980.67,7545.39 1984.28,7547.37 1988.52,7543.98C1989.56,7543.15 1990.34,7542.1 1990.85,7540.96ZM1987.02,7530.53C1988.5,7531.19 1989.72,7532.25 1990.54,7533.87C1990.32,7533.48 1990.07,7533.1 1989.78,7532.74C1989.01,7531.77 1988.06,7531.03 1987.02,7530.53ZM1984.4,7529.78C1983.04,7529.57 1980.89,7529.59 1978.54,7531.47C1980.26,7530.1 1982.37,7529.55 1984.4,7529.78ZM1986.85,7530.45L1986.85,7530.45L1986.85,7530.45Z" style="fill:rgb(137,144,154);"/>
                        <path d="M1929.22,7339.91C1928.9,7340.11 1926.72,7341.52 1923.67,7343.47C1892.86,7363.16 1749.31,7454.29 1720.41,7471.61C1718.78,7472.59 1717.11,7473.54 1716.53,7473.87C1715.96,7474.09 1715.41,7474.38 1714.89,7474.74C1711.26,7477.25 1710.35,7482.24 1712.87,7485.87C1713.76,7487.16 1716.41,7490.59 1721.81,7488.98C1722.3,7488.83 1724.75,7487.67 1728.63,7485.34C1757.59,7467.98 1901.41,7376.68 1932.29,7356.95C1935.84,7354.68 1937.94,7353.32 1938.28,7353.09C1939.84,7352.03 1940.35,7351.07 1940.44,7350.94C1942.68,7347.64 1941.83,7344.88 1941.21,7343.39C1940.42,7341.5 1939.05,7339.9 1936.71,7338.99C1935.91,7338.68 1934.03,7337.93 1931.24,7338.88C1930.5,7339.13 1929.82,7339.48 1929.22,7339.91ZM1721.31,7473.54C1723.16,7473.98 1724.85,7475.08 1726.02,7476.76C1725.06,7475.38 1723.63,7474.07 1721.31,7473.54ZM1930.92,7353.91L1930.92,7353.91C1931.69,7354.21 1933.42,7354.9 1935.97,7354.16C1934.25,7354.64 1932.49,7354.52 1930.92,7353.91Z" style="fill:rgb(137,144,154);"/>
                        <path d="M1339.22,6826.05C1340.24,6826.86 1347.44,6832.68 1355.19,6839.68C1395.75,6876.34 1490.66,6968.66 1513.69,6989.62C1517.89,6993.45 1520.76,6995.27 1521.33,6995.48C1524.04,6996.48 1526.05,6995.86 1527.25,6995.36C1529.16,6994.56 1530.53,6993.23 1531.4,6991.4C1533.2,6987.59 1531.74,6983.08 1528.14,6981.03C1527.51,6980.49 1525.97,6979.16 1524.46,6977.79C1501.43,6956.82 1406.49,6864.48 1365.92,6827.81C1357.4,6820.11 1351.13,6814.77 1348.24,6812.82C1346.11,6811.38 1344.43,6810.91 1343.59,6810.77C1339.23,6810.06 1335.11,6813.02 1334.4,6817.38C1333.79,6821.11 1335.87,6824.66 1339.22,6826.05ZM1523.9,6979.98C1520.17,6979.98 1518.12,6982.06 1516.94,6984.54C1518.27,6981.75 1521.01,6980.07 1523.9,6979.98Z" style="fill:rgb(137,144,154);"/>
                        <path d="M1599.79,7151.45C1598.47,7151.18 1588.53,7149.06 1577.07,7146.22C1519.95,7132.08 1382.06,7095.19 1375.29,7092.42C1371.21,7090.75 1366.53,7092.71 1364.86,7096.8C1363.19,7100.89 1365.15,7105.56 1369.24,7107.23C1376.94,7110.38 1552.45,7157.36 1590.71,7165.94C1594.58,7166.81 1597.22,7167.3 1598.38,7167.41C1599.93,7167.56 1600.98,7167.36 1601.52,7167.24C1605.82,7166.22 1608.47,7161.9 1607.45,7157.6C1606.59,7153.97 1603.36,7151.5 1599.79,7151.45Z" style="fill:rgb(137,144,154);"/>
                        <path d="M1485.78,7311.22C1513.23,7311.86 1735.07,7311.43 1750.11,7311.65C1754.53,7311.71 1758.16,7308.18 1758.23,7303.77C1758.29,7299.35 1754.76,7295.72 1750.34,7295.65C1735.32,7295.43 1513.59,7295.86 1486.15,7295.23C1481.74,7295.12 1478.07,7298.62 1477.97,7303.04C1477.87,7307.45 1481.37,7311.12 1485.78,7311.22Z" style="fill:rgb(137,144,154);"/>
                        <path d="M1928.14,6437.41C1966.44,6402.77 2096.47,6290.23 2122.46,6267.76C2125.8,6264.88 2126.17,6259.82 2123.28,6256.48C2120.39,6253.14 2115.34,6252.77 2111.99,6255.66C2085.97,6278.16 1955.76,6390.85 1917.4,6425.55C1914.13,6428.51 1913.88,6433.57 1916.84,6436.85C1919.8,6440.12 1924.86,6440.38 1928.14,6437.41Z" style="fill:rgb(137,144,154);"/>
                        <path d="M1591.7,6374.28C1591.71,6374.81 1591.78,6377.24 1591.83,6380.1C1592.44,6414.11 1594.51,6573.88 1595.65,6605.43C1595.8,6609.67 1596.12,6612.17 1596.24,6612.62C1597.92,6618.72 1602.99,6618.66 1604.62,6618.53C1609.02,6618.18 1612.31,6614.32 1611.96,6609.92C1611.93,6609.62 1611.89,6609.33 1611.84,6609.05C1611.8,6608.43 1611.7,6606.64 1611.64,6604.85C1610.5,6573.34 1608.44,6413.78 1607.83,6379.81C1607.75,6375.69 1607.68,6373.26 1607.64,6372.91C1607.28,6368.84 1604.78,6367.42 1604.46,6367.18C1601.51,6364.98 1598.57,6364.99 1595.67,6366.66C1594.82,6367.15 1592.72,6368.33 1591.9,6371.68C1591.68,6372.56 1591.62,6373.43 1591.7,6374.28ZM1609.45,6604.72C1607.47,6602.82 1605.29,6602.43 1603.35,6602.58C1605.68,6602.4 1607.86,6603.24 1609.45,6604.72ZM1603.77,6380.46L1603.66,6380.52L1603.66,6380.52L1603.77,6380.46ZM1607.31,6375.95C1606.72,6377.88 1605.44,6379.44 1603.83,6380.43C1604.71,6379.91 1606.48,6378.77 1607.31,6375.95Z" style="fill:rgb(137,144,154);"/>
                    </g>
                </g>
                <g transform="matrix(1.34319,0,0,1.28261,-745.532,-2046.91)">
                    <ellipse cx="2037.23" cy="6969.59" rx="579.051" ry="606.403" style="fill:none;stroke:black;stroke-width:135.37px;"/>
                </g>
                <g>
                    <g transform="matrix(1.40038,0,0,1.45872,-521.219,-2776.26)">
                        <path d="M2563.52,6375.54C2549.17,6270.01 2491.22,6212.98 2414.3,6111.54C2293.42,5952.15 2085.56,5818.04 1805.64,5818.04C1557.22,5818.04 1321.48,5923.24 1167.21,6094.95C1039.37,6237.26 1004.12,6321.18 976.821,6482.26C1003.23,6324.26 1039.3,6235.96 1167.21,6094.95C1317.39,5929.4 1565.97,5806.95 1805.64,5818.04C2211.72,5836.83 2409.74,6038.11 2547.96,6307.56C2565.55,6341.84 2559.9,6340.34 2563.52,6375.54Z" style="fill:none;stroke:rgb(137,144,154);stroke-width:124.33px;"/>
                    </g>
                    <g>
                        <path d="M1425.26,5976.83C1525.69,5871.42 1745.37,5660.57 1754.54,5652.43C1756.83,5650.4 1757.04,5646.88 1755.01,5644.59C1752.97,5642.3 1749.46,5642.09 1747.17,5644.12C1737.98,5652.27 1517.85,5863.54 1417.22,5969.17C1415.1,5971.39 1415.19,5974.9 1417.41,5977.02C1419.63,5979.14 1423.15,5979.05 1425.26,5976.83Z"/>
                        <path d="M1918.46,5821.25C1983.58,5793.06 2238.74,5691.45 2299.92,5665.61C2302.75,5664.42 2304.07,5661.15 2302.88,5658.33C2301.69,5655.51 2298.42,5654.18 2295.6,5655.37C2234.41,5681.23 1979.18,5782.86 1914.04,5811.06C1911.23,5812.28 1909.93,5815.55 1911.15,5818.36C1912.37,5821.18 1915.64,5822.47 1918.46,5821.25Z"/>
                        <path d="M1145.47,6235.97C1161.42,6126.67 1192.07,6019.61 1208.73,5910.29C1209.19,5907.26 1207.1,5904.42 1204.07,5903.96C1201.04,5903.5 1198.2,5905.58 1197.74,5908.62C1181.09,6017.96 1150.43,6125.05 1134.47,6234.37C1134.03,6237.4 1136.13,6240.22 1139.17,6240.67C1142.2,6241.11 1145.03,6239.01 1145.47,6235.97Z"/>
                        <path d="M2401.72,5884.47C2469.24,5890.74 2719.61,5928.3 2792.22,5936.68C2795.27,5937.03 2798.03,5934.84 2798.38,5931.8C2798.73,5928.75 2796.55,5925.99 2793.5,5925.64C2720.84,5917.26 2470.31,5879.68 2402.75,5873.4C2399.7,5873.12 2396.99,5875.37 2396.7,5878.42C2396.42,5881.47 2398.67,5884.18 2401.72,5884.47Z"/>
                        <g transform="matrix(0.991506,0,0,0.989233,26.4451,68.4051)">
                            <path d="M2766.89,6161.99C2823.91,6196.35 3053.65,6325.04 3110.53,6358C3113.21,6359.55 3116.64,6358.63 3118.18,6355.95C3119.73,6353.26 3118.82,6349.83 3116.14,6348.27C3059.28,6315.33 2829.66,6186.71 2772.66,6152.37C2770.01,6150.77 2766.57,6151.63 2764.97,6154.29C2763.38,6156.94 2764.24,6160.4 2766.89,6161.99Z"/>
                        </g>
                        <path d="M973.897,6522.11C955.217,6465.92 906.395,6317.76 892.42,6281.72C891.311,6278.86 888.09,6277.44 885.232,6278.55C882.373,6279.66 880.952,6282.88 882.06,6285.74C896.006,6321.7 944.713,6469.55 963.354,6525.61C964.321,6528.52 967.469,6530.1 970.378,6529.13C973.288,6528.16 974.865,6525.01 973.897,6522.11Z"/>
                    </g>
                </g>
            </g>
            <g>
                <path d="M10594.3,6270.15L10670.3,6249.05" style="fill:none;stroke:black;stroke-width:11.11px;"/>
                <path d="M10580.3,6324.55L10684.8,6295.2" style="fill:none;stroke:black;stroke-width:11.11px;"/>
                <path d="M10561,6375.59L10696.2,6342.86" style="fill:none;stroke:black;stroke-width:11.11px;"/>
                <path d="M10536.8,6426.14L10708.5,6388.34" style="fill:none;stroke:black;stroke-width:11.11px;"/>
                <path d="M10525.5,6475.29L10727.3,6426.14" style="fill:none;stroke:black;stroke-width:11.11px;"/>
            </g>
            <path d="M10404.9,6527.32C10362.3,6534.44 10324.4,6539.48 10296.7,6540.87C10278.3,6541.79 10264.2,6557.46 10265.1,6575.83C10266,6594.2 10281.7,6608.37 10300.1,6607.45C10333,6605.8 10380.1,6599.12 10432.6,6589.91C10434.8,6589.76 10436.9,6589.39 10438.9,6588.83C10604.3,6559.51 10819.3,6506.59 10819.3,6506.59C10828.6,6504.29 10836.5,6498.09 10840.9,6489.58C10845.3,6481.07 10845.9,6471.07 10842.4,6462.13L10725.5,6162.08C10719.5,6146.79 10703.3,6138.11 10687.3,6141.62L10548,6172.15C10536.8,6174.61 10527.7,6182.63 10523.8,6193.4C10523.8,6193.4 10435.5,6438.13 10404.9,6527.32ZM10480.2,6513.65C10589.2,6492.58 10707.9,6464.85 10766.4,6450.82C10742.7,6389.93 10694.8,6266.95 10673.7,6212.85C10673.7,6212.85 10580.3,6233.33 10580.3,6233.33C10562.4,6282.95 10510.4,6427.61 10480.2,6513.65Z" style="fill:rgb(137,144,154);"/>
            <path d="M10205.7,6729.79C10211.6,6818.36 10210,7045.98 10210,7091.54C10210,7097.97 10210.2,7101.77 10210.2,7102.49C10212.3,7124.99 10229.6,7130.01 10231.9,7130.86C10236,7132.38 10248.1,7134.12 10264.9,7131.16C10297.2,7125.43 10366.6,7106.2 10377.8,7103.52C10568.1,7057.92 10656.1,6990.39 10770.3,6833.93C10805.7,6785.51 10850.6,6721.92 10868.9,6663.9C10871.1,6657.12 10879.1,6612.47 10877.9,6602.05C10876.1,6585.31 10865.9,6577.94 10860.2,6574.81C10859.6,6574.51 10847.3,6566.91 10828.5,6574.33C10809.7,6581.8 10715.3,6621.27 10666.5,6637.74C10521,6686.88 10380.8,6667.43 10233.2,6688.45C10215,6691.04 10202.3,6707.94 10204.9,6726.15C10205.1,6727.39 10205.4,6728.6 10205.7,6729.79ZM10800.4,6657.7C10763.8,6672.5 10717.5,6690.87 10687.8,6700.9C10548.4,6747.98 10414,6735.05 10273.5,6750.57C10277.2,6835.71 10276.9,6987.07 10276.8,7059.2L10362.3,7038.68C10534.2,6997.5 10613.3,6935.96 10716.5,6794.62C10745.2,6755.34 10781.8,6705.36 10800.4,6657.7Z" style="fill:rgb(137,144,154);"/>
        </g>
        <path d="M3064.57,7250.63L3066.55,7252.73L3067.28,7253.48L3067.43,7253.48C3067.85,7253.48 3068.26,7253.47 3068.68,7253.45C3109.24,7251.94 7156.89,7231.03 7966.14,7232.38C8034.55,7232.5 8085.92,7233.18 8099.02,7233.37C8102.33,7233.96 8105.59,7233.95 8108.66,7233.61C8111.29,7233.42 8113.86,7232.9 8116.34,7232.1C8121.07,7230.7 8126.77,7227.94 8131.48,7221.98C8136.76,7215.79 8139.6,7207.85 8139.42,7199.66C8139.42,7199.35 8139.37,7198.57 8139.22,7197.45C8139.31,7196.01 8139.36,7194.47 8139.38,7192.83C8139.89,7144.51 8136.06,6894.41 8134.62,6884.57L8131.99,6887.61C8130.49,6874.58 8123.87,6856.54 8099.74,6856.09C8090.9,6855.93 8042.08,6856.8 7960.57,6858.57C7156.34,6876.04 3139.53,6979.28 3066.49,6981.92C3048.84,6981.46 3033.74,6994.97 3032.41,7012.76C3029.92,7046.04 3035.08,7196.17 3033.99,7218.52L3064.57,7250.63ZM8069.63,6923.19C8045.4,6923.57 8007.49,6924.24 7962.02,6925.22C7191.28,6941.97 3469.07,7037.5 3098.22,7047.69C3098.2,7086.36 3099.79,7147.2 3100.44,7186.48C3497.46,7183.31 7196.41,7164.43 7966.25,7165.72C8012.67,7165.8 8048.6,7165.97 8072.74,7166.22C8072.51,7105.86 8070.9,6980.21 8069.63,6923.19ZM8107.12,7166.93L8109.69,7167.19L8109.73,7167.19C8110.74,7167.26 8111.73,7167.34 8112.68,7167.44C8110.8,7167.09 8108.94,7166.93 8107.12,7166.93ZM8101.64,6922.72L8126.5,6893.96L8097.72,6857.9L8101.64,6922.72ZM8068.82,6899.71L8068.99,6900.19L8068.99,6900.18L8068.7,6899.3L8068.82,6899.71ZM8068.5,6880.35C8066.69,6886.57 8066.75,6892.74 8068.56,6898.85C8066.81,6892.88 8066.75,6886.47 8068.5,6880.35ZM8068.53,6880.28L8069.17,6878.27C8068.93,6878.94 8068.72,6879.61 8068.53,6880.28Z" style="fill:rgb(137,144,154);"/>
        <g>
            <path d="M4183.96,6706.39L6919.61,6575.98" style="fill:none;stroke:black;stroke-width:11.11px;"/>
            <path d="M4260.92,6754.88L7210.47,6619.68" style="fill:none;stroke:black;stroke-width:11.11px;"/>
            <path d="M4334.89,6790.68L7399.12,6659.19" style="fill:none;stroke:black;stroke-width:11.11px;"/>
        </g>
        <path d="M8029.49,6767.81C8032.12,6767.81 8034.79,6767.48 8037.45,6766.81L8039.02,6766.38C8039.54,6766.2 8040.06,6766.03 8040.58,6765.86L8041.08,6765.67L8041.45,6765.54L8041.86,6765.37L8042.1,6765.27L8042.63,6765.04C8047.34,6763.04 8050.55,6760.38 8052.84,6758.11L8052.97,6757.96C8059.3,6751.6 8063.05,6742.72 8062.64,6733.07C8062.5,6729.8 8061.9,6726.66 8060.88,6723.72C8058.98,6714.92 8052.88,6706.76 8038.78,6702.48L8038.11,6702.31L8037.89,6702.25L8036.88,6702.01C8032.51,6700.94 8021.6,6698.55 8005.14,6695.14C7840.86,6661.16 7073.42,6508.64 6919.94,6482.11C6909.95,6480.39 6901.96,6479.25 6896.19,6478.58C6894.23,6478.12 6892.1,6477.78 6889.81,6477.61C6884.23,6477.17 6854.64,6477.85 6805.43,6479.79C6335.14,6498.33 3989.17,6620.17 3955.95,6627.72C3955.06,6627.92 3954.19,6628.16 3953.32,6628.44C3768.22,6686.79 3596.09,6774.76 3413.53,6839.62C3397.57,6845.3 3388.4,6862.05 3392.22,6878.55C3396.04,6895.06 3411.64,6906.07 3428.47,6904.15C3441.17,6902.7 7942.74,6770.53 8029.49,6767.81ZM6882.83,6544.1C6875.58,6544.25 6846.57,6544.88 6808.06,6546.4C6342.59,6564.76 4031.83,6683.77 3971.57,6692.58C3849.55,6731.19 3733.18,6782.72 3615.66,6831.84C4339.84,6809.93 6879.44,6735.12 7740.12,6709.7C7447.88,6651.33 7019.01,6566.89 6908.58,6547.8C6899.44,6546.22 6890.15,6544.84 6887.42,6544.44L6886.35,6544.43C6885.6,6544.38 6884.85,6544.33 6884.1,6544.28L6882.83,6544.1ZM6888.38,6544.44C6888.81,6544.53 6889.99,6544.52 6893.17,6543.98C6891.57,6544.25 6889.97,6544.4 6888.38,6544.44ZM6877.19,6479.21C6863.78,6483.11 6858.99,6493.33 6857.14,6497.44C6856.22,6499.49 6855.51,6501.6 6855.03,6503.74C6852.42,6493.36 6856.94,6483.83 6877.19,6479.21Z" style="fill:rgb(137,144,154);"/>
        <g>
            <g>
                <g>
                    <g transform="matrix(2.01095,0,0,1.8045,-2096.27,-5615.75)">
                        <ellipse cx="2028.79" cy="6931.6" rx="320.941" ry="357.659" style="fill:none;stroke:rgb(137,144,154);stroke-width:13.09px;"/>
                    </g>
                    <g>
                        <path d="M1531.6,6793.57C1501.28,6717.85 1462.52,6642.28 1431.98,6566.68C1430.32,6562.59 1425.66,6560.61 1421.56,6562.26C1417.47,6563.92 1415.49,6568.58 1417.14,6572.68C1447.68,6648.25 1486.43,6723.82 1516.74,6799.52C1518.38,6803.62 1523.04,6805.61 1527.14,6803.97C1531.24,6802.33 1533.24,6797.67 1531.6,6793.57Z" style="fill:rgb(137,144,154);"/>
                        <path d="M1747.08,6499.85C1780.97,6425.63 1813.77,6351.05 1847.04,6276.54C1848.84,6272.51 1847.03,6267.78 1843,6265.98C1838.97,6264.18 1834.23,6265.99 1832.43,6270.02C1799.17,6344.48 1766.4,6419.03 1732.53,6493.2C1730.69,6497.22 1732.46,6501.97 1736.48,6503.8C1740.5,6505.64 1745.25,6503.87 1747.08,6499.85Z" style="fill:rgb(137,144,154);"/>
                        <path d="M2127.34,6452.47C2182.28,6431.99 2338.36,6382.16 2360.78,6376.61C2365.06,6375.54 2367.68,6371.2 2366.62,6366.92C2365.56,6362.63 2361.22,6360.01 2356.93,6361.07C2334.35,6366.67 2177.1,6416.85 2121.75,6437.48C2117.61,6439.02 2115.5,6443.64 2117.05,6447.77C2118.59,6451.91 2123.2,6454.02 2127.34,6452.47Z" style="fill:rgb(137,144,154);"/>
                        <path d="M2271.38,6554.33C2317.72,6557.06 2493.95,6564.19 2535.18,6569.53C2539.56,6570.09 2543.58,6567 2544.14,6562.62C2544.71,6558.24 2541.61,6554.23 2537.24,6553.66C2495.83,6548.3 2318.86,6541.1 2272.32,6538.36C2267.91,6538.1 2264.12,6541.47 2263.86,6545.88C2263.6,6550.28 2266.97,6554.07 2271.38,6554.33Z" style="fill:rgb(137,144,154);"/>
                        <path d="M2395.71,6701.61C2397.26,6702.41 2406.25,6707.1 2417.43,6713.27C2469.49,6741.97 2591.77,6811.42 2616.7,6823.89C2620.98,6826.03 2623.81,6826.65 2624.46,6826.66C2627.79,6826.75 2629.66,6825.18 2630.74,6823.95C2633.67,6820.65 2633.37,6815.59 2630.06,6812.66C2629.02,6811.74 2627.81,6811.13 2626.54,6810.85C2625.86,6810.53 2624.31,6809.81 2622.82,6809.05C2591.82,6793.29 2440.8,6707.27 2407.88,6689.86C2402.7,6687.12 2399.4,6685.99 2398.81,6685.92C2395.62,6685.54 2393.72,6686.86 2392.68,6687.73C2390.99,6689.14 2390,6690.96 2389.82,6693.25C2389.51,6697.15 2392.06,6700.62 2395.71,6701.61ZM2619.87,6812.31C2619.46,6812.62 2619.09,6812.97 2618.77,6813.34C2619.11,6812.95 2619.48,6812.61 2619.87,6812.31ZM2620.01,6812.2L2619.97,6812.23L2620.14,6812.11L2620.01,6812.2ZM2620.38,6811.95L2620.34,6811.97L2620.44,6811.91L2620.38,6811.95ZM2620.77,6811.71L2620.75,6811.72L2620.78,6811.7L2620.77,6811.71ZM2405.72,6694.94C2405.41,6697.31 2404.07,6699.33 2402.18,6700.57C2404.31,6699.24 2405.44,6697.33 2405.72,6694.94Z" style="fill:rgb(137,144,154);"/>
                        <path d="M2434.49,6882.31C2451.37,6907.62 2559.75,7036.3 2594.57,7084.97C2597.13,7088.56 2602.13,7089.39 2605.73,7086.82C2609.32,7084.26 2610.15,7079.25 2607.58,7075.66C2572.84,7027.09 2464.65,6898.69 2447.8,6873.43C2445.35,6869.76 2440.38,6868.76 2436.71,6871.21C2433.03,6873.66 2432.04,6878.64 2434.49,6882.31Z" style="fill:rgb(137,144,154);"/>
                        <path d="M2393.16,7075.8C2393.33,7076.37 2393.84,7078.11 2394.42,7080.21C2403.23,7111.93 2447.81,7279.29 2457.39,7315.1C2458.47,7319.14 2459.11,7321.53 2459.22,7321.9C2460.1,7325.01 2461.9,7325.99 2461.96,7326.04C2465.36,7328.74 2468.46,7328.07 2470.8,7326.78C2471.18,7326.57 2475.95,7324.27 2474.78,7318.25C2474.74,7318.01 2474.68,7317.78 2474.62,7317.55L2474.62,7317.55C2474.62,7317.55 2473.89,7314.88 2472.85,7310.96C2463.26,7275.14 2418.65,7107.67 2409.83,7075.93C2408.71,7071.88 2407.93,7069.6 2407.8,7069.35C2406.35,7066.39 2404.19,7065.67 2403.44,7065.38C2400.66,7064.33 2398.24,7064.81 2396.11,7066.25C2395.18,7066.89 2392.58,7068.63 2392.61,7072.95C2392.62,7073.96 2392.82,7074.92 2393.16,7075.8ZM2462.95,7312.83C2462.15,7313.26 2458.18,7315.52 2459.01,7320.88C2458.54,7317.58 2460.18,7314.42 2462.95,7312.83ZM2471.79,7313.42L2471.91,7313.51L2471.9,7313.5L2471.79,7313.42ZM2471.69,7313.35C2469.95,7312.06 2467.7,7311.47 2465.41,7311.92C2464.73,7312.05 2464.09,7312.26 2463.5,7312.54C2465.73,7311.43 2468.58,7310.99 2471.69,7313.35ZM2396.22,7079.56C2397.5,7080.41 2399.03,7080.89 2400.68,7080.88C2401.54,7080.87 2402.38,7080.73 2403.15,7080.47C2401.21,7081.18 2398.79,7081.36 2396.22,7079.56ZM2404.47,7079.89C2405.92,7079.15 2408.65,7077.34 2408.61,7072.81C2408.64,7075.85 2406.96,7078.51 2404.47,7079.89Z" style="fill:rgb(137,144,154);"/>
                        <path d="M2264.22,7482.07L2265.03,7475.73C2269.54,7441.13 2290.68,7281.29 2295.68,7249.97C2295.95,7248.26 2296.26,7246.56 2296.38,7245.92C2297.76,7241.84 2295.64,7237.36 2291.57,7235.86C2289.43,7235.07 2287.11,7235.06 2284.7,7236.49C2283.91,7236.96 2282.51,7237.88 2281.51,7240.03C2281.3,7240.47 2280.58,7243.03 2279.87,7247.45C2274.87,7278.83 2253.68,7438.99 2249.17,7473.66C2248.66,7477.6 2248.35,7479.95 2248.31,7480.37C2248.11,7482.18 2248.47,7483.16 2248.49,7483.26C2249.76,7488.34 2253.58,7489.1 2255.5,7489.28C2257.27,7489.45 2260.92,7489.49 2263.28,7485.13C2263.81,7484.16 2264.12,7483.12 2264.22,7482.07ZM2292.46,7250.48C2290.53,7251.47 2288.22,7251.68 2286.03,7250.87C2288.03,7251.61 2290.2,7251.67 2292.46,7250.48Z" style="fill:rgb(137,144,154);"/>
                        <path d="M1990.85,7540.96C1991.29,7540.25 1992.34,7538.61 1993.47,7536.9C2014.92,7504.56 2133.19,7334.06 2134.22,7332.6C2136.75,7328.99 2135.88,7324 2132.27,7321.46C2128.65,7318.92 2123.66,7319.79 2121.12,7323.41C2120.1,7324.86 2001.63,7495.66 1980.14,7528.06C1977.82,7531.56 1976.5,7533.75 1976.25,7534.29C1975.43,7536.07 1975.47,7537.38 1975.49,7537.97C1975.59,7541.58 1977.5,7543.48 1979.35,7544.6C1980.67,7545.39 1984.28,7547.37 1988.52,7543.98C1989.56,7543.15 1990.34,7542.1 1990.85,7540.96ZM1987.02,7530.53C1988.5,7531.19 1989.72,7532.25 1990.54,7533.87C1990.32,7533.48 1990.07,7533.1 1989.78,7532.74C1989.01,7531.77 1988.06,7531.03 1987.02,7530.53ZM1984.4,7529.78C1983.04,7529.57 1980.89,7529.59 1978.54,7531.47C1980.26,7530.1 1982.37,7529.55 1984.4,7529.78ZM1986.85,7530.45L1986.85,7530.45L1986.85,7530.45Z" style="fill:rgb(137,144,154);"/>
                        <path d="M1929.22,7339.91C1928.9,7340.11 1926.72,7341.52 1923.67,7343.47C1892.86,7363.16 1749.31,7454.29 1720.41,7471.61C1718.78,7472.59 1717.11,7473.54 1716.53,7473.87C1715.96,7474.09 1715.41,7474.38 1714.89,7474.74C1711.26,7477.25 1710.35,7482.24 1712.87,7485.87C1713.76,7487.16 1716.41,7490.59 1721.81,7488.98C1722.3,7488.83 1724.75,7487.67 1728.63,7485.34C1757.59,7467.98 1901.41,7376.68 1932.29,7356.95C1935.84,7354.68 1937.94,7353.32 1938.28,7353.09C1939.84,7352.03 1940.35,7351.07 1940.44,7350.94C1942.68,7347.64 1941.83,7344.88 1941.21,7343.39C1940.42,7341.5 1939.05,7339.9 1936.71,7338.99C1935.91,7338.68 1934.03,7337.93 1931.24,7338.88C1930.5,7339.13 1929.82,7339.48 1929.22,7339.91ZM1721.31,7473.54C1723.16,7473.98 1724.85,7475.08 1726.02,7476.76C1725.06,7475.38 1723.63,7474.07 1721.31,7473.54ZM1930.92,7353.91L1930.92,7353.91C1931.69,7354.21 1933.42,7354.9 1935.97,7354.16C1934.25,7354.64 1932.49,7354.52 1930.92,7353.91Z" style="fill:rgb(137,144,154);"/>
                        <path d="M1339.22,6826.05C1340.24,6826.86 1347.44,6832.68 1355.19,6839.68C1395.75,6876.34 1490.66,6968.66 1513.69,6989.62C1517.89,6993.45 1520.76,6995.27 1521.33,6995.48C1524.04,6996.48 1526.05,6995.86 1527.25,6995.36C1529.16,6994.56 1530.53,6993.23 1531.4,6991.4C1533.2,6987.59 1531.74,6983.08 1528.14,6981.03C1527.51,6980.49 1525.97,6979.16 1524.46,6977.79C1501.43,6956.82 1406.49,6864.48 1365.92,6827.81C1357.4,6820.11 1351.13,6814.77 1348.24,6812.82C1346.11,6811.38 1344.43,6810.91 1343.59,6810.77C1339.23,6810.06 1335.11,6813.02 1334.4,6817.38C1333.79,6821.11 1335.87,6824.66 1339.22,6826.05ZM1523.9,6979.98C1520.17,6979.98 1518.12,6982.06 1516.94,6984.54C1518.27,6981.75 1521.01,6980.07 1523.9,6979.98Z" style="fill:rgb(137,144,154);"/>
                        <path d="M1599.79,7151.45C1598.47,7151.18 1588.53,7149.06 1577.07,7146.22C1519.95,7132.08 1382.06,7095.19 1375.29,7092.42C1371.21,7090.75 1366.53,7092.71 1364.86,7096.8C1363.19,7100.89 1365.15,7105.56 1369.24,7107.23C1376.94,7110.38 1552.45,7157.36 1590.71,7165.94C1594.58,7166.81 1597.22,7167.3 1598.38,7167.41C1599.93,7167.56 1600.98,7167.36 1601.52,7167.24C1605.82,7166.22 1608.47,7161.9 1607.45,7157.6C1606.59,7153.97 1603.36,7151.5 1599.79,7151.45Z" style="fill:rgb(137,144,154);"/>
                        <path d="M1485.78,7311.22C1513.23,7311.86 1735.07,7311.43 1750.11,7311.65C1754.53,7311.71 1758.16,7308.18 1758.23,7303.77C1758.29,7299.35 1754.76,7295.72 1750.34,7295.65C1735.32,7295.43 1513.59,7295.86 1486.15,7295.23C1481.74,7295.12 1478.07,7298.62 1477.97,7303.04C1477.87,7307.45 1481.37,7311.12 1485.78,7311.22Z" style="fill:rgb(137,144,154);"/>
                        <path d="M1928.14,6437.41C1966.44,6402.77 2096.47,6290.23 2122.46,6267.76C2125.8,6264.88 2126.17,6259.82 2123.28,6256.48C2120.39,6253.14 2115.34,6252.77 2111.99,6255.66C2085.97,6278.16 1955.76,6390.85 1917.4,6425.55C1914.13,6428.51 1913.88,6433.57 1916.84,6436.85C1919.8,6440.12 1924.86,6440.38 1928.14,6437.41Z" style="fill:rgb(137,144,154);"/>
                        <path d="M1591.7,6374.28C1591.71,6374.81 1591.78,6377.24 1591.83,6380.1C1592.44,6414.11 1594.51,6573.88 1595.65,6605.43C1595.8,6609.67 1596.12,6612.17 1596.24,6612.62C1597.92,6618.72 1602.99,6618.66 1604.62,6618.53C1609.02,6618.18 1612.31,6614.32 1611.96,6609.92C1611.93,6609.62 1611.89,6609.33 1611.84,6609.05C1611.8,6608.43 1611.7,6606.64 1611.64,6604.85C1610.5,6573.34 1608.44,6413.78 1607.83,6379.81C1607.75,6375.69 1607.68,6373.26 1607.64,6372.91C1607.28,6368.84 1604.78,6367.42 1604.46,6367.18C1601.51,6364.98 1598.57,6364.99 1595.67,6366.66C1594.82,6367.15 1592.72,6368.33 1591.9,6371.68C1591.68,6372.56 1591.62,6373.43 1591.7,6374.28ZM1609.45,6604.72C1607.47,6602.82 1605.29,6602.43 1603.35,6602.58C1605.68,6602.4 1607.86,6603.24 1609.45,6604.72ZM1603.77,6380.46L1603.66,6380.52L1603.66,6380.52L1603.77,6380.46ZM1607.31,6375.95C1606.72,6377.88 1605.44,6379.44 1603.83,6380.43C1604.71,6379.91 1606.48,6378.77 1607.31,6375.95Z" style="fill:rgb(137,144,154);"/>
                    </g>
                </g>
                <g transform="matrix(1.34319,0,0,1.28261,-745.532,-2046.91)">
                    <ellipse cx="2037.23" cy="6969.59" rx="579.051" ry="606.403" style="fill:none;stroke:black;stroke-width:135.37px;"/>
                </g>
                <g>
                    <g transform="matrix(1.40038,0,0,1.45872,-521.219,-2776.26)">
                        <path d="M2606.84,6572.34C2606.84,6201.75 2259.94,5818.04 1805.64,5818.04C1557.22,5818.04 1321.48,5923.24 1167.21,6094.95C1039.37,6237.26 970.389,6430.69 970.389,6598.63C970.389,6423.78 1029.91,6240.15 1167.21,6094.95C1320.92,5932.41 1565.7,5818.04 1805.64,5818.04C2206.66,5818.04 2523.55,6114.94 2592.47,6439.97C2601.62,6483.15 2606.84,6528.88 2606.84,6572.34Z" style="fill:none;stroke:rgb(137,144,154);stroke-width:124.33px;"/>
                    </g>
                    <g>
                        <path d="M1425.26,5976.83C1525.69,5871.42 1745.37,5660.57 1754.54,5652.43C1756.83,5650.4 1757.04,5646.88 1755.01,5644.59C1752.97,5642.3 1749.46,5642.09 1747.17,5644.12C1737.98,5652.27 1517.85,5863.54 1417.22,5969.17C1415.1,5971.39 1415.19,5974.9 1417.41,5977.02C1419.63,5979.14 1423.15,5979.05 1425.26,5976.83Z"/>
                        <path d="M1918.46,5821.25C1983.58,5793.06 2238.74,5691.45 2299.92,5665.61C2302.75,5664.42 2304.07,5661.15 2302.88,5658.33C2301.69,5655.51 2298.42,5654.18 2295.6,5655.37C2234.41,5681.23 1979.18,5782.86 1914.04,5811.06C1911.23,5812.28 1909.93,5815.55 1911.15,5818.36C1912.37,5821.18 1915.64,5822.47 1918.46,5821.25Z"/>
                        <path d="M1145.47,6235.97C1161.42,6126.67 1192.07,6019.61 1208.73,5910.29C1209.19,5907.26 1207.1,5904.42 1204.07,5903.96C1201.04,5903.5 1198.2,5905.58 1197.74,5908.62C1181.09,6017.96 1150.43,6125.05 1134.47,6234.37C1134.03,6237.4 1136.13,6240.22 1139.17,6240.67C1142.2,6241.11 1145.03,6239.01 1145.47,6235.97Z"/>
                        <path d="M2401.72,5884.47C2469.24,5890.74 2719.61,5928.3 2792.22,5936.68C2795.27,5937.03 2798.03,5934.84 2798.38,5931.8C2798.73,5928.75 2796.55,5925.99 2793.5,5925.64C2720.84,5917.26 2470.31,5879.68 2402.75,5873.4C2399.7,5873.12 2396.99,5875.37 2396.7,5878.42C2396.42,5881.47 2398.67,5884.18 2401.72,5884.47Z"/>
                        <g transform="matrix(0.991506,0,0,0.989233,26.4451,68.4051)">
                            <path d="M2766.89,6161.99C2823.91,6196.35 3053.65,6325.04 3110.53,6358C3113.21,6359.55 3116.64,6358.63 3118.18,6355.95C3119.73,6353.26 3118.82,6349.83 3116.14,6348.27C3059.28,6315.33 2829.66,6186.71 2772.66,6152.37C2770.01,6150.77 2766.57,6151.63 2764.97,6154.29C2763.38,6156.94 2764.24,6160.4 2766.89,6161.99Z"/>
                        </g>
                        <g transform="matrix(0.768195,0,0,0.78283,722.451,1434.34)">
                            <path d="M2955.36,6507.11C3046.13,6574.22 3136.4,6641.85 3229.29,6706.09C3232.55,6708.34 3237.07,6707.57 3239.37,6704.37C3241.67,6701.17 3240.88,6696.74 3237.62,6694.49C3144.86,6630.34 3054.71,6562.79 2964.06,6495.77C2960.88,6493.41 2956.34,6494.04 2953.93,6497.17C2951.53,6500.3 2952.17,6504.75 2955.36,6507.11Z"/>
                        </g>
                        <path d="M990.23,6558.7C971.552,6502.53 906.393,6317.75 892.42,6281.72C891.311,6278.86 888.09,6277.44 885.232,6278.55C882.373,6279.66 880.952,6282.88 882.06,6285.74C896.008,6321.7 961.043,6506.14 979.687,6562.21C980.654,6565.12 983.802,6566.7 986.711,6565.73C989.621,6564.76 991.198,6561.61 990.23,6558.7Z"/>
                        <path d="M363.067,6878.3C374.347,6878.06 620.023,6880.59 625.313,6880C628.36,6879.66 630.559,6876.91 630.219,6873.87C629.879,6870.82 627.129,6868.62 624.082,6868.96C618.812,6869.55 374.067,6866.95 362.83,6867.19C359.765,6867.26 357.329,6869.8 357.394,6872.87C357.46,6875.93 360.001,6878.37 363.067,6878.3Z"/>
                    </g>
                </g>
            </g>
            <path d="M256.424,7033.58C258.016,7036.53 260.044,7039.23 262.436,7041.58C271.082,7052.63 282.216,7065.19 295.168,7078.29C350.393,7134.16 438.314,7204.24 469.597,7216.88C489.23,7224.82 536.297,7231.09 595.736,7235.01C722.495,7243.35 910.168,7244.52 980.818,7252.24C992.979,7253.57 1004.89,7248.13 1011.85,7238.07C1018.81,7228.01 1019.7,7214.95 1014.17,7204.04C997.387,7170.93 954.534,7014.91 954.534,7014.91C950.514,7000.42 937.292,6990.41 922.256,6990.48C922.256,6990.48 866.241,6990.75 787.339,6990.85C629.487,6991.05 379.166,6990.86 306.632,6986.29C305.982,6977.51 304.623,6957.41 304.306,6938.97C303.507,6892.42 304.335,6830.57 305.006,6793.21C323.725,6793.19 338.958,6792.92 338.958,6792.92C357.261,6792.6 371.882,6777.58 371.706,6759.28L370.482,6631.61C370.482,6631.61 489.479,6628.95 489.479,6628.95C505.77,6657.25 536.8,6711.03 540.121,6715.91C612.708,6822.65 692.574,6925.12 834.504,6938.78C852.817,6940.55 869.116,6927.11 870.878,6908.8C872.641,6890.49 859.205,6874.19 840.892,6872.43C720.572,6860.84 656.782,6768.91 595.248,6678.42C590.913,6672.05 537.428,6578.6 537.428,6578.6C531.354,6568.01 519.974,6561.58 507.766,6561.85L336.089,6565.69C317.85,6566.1 303.328,6581.1 303.503,6599.34L304.723,6726.55C294.54,6726.56 283.32,6726.5 273.094,6726.27C254.714,6725.86 239.473,6740.41 239.029,6758.79C239.029,6758.79 235.612,6901.45 238.457,6969.11C239.397,6991.47 242.043,7007.5 244.224,7012.98C246.402,7018.44 250.577,7025.47 256.424,7033.58ZM366.625,7054.74C413.341,7098.47 471.305,7145.67 494.578,7155.07C510.968,7161.7 550.493,7165.22 600.113,7168.48C703.261,7175.27 846.44,7177.43 935.197,7182.11C921.581,7140.86 906.035,7087.76 897.269,7057.25C873.475,7057.34 834.52,7057.45 787.424,7057.51C660.807,7057.68 475.896,7057.26 366.625,7054.74Z" style="fill:rgb(137,144,154);"/>
            <g>
                <path d="M365.484,6841.44L616.639,6841.93" style="fill:none;stroke:black;stroke-width:11.11px;"/>
                <path d="M365.484,6804.11C365.484,6804.11 593.94,6803.11 595.098,6802.97" style="fill:none;stroke:black;stroke-width:11.11px;"/>
                <path d="M386.679,6765.64L562.051,6765.64" style="fill:none;stroke:black;stroke-width:11.11px;"/>
                <path d="M386.679,6728.31L540.814,6728.31" style="fill:none;stroke:black;stroke-width:11.11px;"/>
                <path d="M386.679,6690.98L512.389,6690.98" style="fill:none;stroke:black;stroke-width:11.11px;"/>
            </g>
        </g>
    </g>
</svg>
