<?xml version="1.0" encoding="UTF-8" standalone="no"?>
<!DOCTYPE svg PUBLIC "-//W3C//DTD SVG 1.1//EN" "http://www.w3.org/Graphics/SVG/1.1/DTD/svg11.dtd">
<svg width="100%" height="100%" viewBox="0 0 267 267" version="1.1" xmlns="http://www.w3.org/2000/svg" xmlns:xlink="http://www.w3.org/1999/xlink" xml:space="preserve" xmlns:serif="http://www.serif.com/" style="fill-rule:evenodd;clip-rule:evenodd;stroke-linejoin:round;stroke-miterlimit:2;">
    <g transform="matrix(4.16667,0,0,4.16667,0,0)">
        <path d="M55.5,53.5L55.5,18.5L8.5,18.5L8.5,53.5L3.5,53.5L3.5,13.5L60.5,13.5L60.5,53.5L55.5,53.5Z" style="fill:rgb(240,240,240);fill-rule:nonzero;"/>
        <path d="M60,14L60,53L56,53L56,18L8,18L8,53L4,53L4,14L60,14M61,13L3,13L3,54L9,54L9,19L55,19L55,54L61,54L61,13Z" style="fill:rgb(200,200,200);fill-rule:nonzero;"/>
        <g id="Tor">
        </g>
    </g>
</svg>
